Fraunces-LightOpMax.ufo
<glyph name="exclam" format="2">
  <advance width="450"/>
  <unicode hex="0021"/>
  <outline>
    <contour>
      <point x="240.0" y="1426.0" type="curve" smooth="yes"/>
      <point x="218.66666666666666" y="1426.0"/>
      <point x="208.0" y="1415.84375"/>
      <point x="208.0" y="1401.0" type="curve" smooth="yes"/>
      <point x="208.0" y="1384.8461538461538"/>
      <point x="208.7620812172968" y="1379.996854708888"/>
      <point x="209.0" y="1371.0" type="curve" smooth="yes"/>
      <point x="236.0" y="350.0" type="line" smooth="yes"/>
      <point x="236" y="348"/>
      <point x="237.0" y="346.0"/>
      <point x="239.0" y="346.0" type="curve" smooth="yes"/>
      <point x="241" y="346.0"/>
      <point x="242" y="348"/>
      <point x="242.0" y="350.0" type="curve" smooth="yes"/>
      <point x="269.0" y="1371.0" type="line" smooth="yes"/>
      <point x="269" y="1383"/>
      <point x="270.0" y="1390.6756756756756"/>
      <point x="270.0" y="1399.0" type="curve" smooth="yes"/>
      <point x="270.0" y="1412.5"/>
      <point x="261.75" y="1426.0"/>
    </contour>
    <component base="period" xOffset="79" yOffset="11"/>
  </outline>
</glyph>
<glyph name="ampersand" format="2">
  <advance width="599"/>
  <unicode hex="0026"/>
  <outline>
    <contour>
      <point x="227" y="653" type="curve" smooth="yes"/>
      <point x="161" y="653"/>
      <point x="114" y="600"/>
      <point x="114" y="527" type="curve" smooth="yes"/>
      <point x="114" y="458"/>
      <point x="149" y="403"/>
      <point x="202" y="380" type="curve" smooth="yes"/>
      <point x="248" y="361"/>
      <point x="273" y="344"/>
      <point x="305" y="301" type="curve" smooth="yes"/>
      <point x="501" y="60" type="line" smooth="yes"/>
      <point x="530" y="24"/>
      <point x="550" y="7"/>
      <point x="584" y="0" type="curve" smooth="yes"/>
      <point x="587" y="0"/>
      <point x="589" y="1"/>
      <point x="589" y="0" type="curve" smooth="yes"/>
      <point x="589" y="0"/>
      <point x="589" y="-1"/>
      <point x="587" y="-1" type="curve" smooth="yes"/>
      <point x="519" y="-1" type="line" smooth="yes"/>
      <point x="503" y="-1"/>
      <point x="490" y="3"/>
      <point x="480" y="18" type="curve" smooth="yes"/>
      <point x="294" y="252" type="line" smooth="yes"/>
      <point x="265" y="292"/>
      <point x="242" y="307"/>
      <point x="205" y="323" type="curve" smooth="yes"/>
      <point x="139" y="351"/>
      <point x="98" y="415"/>
      <point x="98" y="495" type="curve" smooth="yes"/>
      <point x="98" y="589"/>
      <point x="163" y="659"/>
      <point x="231" y="659" type="curve" smooth="yes"/>
      <point x="311" y="659"/>
      <point x="357" y="609"/>
      <point x="357" y="537" type="curve" smooth="yes"/>
      <point x="357" y="462"/>
      <point x="329" y="405"/>
      <point x="257" y="358" type="curve"/>
      <point x="245" y="359" type="line"/>
      <point x="314" y="402"/>
      <point x="337" y="450"/>
      <point x="337" y="514" type="curve" smooth="yes"/>
      <point x="337" y="602"/>
      <point x="284" y="653"/>
    </contour>
    <contour>
      <point x="212" y="337" type="line"/>
      <point x="145" y="333"/>
      <point x="81" y="264"/>
      <point x="81" y="190" type="curve" smooth="yes"/>
      <point x="81" y="85"/>
      <point x="149" y="20"/>
      <point x="263" y="20" type="curve" smooth="yes"/>
      <point x="327" y="20"/>
      <point x="384" y="59"/>
      <point x="421" y="112" type="curve"/>
      <point x="416" y="109" type="line"/>
      <point x="348" y="26"/>
      <point x="298" y="-10"/>
      <point x="217" y="-10" type="curve" smooth="yes"/>
      <point x="110" y="-10"/>
      <point x="53" y="68"/>
      <point x="53" y="159" type="curve" smooth="yes"/>
      <point x="53" y="256"/>
      <point x="123" y="334"/>
      <point x="212" y="334" type="curve"/>
    </contour>
    <contour>
      <point x="427" y="164" type="line"/>
      <point x="505" y="307" type="line" smooth="yes"/>
      <point x="509" y="319"/>
      <point x="507" y="316"/>
      <point x="507" y="327" type="curve" smooth="yes"/>
      <point x="507" y="339"/>
      <point x="500" y="340"/>
      <point x="480" y="347" type="curve" smooth="yes"/>
      <point x="442" y="360" type="line" smooth="yes"/>
      <point x="436" y="362"/>
      <point x="432" y="359"/>
      <point x="432" y="362" type="curve" smooth="yes"/>
      <point x="432" y="363"/>
      <point x="434" y="362"/>
      <point x="438" y="362" type="curve" smooth="yes"/>
      <point x="590" y="362" type="line" smooth="yes"/>
      <point x="588" y="362"/>
      <point x="591" y="363"/>
      <point x="591" y="364" type="curve" smooth="yes"/>
      <point x="591" y="365"/>
      <point x="586" y="369"/>
      <point x="588" y="369" type="curve" smooth="yes"/>
      <point x="549" y="354"/>
      <point x="526" y="337"/>
      <point x="514" y="312" type="curve" smooth="yes"/>
      <point x="426" y="152" type="line"/>
    </contour>
  </outline>
</glyph>
<glyph name="comma" format="2">
  <advance width="313"/>
  <unicode hex="002C"/>
  <outline>
    <contour>
      <point x="166" y="0" type="curve" smooth="yes"/>
      <point x="184" y="0" type="line" smooth="yes"/>
      <point x="194.0" y="0.0"/>
      <point x="198.0" y="-7"/>
      <point x="198" y="-17" type="curve" smooth="yes"/>
      <point x="198.0" y="-143.0"/>
      <point x="154.65691160039484" y="-256.69992926895543"/>
      <point x="73" y="-294" type="curve" smooth="yes"/>
      <point x="70" y="-295"/>
      <point x="70.0" y="-300.0"/>
      <point x="71" y="-301" type="curve" smooth="yes"/>
      <point x="73" y="-303"/>
      <point x="74" y="-302"/>
      <point x="79" y="-300" type="curve" smooth="yes"/>
      <point x="155.8132043899261" y="-264.0873330125021"/>
      <point x="210.0" y="-168.17177914110428"/>
      <point x="210" y="16" type="curve" smooth="yes"/>
      <point x="210.0" y="78.4367816091954"/>
      <point x="191.86666666666667" y="113.0"/>
      <point x="159" y="113" type="curve" smooth="yes"/>
      <point x="132.46153846153845" y="113.0"/>
      <point x="113.0" y="90.01886792452831"/>
      <point x="113" y="55" type="curve" smooth="yes"/>
      <point x="113.0" y="22.916666666666664"/>
      <point x="131" y="0"/>
    </contour>
  </outline>
</glyph>
<glyph name="hyphen" format="2">
  <advance width="453"/>
  <unicode hex="002D"/>
  <outline>
    <contour>
      <point x="419" y="511" type="curve" smooth="yes"/>
      <point x="51" y="511" type="line" smooth="yes"/>
      <point x="46" y="511"/>
      <point x="44" y="510"/>
      <point x="43" y="506" type="curve" smooth="yes"/>
      <point x="31" y="467" type="line" smooth="yes"/>
      <point x="30" y="463"/>
      <point x="30" y="461"/>
      <point x="34" y="461" type="curve" smooth="yes"/>
      <point x="402" y="461" type="line" smooth="yes"/>
      <point x="407" y="461"/>
      <point x="409" y="462"/>
      <point x="410" y="466" type="curve" smooth="yes"/>
      <point x="422" y="505" type="line" smooth="yes"/>
      <point x="423" y="509"/>
      <point x="423" y="511"/>
    </contour>
  </outline>
</glyph>
<glyph name="period" format="2">
  <advance width="295"/>
  <unicode hex="002E"/>
  <outline>
    <contour>
      <point x="147" y="-14" type="curve" smooth="yes"/>
      <point x="174" y="-14"/>
      <point x="195" y="12"/>
      <point x="195" y="46" type="curve" smooth="yes"/>
      <point x="195" y="79"/>
      <point x="175" y="107"/>
      <point x="147" y="107" type="curve" smooth="yes"/>
      <point x="122" y="107"/>
      <point x="100" y="80"/>
      <point x="100" y="46" type="curve" smooth="yes"/>
      <point x="100" y="12"/>
      <point x="119" y="-14"/>
    </contour>
  </outline>
</glyph>
<glyph name="zero" format="2">
  <advance width="1170"/>
  <unicode hex="0030"/>
  <outline>
    <contour>
      <point x="586" y="1410" type="curve" smooth="yes"/>
      <point x="299.0" y="1410.0"/>
      <point x="115.0" y="1139.0"/>
      <point x="115" y="708" type="curve" smooth="yes"/>
      <point x="115.0" y="246.4285714285714"/>
      <point x="277.0" y="-10.0"/>
      <point x="568" y="-10" type="curve" smooth="yes"/>
      <point x="850.0" y="-10.0"/>
      <point x="1055.0" y="237.55219780219778"/>
      <point x="1055" y="708" type="curve" smooth="yes"/>
      <point x="1055.0" y="1146.0"/>
      <point x="868.0" y="1410.0"/>
    </contour>
    <contour>
      <point x="990" y="678" type="curve" smooth="yes"/>
      <point x="990.0" y="181.32558139534888"/>
      <point x="808.0" y="0.0"/>
      <point x="568" y="0" type="curve" smooth="yes"/>
      <point x="316.0" y="0.0"/>
      <point x="180.0" y="202.25935828877004"/>
      <point x="180" y="738" type="curve" smooth="yes"/>
      <point x="180.0" y="1164.0"/>
      <point x="317.0" y="1400.0"/>
      <point x="586" y="1400" type="curve" smooth="yes"/>
      <point x="842.0" y="1400.0"/>
      <point x="990.0" y="1176.0"/>
    </contour>
  </outline>
</glyph>
<glyph name="one" format="2">
  <advance width="732"/>
  <unicode hex="0031"/>
  <outline>
    <contour>
      <point x="146.0" y="1154.0" type="line" smooth="yes"/>
      <point x="132.0" y="1154.0"/>
      <point x="126.0" y="1160.0"/>
      <point x="126.0" y="1166.0" type="curve" smooth="yes"/>
      <point x="126.0" y="1172.0"/>
      <point x="134.0" y="1178.0"/>
      <point x="146.0" y="1178.0" type="curve" smooth="yes"/>
      <point x="258.0" y="1178.0" type="line" smooth="yes"/>
      <point x="328.0" y="1178.0"/>
      <point x="358.0" y="1210.0"/>
      <point x="406.0" y="1272.0" type="curve" smooth="yes"/>
      <point x="410.0" y="1286.0"/>
      <point x="416.0" y="1290.0"/>
      <point x="424.0" y="1290.0" type="curve" smooth="yes"/>
      <point x="432.0" y="1290.0"/>
      <point x="434.0" y="1284.0"/>
      <point x="434.0" y="1272.0" type="curve" smooth="yes"/>
      <point x="434.0" y="82.0" type="line" smooth="yes"/>
      <point x="434.0" y="56.0"/>
      <point x="470.0" y="38.0"/>
      <point x="512.0" y="34.0" type="curve" smooth="yes"/>
      <point x="708.0" y="6.0" type="line" smooth="yes"/>
      <point x="714.0" y="8.0"/>
      <point x="718.0" y="6.0"/>
      <point x="718.0" y="2.0" type="curve" smooth="yes"/>
      <point x="718.0" y="0.0"/>
      <point x="716.0" y="0.0"/>
      <point x="708.0" y="0.0" type="curve" smooth="yes"/>
      <point x="80.0" y="0.0" type="line" smooth="yes"/>
      <point x="72.0" y="0.0"/>
      <point x="66.0" y="2.0"/>
      <point x="66.0" y="6.0" type="curve" smooth="yes"/>
      <point x="66.0" y="12.0"/>
      <point x="72.0" y="14.0"/>
      <point x="82.0" y="12.0" type="curve" smooth="yes"/>
      <point x="268.0" y="34.0" type="line" smooth="yes"/>
      <point x="322.0" y="36.0"/>
      <point x="368.0" y="52.0"/>
      <point x="368.0" y="82.0" type="curve" smooth="yes"/>
      <point x="368.0" y="1036.0" type="line" smooth="yes"/>
      <point x="368.0" y="1120.0"/>
      <point x="332.0" y="1154.0"/>
      <point x="276.0" y="1154.0" type="curve" smooth="yes"/>
    </contour>
  </outline>
</glyph>
<glyph name="two" format="2">
  <advance width="938"/>
  <unicode hex="0032"/>
  <outline>
    <contour>
      <point x="466.0" y="562.0" type="curve" smooth="yes"/>
      <point x="188.0" y="414.0"/>
      <point x="94.0" y="206.0"/>
      <point x="94.0" y="12.0" type="curve" smooth="yes"/>
      <point x="94.0" y="-10.0"/>
      <point x="102.0" y="-20.0"/>
      <point x="112.0" y="-20.0" type="curve" smooth="yes"/>
      <point x="126.0" y="-20.0"/>
      <point x="154.0" y="136.0"/>
      <point x="256.0" y="136.0" type="curve" smooth="yes"/>
      <point x="392.0" y="136.0"/>
      <point x="506.0" y="-20.0"/>
      <point x="634.0" y="-20.0" type="curve" smooth="yes"/>
      <point x="772.0" y="-20.0"/>
      <point x="848.0" y="54.0"/>
      <point x="848.0" y="196.0" type="curve" smooth="yes"/>
      <point x="848.0" y="184.0"/>
      <point x="850.0" y="172.0"/>
      <point x="854.0" y="172.0" type="curve" smooth="yes"/>
      <point x="852.0" y="172.0"/>
      <point x="850.0" y="172.0"/>
      <point x="848.0" y="170.0" type="curve" smooth="yes"/>
      <point x="822.0" y="100.0"/>
      <point x="792.0" y="70.0"/>
      <point x="702.0" y="70.0" type="curve" smooth="yes"/>
      <point x="580.0" y="70.0"/>
      <point x="464.0" y="198.0"/>
      <point x="294.0" y="198.0" type="curve" smooth="yes"/>
      <point x="160.0" y="198.0"/>
      <point x="90.0" y="84.0"/>
      <point x="90.0" y="-40.0" type="curve"/>
      <point x="92.0" y="-40.0" type="line"/>
      <point x="92.0" y="162.0"/>
      <point x="126.0" y="330.0"/>
      <point x="398.0" y="506.0" type="curve" smooth="yes"/>
      <point x="738.0" y="716.0"/>
      <point x="818.0" y="824.0"/>
      <point x="818.0" y="996.0" type="curve" smooth="yes"/>
      <point x="818.0" y="1156.0"/>
      <point x="702.0" y="1280.0"/>
      <point x="512.0" y="1280.0" type="curve" smooth="yes"/>
      <point x="296.0" y="1280.0"/>
      <point x="144.0" y="1100.0"/>
      <point x="144.0" y="1010.0" type="curve" smooth="yes"/>
      <point x="144.0" y="958.0"/>
      <point x="170.0" y="932.0"/>
      <point x="212.0" y="932.0" type="curve" smooth="yes"/>
      <point x="234.0" y="932.0"/>
      <point x="260.0" y="966.0"/>
      <point x="260.0" y="1006.0" type="curve" smooth="yes"/>
      <point x="260.0" y="1062.0" type="line" smooth="yes"/>
      <point x="260.0" y="1198.0"/>
      <point x="330.0" y="1272.0"/>
      <point x="480.0" y="1272.0" type="curve" smooth="yes"/>
      <point x="620.0" y="1272.0"/>
      <point x="744.0" y="1174.0"/>
      <point x="744.0" y="988.0" type="curve" smooth="yes"/>
      <point x="744.0" y="774.0"/>
      <point x="652.0" y="658.0"/>
    </contour>
  </outline>
</glyph>
<glyph name="three" format="2">
  <advance width="872"/>
  <unicode hex="0033"/>
  <outline>
    <contour>
      <point x="326.0" y="650.0" type="line"/>
      <point x="790.0" y="1226.0" type="line" smooth="yes"/>
      <point x="800.0" y="1242.0"/>
      <point x="812.0" y="1248.0"/>
      <point x="812.0" y="1260.0" type="curve" smooth="yes"/>
      <point x="812.0" y="1260.0"/>
      <point x="802.0" y="1260.0"/>
      <point x="816.0" y="1260.0" type="curve" smooth="yes"/>
      <point x="158.0" y="1260.0" type="line" smooth="yes"/>
      <point x="166.0" y="1260.0"/>
      <point x="172.0" y="1254.0"/>
      <point x="170.0" y="1246.0" type="curve" smooth="yes"/>
      <point x="132.0" y="1046.0" type="line" smooth="yes"/>
      <point x="128.0" y="1028.0"/>
      <point x="130.0" y="1022.0"/>
      <point x="128.0" y="1022.0" type="curve" smooth="yes"/>
      <point x="132.0" y="1022.0"/>
      <point x="138.0" y="1026.0"/>
      <point x="138.0" y="1028.0" type="curve" smooth="yes"/>
      <point x="196.0" y="1144.0" type="line" smooth="yes"/>
      <point x="212.0" y="1174.0"/>
      <point x="228.0" y="1186.0"/>
      <point x="250.0" y="1186.0" type="curve" smooth="yes"/>
      <point x="716.0" y="1186.0" type="line"/>
      <point x="724.0" y="1174.0" type="line"/>
      <point x="314.0" y="656.0" type="line" smooth="yes"/>
      <point x="318.0" y="658.0"/>
      <point x="322.0" y="662.0"/>
      <point x="322.0" y="666.0" type="curve" smooth="yes"/>
      <point x="322.0" y="662.0"/>
      <point x="324.0" y="656.0"/>
      <point x="332.0" y="656.0" type="curve" smooth="yes"/>
      <point x="390.0" y="656.0" type="line" smooth="yes"/>
      <point x="588.0" y="656.0"/>
      <point x="720.0" y="538.0"/>
      <point x="720.0" y="288.0" type="curve" smooth="yes"/>
      <point x="720.0" y="124.0"/>
      <point x="610.0" y="-6.0"/>
      <point x="448.0" y="-8.0" type="curve" smooth="yes"/>
      <point x="296.0" y="-10.0"/>
      <point x="210.0" y="76.0"/>
      <point x="210.0" y="180.0" type="curve" smooth="yes"/>
      <point x="210.0" y="214.0" type="line" smooth="yes"/>
      <point x="210.0" y="260.0"/>
      <point x="178.0" y="292.0"/>
      <point x="140.0" y="292.0" type="curve" smooth="yes"/>
      <point x="108.0" y="292.0"/>
      <point x="80.0" y="264.0"/>
      <point x="80.0" y="228.0" type="curve" smooth="yes"/>
      <point x="80.0" y="92.0"/>
      <point x="180.0" y="-20.0"/>
      <point x="386.0" y="-20.0" type="curve" smooth="yes"/>
      <point x="596.0" y="-20.0"/>
      <point x="784.0" y="140.0"/>
      <point x="784.0" y="348.0" type="curve" smooth="yes"/>
      <point x="784.0" y="570.0"/>
      <point x="640.0" y="664.0"/>
      <point x="412.0" y="664.0" type="curve" smooth="yes"/>
      <point x="398.0" y="664.0"/>
      <point x="368.0" y="664.0"/>
      <point x="350.0" y="664.0" type="curve"/>
    </contour>
  </outline>
</glyph>
<glyph name="four" format="2">
  <advance width="918"/>
  <unicode hex="0034"/>
  <outline>
    <contour>
      <point x="604" y="908" type="curve" smooth="yes"/>
      <point x="604" y="53" type="line" smooth="yes"/>
      <point x="604" y="39"/>
      <point x="597" y="30"/>
      <point x="582" y="29" type="curve" smooth="yes"/>
      <point x="396" y="13" type="line" smooth="yes"/>
      <point x="391" y="13"/>
      <point x="387" y="11"/>
      <point x="387" y="6" type="curve" smooth="yes"/>
      <point x="387" y="2"/>
      <point x="390" y="0"/>
      <point x="395" y="0" type="curve" smooth="yes"/>
      <point x="857" y="0" type="line" smooth="yes"/>
      <point x="863" y="0"/>
      <point x="864" y="3"/>
      <point x="864" y="6" type="curve" smooth="yes"/>
      <point x="864" y="10"/>
      <point x="862" y="13"/>
      <point x="858" y="13" type="curve" smooth="yes"/>
      <point x="685" y="28" type="line" smooth="yes"/>
      <point x="670" y="29"/>
      <point x="662" y="38"/>
      <point x="662" y="53" type="curve" smooth="yes"/>
      <point x="662" y="991" type="line" smooth="yes"/>
      <point x="662" y="996"/>
      <point x="662" y="999"/>
      <point x="659" y="999" type="curve" smooth="yes"/>
      <point x="656" y="999"/>
      <point x="655" y="996"/>
      <point x="652" y="991" type="curve" smooth="yes"/>
      <point x="610" y="930" type="line" smooth="yes"/>
      <point x="604" y="922"/>
      <point x="604" y="915"/>
    </contour>
    <contour>
      <point x="601" y="1167" type="curve" smooth="yes"/>
      <point x="21" y="397" type="line" smooth="yes"/>
      <point x="18" y="393"/>
      <point x="17" y="390"/>
      <point x="17" y="388" type="curve" smooth="yes"/>
      <point x="17" y="386"/>
      <point x="19" y="383"/>
      <point x="23" y="383" type="curve" smooth="yes"/>
      <point x="869" y="383" type="line" smooth="yes"/>
      <point x="874" y="383"/>
      <point x="878" y="387"/>
      <point x="878" y="391" type="curve" smooth="yes"/>
      <point x="878" y="395"/>
      <point x="875" y="396"/>
      <point x="871" y="396" type="curve" smooth="yes"/>
      <point x="25" y="396" type="line"/>
      <point x="29" y="387" type="line"/>
      <point x="613" y="1161" type="line" smooth="yes"/>
      <point x="664" y="1228"/>
      <point x="676" y="1272"/>
      <point x="676" y="1331" type="curve" smooth="yes"/>
      <point x="676" y="1379"/>
      <point x="657" y="1409"/>
      <point x="629" y="1409" type="curve" smooth="yes"/>
      <point x="600" y="1409"/>
      <point x="583" y="1386"/>
      <point x="583" y="1354" type="curve" smooth="yes"/>
      <point x="583" y="1319"/>
      <point x="623" y="1289"/>
      <point x="623" y="1243" type="curve" smooth="yes"/>
      <point x="623" y="1215"/>
      <point x="617" y="1188"/>
    </contour>
  </outline>
</glyph>
<glyph name="six" format="2">
  <advance width="1056"/>
  <unicode hex="0036"/>
  <outline>
    <contour>
      <point x="600" y="1420" type="curve" smooth="yes"/>
      <point x="327" y="1420"/>
      <point x="116" y="1167"/>
      <point x="116" y="645" type="curve" smooth="yes"/>
      <point x="116" y="206"/>
      <point x="308" y="-20"/>
      <point x="569" y="-20" type="curve" smooth="yes"/>
      <point x="807" y="-20"/>
      <point x="969" y="176"/>
      <point x="969" y="437" type="curve" smooth="yes"/>
      <point x="969.0" y="711.0"/>
      <point x="788" y="856"/>
      <point x="571" y="856" type="curve" smooth="yes"/>
      <point x="370.0" y="856.0"/>
      <point x="186" y="705.0"/>
      <point x="186" y="439" type="curve"/>
      <point x="195" y="439" type="line"/>
      <point x="195" y="689.0"/>
      <point x="378" y="842.0"/>
      <point x="560" y="842" type="curve" smooth="yes"/>
      <point x="769" y="842"/>
      <point x="906.0" y="694.0"/>
      <point x="906" y="418" type="curve" smooth="yes"/>
      <point x="906" y="126"/>
      <point x="768" y="-10"/>
      <point x="569" y="-10" type="curve" smooth="yes"/>
      <point x="347" y="-10"/>
      <point x="183" y="168"/>
      <point x="183" y="651" type="curve" smooth="yes"/>
      <point x="183" y="1189"/>
      <point x="362" y="1410"/>
      <point x="600" y="1410" type="curve" smooth="yes"/>
      <point x="761.8701298701299" y="1410.0"/>
      <point x="846" y="1334"/>
      <point x="846" y="1216" type="curve" smooth="yes"/>
      <point x="846" y="1153" type="line" smooth="yes"/>
      <point x="846" y="1109.0833333333333"/>
      <point x="861.2727272727273" y="1091.0"/>
      <point x="888" y="1091" type="curve" smooth="yes"/>
      <point x="920.8571428571429" y="1091.0"/>
      <point x="934.0" y="1118.0"/>
      <point x="934" y="1167" type="curve" smooth="yes"/>
      <point x="934" y="1302"/>
      <point x="805" y="1420"/>
    </contour>
  </outline>
</glyph>
<glyph name="seven" format="2">
  <advance width="883"/>
  <unicode hex="0037"/>
  <outline>
    <contour>
      <point x="837" y="1355" type="line"/>
      <point x="491" y="636" type="line" smooth="yes"/>
      <point x="400" y="447"/>
      <point x="364.0" y="292.0059880239521"/>
      <point x="364" y="145" type="curve" smooth="yes"/>
      <point x="364.0" y="37"/>
      <point x="391.0" y="-10.0"/>
      <point x="430" y="-10" type="curve" smooth="yes"/>
      <point x="457.0" y="-10.0"/>
      <point x="473" y="11"/>
      <point x="475" y="51" type="curve" smooth="yes"/>
      <point x="475.0" y="106"/>
      <point x="395.0" y="188"/>
      <point x="395" y="277" type="curve" smooth="yes"/>
      <point x="395.0" y="372.29281767955797"/>
      <point x="440.35650305071783" y="497.95469022587497"/>
      <point x="503" y="629" type="curve" smooth="yes"/>
      <point x="862" y="1380" type="line" smooth="yes"/>
      <point x="865" y="1386"/>
      <point x="867.0" y="1391.0"/>
      <point x="867" y="1395" type="curve" smooth="yes"/>
      <point x="867" y="1398"/>
      <point x="865" y="1400"/>
      <point x="860" y="1400" type="curve" smooth="yes"/>
      <point x="133" y="1400" type="line" smooth="yes"/>
      <point x="127.0" y="1400.0"/>
      <point x="125" y="1397"/>
      <point x="124" y="1391" type="curve" smooth="yes"/>
      <point x="92" y="1201" type="line" smooth="yes"/>
      <point x="91" y="1195"/>
      <point x="92.0" y="1192.0"/>
      <point x="95" y="1192" type="curve" smooth="yes"/>
      <point x="99" y="1192"/>
      <point x="103" y="1195"/>
      <point x="105" y="1200" type="curve" smooth="yes"/>
      <point x="146" y="1331" type="line" smooth="yes"/>
      <point x="149" y="1339"/>
      <point x="156.0" y="1346.0"/>
      <point x="164" y="1346" type="curve" smooth="yes"/>
      <point x="841" y="1346" type="line"/>
    </contour>
  </outline>
</glyph>
<glyph name="eight" format="2">
  <advance width="946"/>
  <unicode hex="0038"/>
  <outline>
    <contour>
      <point x="496" y="-22" type="curve" smooth="yes"/>
      <point x="703.0" y="-22.0"/>
      <point x="862.0" y="109.21661721068247"/>
      <point x="862" y="308" type="curve" smooth="yes"/>
      <point x="862.0" y="451.68206521739125"/>
      <point x="726.7128908329049" y="581.6869479385939"/>
      <point x="496" y="683" type="curve" smooth="yes"/>
      <point x="248" y="792"/>
      <point x="140" y="906"/>
      <point x="140" y="1094" type="curve" smooth="yes"/>
      <point x="140" y="1283"/>
      <point x="288" y="1410"/>
      <point x="481" y="1410" type="curve" smooth="yes"/>
      <point x="696" y="1410"/>
      <point x="832" y="1251"/>
      <point x="832" y="1061" type="curve" smooth="yes"/>
      <point x="832" y="841"/>
      <point x="694" y="695"/>
      <point x="530" y="645" type="curve"/>
      <point x="531" y="637" type="line"/>
      <point x="718" y="684"/>
      <point x="878" y="853"/>
      <point x="878" y="1059" type="curve" smooth="yes"/>
      <point x="878" y="1275"/>
      <point x="713" y="1420"/>
      <point x="481" y="1420" type="curve" smooth="yes"/>
      <point x="277" y="1420"/>
      <point x="101" y="1272"/>
      <point x="101" y="1063" type="curve" smooth="yes"/>
      <point x="101" y="862"/>
      <point x="212" y="743"/>
      <point x="472" y="629" type="curve" smooth="yes"/>
      <point x="692" y="533"/>
      <point x="816" y="422"/>
      <point x="816" y="287" type="curve" smooth="yes"/>
      <point x="816" y="97"/>
      <point x="687" y="-13"/>
      <point x="496" y="-13" type="curve" smooth="yes"/>
      <point x="301" y="-13"/>
      <point x="170" y="101"/>
      <point x="170" y="316" type="curve" smooth="yes"/>
      <point x="170" y="457"/>
      <point x="264" y="593"/>
      <point x="444" y="650" type="curve"/>
      <point x="442" y="659" type="line"/>
      <point x="210" y="583"/>
      <point x="118" y="437"/>
      <point x="118" y="311" type="curve" smooth="yes"/>
      <point x="118" y="114"/>
      <point x="277" y="-22"/>
    </contour>
  </outline>
</glyph>
<glyph name="nine" format="2">
  <advance width="950"/>
  <unicode hex="0039"/>
  <outline>
    <contour>
      <point x="432.0" y="-32.0" type="curve" smooth="yes"/>
      <point x="654.0" y="-32.0"/>
      <point x="826.0" y="182.0"/>
      <point x="826.0" y="622.0" type="curve" smooth="yes"/>
      <point x="826.0" y="1028.0"/>
      <point x="668.0" y="1272.0"/>
      <point x="434.0" y="1272.0" type="curve" smooth="yes"/>
      <point x="224.0" y="1272.0"/>
      <point x="78.0" y="1084.0"/>
      <point x="78.0" y="866.0" type="curve" smooth="yes"/>
      <point x="78.0" y="610.0"/>
      <point x="234.0" y="476.0"/>
      <point x="420.0" y="476.0" type="curve" smooth="yes"/>
      <point x="582.0" y="476.0"/>
      <point x="734.0" y="580.0"/>
      <point x="734.0" y="860.0" type="curve"/>
      <point x="728.0" y="882.0" type="line"/>
      <point x="728.0" y="610.0"/>
      <point x="576.0" y="494.0"/>
      <point x="430.0" y="494.0" type="curve" smooth="yes"/>
      <point x="272.0" y="494.0"/>
      <point x="168.0" y="634.0"/>
      <point x="168.0" y="892.0" type="curve" smooth="yes"/>
      <point x="168.0" y="1136.0"/>
      <point x="274.0" y="1260.0"/>
      <point x="414.0" y="1260.0" type="curve" smooth="yes"/>
      <point x="612.0" y="1260.0"/>
      <point x="748.0" y="1078.0"/>
      <point x="748.0" y="626.0" type="curve" smooth="yes"/>
      <point x="748.0" y="170.0"/>
      <point x="604.0" y="-16.0"/>
      <point x="414.0" y="-16.0" type="curve" smooth="yes"/>
      <point x="300.0" y="-16.0"/>
      <point x="240.0" y="46.0"/>
      <point x="240.0" y="140.0" type="curve" smooth="yes"/>
      <point x="240.0" y="182.0" type="line" smooth="yes"/>
      <point x="240.0" y="238.0"/>
      <point x="226.0" y="262.0"/>
      <point x="182.0" y="262.0" type="curve" smooth="yes"/>
      <point x="142.0" y="262.0"/>
      <point x="128.0" y="234.0"/>
      <point x="128.0" y="184.0" type="curve" smooth="yes"/>
      <point x="128.0" y="70.0"/>
      <point x="258.0" y="-32.0"/>
    </contour>
  </outline>
</glyph>
<glyph name="colon" format="2">
  <advance width="450"/>
  <unicode hex="003A"/>
  <outline>
    <contour>
      <point x="163.77599999999998" y="-21.721999999999998" type="curve" smooth="yes"/>
      <point x="192.13119999999998" y="-21.721999999999998"/>
      <point x="215.16979999999998" y="1.3165999999999993"/>
      <point x="215.16979999999998" y="31.443999999999996" type="curve" smooth="yes"/>
      <point x="215.16979999999998" y="59.79919999999999"/>
      <point x="192.13119999999998" y="81.06559999999999"/>
      <point x="163.77599999999998" y="81.06559999999999" type="curve" smooth="yes"/>
      <point x="133.6486" y="81.06559999999999"/>
      <point x="110.60999999999999" y="59.79919999999999"/>
      <point x="110.60999999999999" y="31.443999999999996" type="curve" smooth="yes"/>
      <point x="110.60999999999999" y="1.3165999999999993"/>
      <point x="133.6486" y="-21.721999999999998"/>
    </contour>
    <contour>
      <point x="163.77599999999998" y="484.278" type="curve" smooth="yes"/>
      <point x="192.13119999999998" y="484.278"/>
      <point x="215.16979999999998" y="507.3166"/>
      <point x="215.16979999999998" y="537.444" type="curve" smooth="yes"/>
      <point x="215.16979999999998" y="565.7992"/>
      <point x="192.13119999999998" y="587.0656"/>
      <point x="163.77599999999998" y="587.0656" type="curve" smooth="yes"/>
      <point x="133.6486" y="587.0656"/>
      <point x="110.60999999999999" y="565.7992"/>
      <point x="110.60999999999999" y="537.444" type="curve" smooth="yes"/>
      <point x="110.60999999999999" y="507.3166"/>
      <point x="133.6486" y="484.278"/>
    </contour>
  </outline>
</glyph>
<glyph name="semicolon" format="2">
  <advance width="516"/>
  <unicode hex="003B"/>
  <outline>
    <contour>
      <point x="299.88019999999995" y="-51.89959999999999" type="curve" smooth="yes"/>
      <point x="342.41299999999995" y="-41.2664" type="line" smooth="yes"/>
      <point x="349.50179999999995" y="-32.4054"/>
      <point x="354.81839999999994" y="-34.1776"/>
      <point x="354.81839999999994" y="-37.721999999999994" type="curve" smooth="yes"/>
      <point x="354.81839999999994" y="-255.70259999999996"/>
      <point x="266.2084" y="-388.6175999999999"/>
      <point x="186.4594" y="-395.7064" type="curve" smooth="yes"/>
      <point x="182.915" y="-397.4786"/>
      <point x="179.3706" y="-395.7064"/>
      <point x="179.3706" y="-399.25079999999997" type="curve" smooth="yes"/>
      <point x="179.3706" y="-402.79519999999997"/>
      <point x="182.915" y="-404.56739999999996"/>
      <point x="188.2316" y="-404.56739999999996" type="curve" smooth="yes"/>
      <point x="252.03079999999997" y="-404.56739999999996"/>
      <point x="354.81839999999994" y="-301.77979999999997"/>
      <point x="354.81839999999994" y="-18.227800000000002" type="curve" smooth="yes"/>
      <point x="354.81839999999994" y="65.06559999999999"/>
      <point x="328.23539999999997" y="93.42079999999999"/>
      <point x="280.38599999999997" y="93.42079999999999" type="curve" smooth="yes"/>
      <point x="237.8532" y="93.42079999999999"/>
      <point x="204.18139999999997" y="59.748999999999995"/>
      <point x="204.18139999999997" y="20.760599999999997" type="curve" smooth="yes"/>
      <point x="204.18139999999997" y="-34.1776"/>
      <point x="252.03079999999997" y="-69.6216"/>
    </contour>
    <contour>
      <point x="224.0" y="442.0" type="curve" smooth="yes"/>
      <point x="256.0" y="442.0"/>
      <point x="282.0" y="468.0"/>
      <point x="282.0" y="502.0" type="curve" smooth="yes"/>
      <point x="282.0" y="534.0"/>
      <point x="256.0" y="558.0"/>
      <point x="224.0" y="558.0" type="curve" smooth="yes"/>
      <point x="190.0" y="558.0"/>
      <point x="164.0" y="534.0"/>
      <point x="164.0" y="502.0" type="curve" smooth="yes"/>
      <point x="164.0" y="468.0"/>
      <point x="190.0" y="442.0"/>
    </contour>
  </outline>
</glyph>
<glyph name="less" format="2">
  <advance width="690"/>
  <unicode hex="003C"/>
  <outline>
    <contour>
      <point x="76" y="685" type="line"/>
      <point x="665" y="335" type="line" smooth="yes"/>
      <point x="670" y="332"/>
      <point x="674" y="327"/>
      <point x="674" y="324" type="curve" smooth="yes"/>
      <point x="674" y="320"/>
      <point x="672" y="317"/>
      <point x="667" y="317" type="curve" smooth="yes"/>
      <point x="664" y="317"/>
      <point x="660" y="319"/>
      <point x="655" y="322" type="curve" smooth="yes"/>
      <point x="74" y="666" type="line" smooth="yes"/>
      <point x="64" y="672"/>
      <point x="60" y="676"/>
      <point x="60" y="684" type="curve" smooth="yes"/>
      <point x="60" y="692"/>
      <point x="64" y="696"/>
      <point x="74" y="702" type="curve" smooth="yes"/>
      <point x="656" y="1045" type="line" smooth="yes"/>
      <point x="661" y="1048"/>
      <point x="665" y="1050"/>
      <point x="668" y="1050" type="curve" smooth="yes"/>
      <point x="673" y="1050"/>
      <point x="675" y="1047"/>
      <point x="675" y="1044" type="curve" smooth="yes"/>
      <point x="675" y="1040"/>
      <point x="672" y="1036"/>
      <point x="666" y="1033" type="curve" smooth="yes"/>
      <point x="76" y="683" type="line"/>
    </contour>
  </outline>
</glyph>
<glyph name="question" format="2">
  <advance width="790"/>
  <unicode hex="003F"/>
  <outline>
    <contour>
      <point x="308.0" y="562.0" type="line" smooth="yes"/>
      <point x="306.0" y="576.0"/>
      <point x="306.0" y="580.0"/>
      <point x="306.0" y="588.0" type="curve" smooth="yes"/>
      <point x="306.0" y="600.0"/>
      <point x="316.0" y="606.0"/>
      <point x="322.0" y="616.0" type="curve" smooth="yes"/>
      <point x="446.0" y="714.0" type="line" smooth="yes"/>
      <point x="596.0" y="828.0"/>
      <point x="658.0" y="916.0"/>
      <point x="658.0" y="1100.0" type="curve" smooth="yes"/>
      <point x="658.0" y="1316.0"/>
      <point x="566.0" y="1420.0"/>
      <point x="426.0" y="1420.0" type="curve" smooth="yes"/>
      <point x="290.0" y="1420.0"/>
      <point x="214.0" y="1366.0"/>
      <point x="214.0" y="1208.0" type="curve" smooth="yes"/>
      <point x="214.0" y="1194.0" type="line" smooth="yes"/>
      <point x="214.0" y="1152.0"/>
      <point x="184.0" y="1122.0"/>
      <point x="150.0" y="1122.0" type="curve" smooth="yes"/>
      <point x="114.0" y="1122.0"/>
      <point x="88.0" y="1144.0"/>
      <point x="88.0" y="1182.0" type="curve" smooth="yes"/>
      <point x="88.0" y="1298.0"/>
      <point x="210.0" y="1420.0"/>
      <point x="446.0" y="1420.0" type="curve" smooth="yes"/>
      <point x="632.0" y="1420.0"/>
      <point x="736.0" y="1302.0"/>
      <point x="736.0" y="1116.0" type="curve" smooth="yes"/>
      <point x="736.0" y="972.0"/>
      <point x="658.0" y="836.0"/>
      <point x="460.0" y="724.0" type="curve" smooth="yes"/>
      <point x="426.0" y="708.0" type="line" smooth="yes"/>
      <point x="402.0" y="694.0"/>
      <point x="394.0" y="672.0"/>
      <point x="394.0" y="634.0" type="curve" smooth="yes"/>
      <point x="358.0" y="298.0" type="line" smooth="yes"/>
      <point x="360.0" y="294.0"/>
      <point x="362.0" y="294.0"/>
      <point x="356.0" y="294.0" type="curve" smooth="yes"/>
      <point x="344.0" y="294.0"/>
      <point x="346.0" y="296.0"/>
      <point x="348.0" y="290.0" type="curve" smooth="yes"/>
    </contour>
    <contour>
      <point x="305.77599999999995" y="-11.721999999999998" type="curve" smooth="yes"/>
      <point x="334.1312" y="-11.721999999999998"/>
      <point x="357.1698" y="11.3166"/>
      <point x="357.1698" y="41.443999999999996" type="curve" smooth="yes"/>
      <point x="357.1698" y="69.79919999999998"/>
      <point x="334.1312" y="91.06559999999999"/>
      <point x="305.77599999999995" y="91.06559999999999" type="curve" smooth="yes"/>
      <point x="275.6486" y="91.06559999999999"/>
      <point x="252.60999999999999" y="69.79919999999998"/>
      <point x="252.60999999999999" y="41.443999999999996" type="curve" smooth="yes"/>
      <point x="252.60999999999999" y="11.3166"/>
      <point x="275.6486" y="-11.721999999999998"/>
    </contour>
  </outline>
</glyph>
<glyph name="C" format="2">
  <advance width="1279"/>
  <unicode hex="0043"/>
  <anchor x="725" y="1550.0" name="center"/>
  <outline>
    <contour>
      <point x="1213" y="330" type="curve" smooth="yes"/>
      <point x="1213" y="331"/>
      <point x="1213" y="333"/>
      <point x="1212" y="333" type="curve" smooth="yes"/>
      <point x="1211" y="334"/>
      <point x="1210" y="333"/>
      <point x="1209" y="331" type="curve" smooth="yes"/>
      <point x="1160" y="144"/>
      <point x="1022" y="-2"/>
      <point x="760" y="-2" type="curve" smooth="yes"/>
      <point x="407" y="-2"/>
      <point x="165" y="269"/>
      <point x="165" y="720" type="curve" smooth="yes"/>
      <point x="165" y="1157"/>
      <point x="402" y="1418"/>
      <point x="731" y="1418" type="curve" smooth="yes"/>
      <point x="961" y="1418"/>
      <point x="1116" y="1313"/>
      <point x="1206" y="1089" type="curve" smooth="yes"/>
      <point x="1209" y="1082"/>
      <point x="1216" y="1078"/>
      <point x="1221" y="1079" type="curve" smooth="yes"/>
      <point x="1226" y="1080"/>
      <point x="1227" y="1087"/>
      <point x="1225" y="1092" type="curve" smooth="yes"/>
      <point x="1108" y="1419" type="line" smooth="yes"/>
      <point x="1106" y="1425"/>
      <point x="1105" y="1426"/>
      <point x="1101" y="1426" type="curve" smooth="yes"/>
      <point x="1098" y="1426"/>
      <point x="1071" y="1322"/>
      <point x="1060" y="1322" type="curve" smooth="yes"/>
      <point x="1052" y="1322"/>
      <point x="957" y="1426"/>
      <point x="731" y="1426" type="curve" smooth="yes"/>
      <point x="371" y="1426"/>
      <point x="105" y="1116"/>
      <point x="105" y="676" type="curve" smooth="yes"/>
      <point x="105" y="260"/>
      <point x="347" y="-30"/>
      <point x="725" y="-30" type="curve" smooth="yes"/>
      <point x="1001" y="-30"/>
      <point x="1176" y="119"/>
    </contour>
  </outline>
</glyph>
<glyph name="D" format="2">
  <advance width="1364"/>
  <unicode hex="0044"/>
  <outline>
    <contour>
      <point x="108" y="4" type="curve" smooth="yes"/>
      <point x="108" y="2"/>
      <point x="110" y="0"/>
      <point x="114" y="0" type="curve" smooth="yes"/>
      <point x="622" y="0" type="line" smooth="yes"/>
      <point x="990" y="0"/>
      <point x="1270" y="265"/>
      <point x="1270" y="626" type="curve" smooth="yes"/>
      <point x="1270" y="1079"/>
      <point x="919" y="1400"/>
      <point x="472" y="1400" type="curve" smooth="yes"/>
      <point x="114" y="1400" type="line" smooth="yes"/>
      <point x="110" y="1400"/>
      <point x="108" y="1399"/>
      <point x="108" y="1396" type="curve" smooth="yes"/>
      <point x="108" y="1393"/>
      <point x="110" y="1393"/>
      <point x="114" y="1392" type="curve" smooth="yes"/>
      <point x="234" y="1376" type="line" smooth="yes"/>
      <point x="255" y="1373"/>
      <point x="260" y="1368"/>
      <point x="260" y="1349" type="curve" smooth="yes"/>
      <point x="260" y="47" type="line" smooth="yes"/>
      <point x="260" y="33"/>
      <point x="254" y="26"/>
      <point x="235" y="24" type="curve" smooth="yes"/>
      <point x="113" y="8" type="line" smooth="yes"/>
      <point x="110" y="8"/>
      <point x="108" y="6"/>
    </contour>
    <contour>
      <point x="622" y="10" type="curve" smooth="yes"/>
      <point x="346" y="10" type="line" smooth="yes"/>
      <point x="328" y="10"/>
      <point x="318" y="22"/>
      <point x="318" y="44" type="curve" smooth="yes"/>
      <point x="318" y="1390" type="line"/>
      <point x="474" y="1390" type="line" smooth="yes"/>
      <point x="912.0" y="1390.0"/>
      <point x="1207" y="1095"/>
      <point x="1207" y="644" type="curve" smooth="yes"/>
      <point x="1207" y="260"/>
      <point x="959" y="10"/>
    </contour>
  </outline>
</glyph>
<glyph name="E" format="2">
  <advance width="1067"/>
  <unicode hex="0045"/>
  <anchor x="546.0" y="-124.0" name="right"/>
  <outline>
    <contour>
      <point x="256" y="704" type="line"/>
      <point x="256" y="692" type="line"/>
      <point x="680" y="692" type="line" smooth="yes"/>
      <point x="768" y="692"/>
      <point x="800" y="664"/>
      <point x="852" y="562" type="curve" smooth="yes"/>
      <point x="854" y="560"/>
      <point x="856" y="558"/>
      <point x="858" y="558" type="curve" smooth="yes"/>
      <point x="860" y="558"/>
      <point x="862" y="560"/>
      <point x="860" y="566" type="curve" smooth="yes"/>
      <point x="778" y="834" type="line" smooth="yes"/>
      <point x="776" y="842"/>
      <point x="774" y="846"/>
      <point x="770" y="844" type="curve" smooth="yes"/>
      <point x="768" y="844"/>
      <point x="768" y="842"/>
      <point x="768" y="838" type="curve" smooth="yes"/>
      <point x="774" y="738"/>
      <point x="743" y="704"/>
      <point x="660" y="704" type="curve" smooth="yes"/>
    </contour>
    <contour>
      <point x="78" y="1396" type="curve"/>
      <point x="78" y="1394"/>
      <point x="80" y="1392"/>
      <point x="84" y="1392" type="curve" smooth="yes"/>
      <point x="202" y="1376" type="line" smooth="yes"/>
      <point x="222" y="1374"/>
      <point x="230" y="1368"/>
      <point x="230" y="1352" type="curve" smooth="yes"/>
      <point x="230" y="48" type="line" smooth="yes"/>
      <point x="230" y="32"/>
      <point x="222" y="26"/>
      <point x="202" y="24" type="curve" smooth="yes"/>
      <point x="84" y="8" type="line" smooth="yes"/>
      <point x="80" y="8"/>
      <point x="78" y="6"/>
      <point x="78" y="4" type="curve" smooth="yes"/>
      <point x="78" y="2"/>
      <point x="80" y="0"/>
      <point x="84" y="0" type="curve" smooth="yes"/>
      <point x="796" y="0" type="line" smooth="yes"/>
      <point x="872" y="0"/>
      <point x="888" y="-34"/>
      <point x="906" y="-34" type="curve" smooth="yes"/>
      <point x="908" y="-34"/>
      <point x="910" y="-32"/>
      <point x="914" y="-18" type="curve" smooth="yes"/>
      <point x="1000" y="310" type="line" smooth="yes"/>
      <point x="1002" y="316"/>
      <point x="1002" y="322"/>
      <point x="998" y="322" type="curve" smooth="yes"/>
      <point x="994" y="322"/>
      <point x="992" y="318"/>
      <point x="990" y="314" type="curve" smooth="yes"/>
      <point x="899" y="48"/>
      <point x="871" y="12"/>
      <point x="760" y="12" type="curve" smooth="yes"/>
      <point x="336" y="12" type="line" smooth="yes"/>
      <point x="304" y="12"/>
      <point x="288" y="24"/>
      <point x="288" y="48" type="curve" smooth="yes"/>
      <point x="288" y="1388" type="line"/>
      <point x="762" y="1388" type="line" smooth="yes"/>
      <point x="848" y="1388"/>
      <point x="898" y="1336"/>
      <point x="966" y="1152" type="curve" smooth="yes"/>
      <point x="968" y="1148"/>
      <point x="970" y="1148"/>
      <point x="972" y="1148" type="curve" smooth="yes"/>
      <point x="974" y="1148"/>
      <point x="976" y="1150"/>
      <point x="974" y="1154" type="curve" smooth="yes"/>
      <point x="900" y="1420" type="line" smooth="yes"/>
      <point x="896" y="1434"/>
      <point x="894" y="1434"/>
      <point x="892" y="1434" type="curve" smooth="yes"/>
      <point x="886" y="1434"/>
      <point x="858" y="1400"/>
      <point x="822" y="1400" type="curve" smooth="yes"/>
      <point x="84" y="1400" type="line" smooth="yes"/>
      <point x="80" y="1400"/>
      <point x="78" y="1398"/>
    </contour>
  </outline>
</glyph>
<glyph name="F" format="2">
  <advance width="496"/>
  <unicode hex="0046"/>
  <outline>
    <contour>
      <point x="420" y="700" type="curve" smooth="yes"/>
      <point x="37" y="700" type="line" smooth="yes"/>
      <point x="33" y="700"/>
      <point x="32" y="701"/>
      <point x="32" y="703" type="curve" smooth="yes"/>
      <point x="32" y="706"/>
      <point x="35" y="708"/>
      <point x="39" y="707" type="curve" smooth="yes"/>
      <point x="107" y="689" type="line" smooth="yes"/>
      <point x="117" y="686"/>
      <point x="122" y="680"/>
      <point x="122" y="673" type="curve" smooth="yes"/>
      <point x="122" y="34" type="line" smooth="yes"/>
      <point x="122" y="17"/>
      <point x="114" y="8"/>
      <point x="97" y="5" type="curve" smooth="yes"/>
      <point x="35" y="-7" type="line" smooth="yes"/>
      <point x="33" y="-7"/>
      <point x="32" y="-5"/>
      <point x="32" y="-4" type="curve" smooth="yes"/>
      <point x="32" y="-1"/>
      <point x="34" y="0"/>
      <point x="36" y="0" type="curve" smooth="yes"/>
      <point x="261" y="0" type="line" smooth="yes"/>
      <point x="264" y="0"/>
      <point x="267" y="-1"/>
      <point x="267" y="-4" type="curve" smooth="yes"/>
      <point x="267" y="-7"/>
      <point x="267" y="-10"/>
      <point x="265" y="-11" type="curve" smooth="yes"/>
      <point x="186" y="3" type="line" smooth="yes"/>
      <point x="168" y="6"/>
      <point x="160" y="15"/>
      <point x="160" y="32" type="curve" smooth="yes"/>
      <point x="160" y="692" type="line"/>
      <point x="326" y="692" type="line" smooth="yes"/>
      <point x="373" y="692"/>
      <point x="411" y="659"/>
      <point x="478" y="570" type="curve" smooth="yes"/>
      <point x="481" y="566"/>
      <point x="485" y="567"/>
      <point x="488" y="571" type="curve" smooth="yes"/>
      <point x="490" y="573"/>
      <point x="490.0" y="586.0"/>
      <point x="488" y="590" type="curve" smooth="yes"/>
      <point x="437" y="702" type="line" smooth="yes"/>
      <point x="436" y="704"/>
      <point x="435" y="704"/>
      <point x="433" y="704" type="curve" smooth="yes"/>
      <point x="429" y="704"/>
      <point x="421.57495957457604" y="700.0"/>
    </contour>
    <contour>
      <point x="133" y="332" type="line"/>
      <point x="136" y="324" type="line"/>
      <point x="294" y="324" type="line" smooth="yes"/>
      <point x="344" y="324"/>
      <point x="375" y="311"/>
      <point x="393" y="271" type="curve" smooth="yes"/>
      <point x="394" y="266"/>
      <point x="395" y="259"/>
      <point x="399" y="259" type="curve" smooth="yes"/>
      <point x="403.0" y="259.0"/>
      <point x="403" y="261"/>
      <point x="402" y="265" type="curve" smooth="yes"/>
      <point x="360" y="398" type="line" smooth="yes"/>
      <point x="359" y="401"/>
      <point x="357.0" y="399.0"/>
      <point x="356" y="397" type="curve" smooth="yes"/>
      <point x="355" y="396"/>
      <point x="352" y="387"/>
      <point x="354" y="386" type="curve" smooth="yes"/>
      <point x="346" y="342"/>
      <point x="329" y="332"/>
      <point x="292" y="332" type="curve" smooth="yes"/>
    </contour>
  </outline>
</glyph>
<glyph name="G" format="2">
  <advance width="1344"/>
  <unicode hex="0047"/>
  <outline>
    <contour>
      <point x="1186" y="0" type="curve" smooth="yes"/>
      <point x="1186" y="500" type="line" smooth="yes"/>
      <point x="1186" y="516"/>
      <point x="1194" y="522"/>
      <point x="1214" y="524" type="curve" smooth="yes"/>
      <point x="1332" y="540" type="line" smooth="yes"/>
      <point x="1336" y="540"/>
      <point x="1338" y="542"/>
      <point x="1338" y="544" type="curve"/>
      <point x="1338" y="546"/>
      <point x="1336" y="548"/>
      <point x="1332" y="548" type="curve" smooth="yes"/>
      <point x="922" y="548" type="line" smooth="yes"/>
      <point x="918" y="548"/>
      <point x="916" y="546"/>
      <point x="916" y="544" type="curve" smooth="yes"/>
      <point x="916" y="542"/>
      <point x="918" y="540"/>
      <point x="922" y="540" type="curve" smooth="yes"/>
      <point x="1100" y="524" type="line" smooth="yes"/>
      <point x="1120" y="522"/>
      <point x="1128" y="516"/>
      <point x="1128" y="500" type="curve" smooth="yes"/>
      <point x="1128" y="148" type="line" smooth="yes"/>
      <point x="1128" y="32"/>
      <point x="908" y="-8"/>
      <point x="762" y="-8" type="curve" smooth="yes"/>
      <point x="408" y="-8"/>
      <point x="144" y="273"/>
      <point x="144" y="734" type="curve" smooth="yes"/>
      <point x="144" y="1167"/>
      <point x="412" y="1408"/>
      <point x="746" y="1408" type="curve" smooth="yes"/>
      <point x="978" y="1408"/>
      <point x="1140" y="1292"/>
      <point x="1208" y="1074" type="curve" smooth="yes"/>
      <point x="1210" y="1070"/>
      <point x="1214" y="1068"/>
      <point x="1216" y="1070" type="curve" smooth="yes"/>
      <point x="1218" y="1072"/>
      <point x="1216" y="1076"/>
      <point x="1216" y="1078" type="curve" smooth="yes"/>
      <point x="1146" y="1412" type="line" smooth="yes"/>
      <point x="1146" y="1416"/>
      <point x="1142" y="1418"/>
      <point x="1140" y="1418" type="curve" smooth="yes"/>
      <point x="1133" y="1418"/>
      <point x="1096" y="1310"/>
      <point x="1082" y="1310" type="curve" smooth="yes"/>
      <point x="1067" y="1310"/>
      <point x="972" y="1420"/>
      <point x="754" y="1420" type="curve" smooth="yes"/>
      <point x="378" y="1420"/>
      <point x="80" y="1138"/>
      <point x="80" y="700" type="curve" smooth="yes"/>
      <point x="80" y="296"/>
      <point x="360" y="-20"/>
      <point x="760" y="-20" type="curve" smooth="yes"/>
      <point x="1014" y="-20"/>
      <point x="1095" y="68"/>
      <point x="1114" y="68" type="curve" smooth="yes"/>
      <point x="1136" y="68"/>
      <point x="1173" y="-22"/>
      <point x="1182" y="-22" type="curve" smooth="yes"/>
      <point x="1184" y="-22"/>
      <point x="1186" y="-20"/>
    </contour>
  </outline>
</glyph>
<glyph name="H" format="2">
  <advance width="690"/>
  <unicode hex="0048"/>
  <outline>
    <contour>
      <point x="146" y="334" type="line"/>
      <point x="146" y="330" type="line"/>
      <point x="534" y="330" type="line"/>
      <point x="534" y="334" type="line"/>
    </contour>
    <component base="I" xOffset="-7"/>
    <component base="I" xOffset="394"/>
  </outline>
</glyph>
<glyph name="J" format="2">
  <advance width="651"/>
  <unicode hex="004A"/>
  <anchor x="402" y="1464.0" name="center"/>
  <outline>
    <contour>
      <point x="456" y="160" type="curve" smooth="yes"/>
      <point x="456" y="270"/>
      <point x="397" y="349"/>
      <point x="397" y="464" type="curve" smooth="yes"/>
      <point x="397" y="1351" type="line" smooth="yes"/>
      <point x="397" y="1365"/>
      <point x="404" y="1373"/>
      <point x="418" y="1375" type="curve" smooth="yes"/>
      <point x="543" y="1392" type="line" smooth="yes"/>
      <point x="548" y="1393"/>
      <point x="549" y="1394"/>
      <point x="549" y="1396" type="curve" smooth="yes"/>
      <point x="549" y="1399"/>
      <point x="546" y="1400"/>
      <point x="543" y="1400" type="curve" smooth="yes"/>
      <point x="189" y="1400" type="line" smooth="yes"/>
      <point x="185" y="1400"/>
      <point x="183" y="1398"/>
      <point x="183" y="1396" type="curve" smooth="yes"/>
      <point x="183" y="1394"/>
      <point x="184" y="1393"/>
      <point x="189" y="1392" type="curve" smooth="yes"/>
      <point x="318" y="1375" type="line" smooth="yes"/>
      <point x="333" y="1373"/>
      <point x="339" y="1365"/>
      <point x="339" y="1351" type="curve" smooth="yes"/>
      <point x="339" y="462" type="line" smooth="yes"/>
      <point x="339" y="324"/>
      <point x="432" y="235"/>
      <point x="432" y="136" type="curve" smooth="yes"/>
      <point x="432" y="43"/>
      <point x="375" y="-9"/>
      <point x="287" y="-9" type="curve" smooth="yes"/>
      <point x="213" y="-9"/>
      <point x="188" y="33"/>
      <point x="188" y="98" type="curve" smooth="yes"/>
      <point x="188" y="137" type="line" smooth="yes"/>
      <point x="188" y="160"/>
      <point x="176" y="185"/>
      <point x="154" y="185" type="curve" smooth="yes"/>
      <point x="123" y="185"/>
      <point x="108" y="163"/>
      <point x="108" y="133" type="curve" smooth="yes"/>
      <point x="108" y="47"/>
      <point x="168" y="-16"/>
      <point x="278" y="-16" type="curve" smooth="yes"/>
      <point x="387" y="-16"/>
      <point x="456" y="53"/>
    </contour>
  </outline>
</glyph>
<glyph name="K" format="2">
  <advance width="1200"/>
  <unicode hex="004B"/>
  <outline>
    <contour>
      <point x="249" y="384" type="line"/>
      <point x="252" y="380" type="line"/>
      <point x="989" y="1310" type="line" smooth="yes"/>
      <point x="1027" y="1358"/>
      <point x="1086" y="1387"/>
      <point x="1165" y="1391" type="curve" smooth="yes"/>
      <point x="1168" y="1391"/>
      <point x="1170" y="1394"/>
      <point x="1170" y="1396" type="curve" smooth="yes"/>
      <point x="1170" y="1398"/>
      <point x="1168" y="1400"/>
      <point x="1166" y="1400" type="curve" smooth="yes"/>
      <point x="887" y="1400" type="line" smooth="yes"/>
      <point x="885" y="1400"/>
      <point x="882" y="1399"/>
      <point x="882" y="1397" type="curve" smooth="yes"/>
      <point x="882" y="1394"/>
      <point x="884" y="1393"/>
      <point x="888" y="1392" type="curve" smooth="yes"/>
      <point x="967" y="1379" type="line" smooth="yes"/>
      <point x="994" y="1375"/>
      <point x="1008" y="1346"/>
      <point x="984" y="1316" type="curve" smooth="yes"/>
    </contour>
    <contour>
      <point x="572" y="786" type="line"/>
      <point x="990" y="77" type="line" smooth="yes"/>
      <point x="1010" y="43"/>
      <point x="1000" y="21"/>
      <point x="975" y="19" type="curve" smooth="yes"/>
      <point x="880" y="10" type="line" smooth="yes"/>
      <point x="876" y="10"/>
      <point x="874" y="8"/>
      <point x="874" y="5" type="curve" smooth="yes"/>
      <point x="874" y="1"/>
      <point x="876" y="0"/>
      <point x="878" y="0" type="curve" smooth="yes"/>
      <point x="1173" y="0" type="line" smooth="yes"/>
      <point x="1178" y="0"/>
      <point x="1181" y="2"/>
      <point x="1181" y="6" type="curve" smooth="yes"/>
      <point x="1181" y="9"/>
      <point x="1178" y="12"/>
      <point x="1173" y="12" type="curve" smooth="yes"/>
      <point x="1101" y="19"/>
      <point x="1074" y="40"/>
      <point x="1049" y="82" type="curve" smooth="yes"/>
      <point x="607" y="830" type="line"/>
    </contour>
    <contour>
      <point x="288" y="48" type="curve" smooth="yes"/>
      <point x="288" y="1352" type="line" smooth="yes"/>
      <point x="288" y="1368"/>
      <point x="296" y="1374"/>
      <point x="316" y="1376" type="curve" smooth="yes"/>
      <point x="434" y="1392" type="line" smooth="yes"/>
      <point x="438" y="1392"/>
      <point x="440" y="1394"/>
      <point x="440" y="1396" type="curve" smooth="yes"/>
      <point x="440" y="1398"/>
      <point x="438" y="1400"/>
      <point x="434" y="1400" type="curve" smooth="yes"/>
      <point x="84" y="1400" type="line" smooth="yes"/>
      <point x="80" y="1400"/>
      <point x="78" y="1398"/>
      <point x="78" y="1396" type="curve" smooth="yes"/>
      <point x="78" y="1394"/>
      <point x="80" y="1392"/>
      <point x="84" y="1392" type="curve" smooth="yes"/>
      <point x="202" y="1376" type="line" smooth="yes"/>
      <point x="222" y="1374"/>
      <point x="230" y="1368"/>
      <point x="230" y="1352" type="curve" smooth="yes"/>
      <point x="230" y="48" type="line" smooth="yes"/>
      <point x="230" y="32"/>
      <point x="222" y="26"/>
      <point x="202" y="24" type="curve" smooth="yes"/>
      <point x="84" y="8" type="line" smooth="yes"/>
      <point x="80" y="8"/>
      <point x="78" y="6"/>
      <point x="78" y="4" type="curve" smooth="yes"/>
      <point x="78" y="2"/>
      <point x="80" y="0"/>
      <point x="84" y="0" type="curve" smooth="yes"/>
      <point x="434" y="0" type="line" smooth="yes"/>
      <point x="438" y="0"/>
      <point x="440" y="2"/>
      <point x="440" y="4" type="curve" smooth="yes"/>
      <point x="440" y="6"/>
      <point x="438" y="8"/>
      <point x="434" y="8" type="curve" smooth="yes"/>
      <point x="316" y="24" type="line" smooth="yes"/>
      <point x="296" y="26"/>
      <point x="288" y="32"/>
    </contour>
  </outline>
</glyph>
<glyph name="L" format="2">
  <advance width="958"/>
  <unicode hex="004C"/>
  <anchor x="300.0" y="1478.0" name="center"/>
  <outline>
    <contour>
      <point x="464" y="1392" type="line" smooth="yes"/>
      <point x="468" y="1392"/>
      <point x="470" y="1394"/>
      <point x="470" y="1396" type="curve" smooth="yes"/>
      <point x="470" y="1398"/>
      <point x="468" y="1400"/>
      <point x="464" y="1400" type="curve" smooth="yes"/>
      <point x="114" y="1400" type="line" smooth="yes"/>
      <point x="110" y="1400"/>
      <point x="108" y="1398"/>
      <point x="108" y="1396" type="curve" smooth="yes"/>
      <point x="108" y="1394"/>
      <point x="110" y="1392"/>
      <point x="114" y="1392" type="curve" smooth="yes"/>
      <point x="232" y="1376" type="line" smooth="yes"/>
      <point x="252" y="1374"/>
      <point x="260" y="1368"/>
      <point x="260" y="1352" type="curve" smooth="yes"/>
      <point x="260" y="48" type="line" smooth="yes"/>
      <point x="260" y="32"/>
      <point x="252" y="26"/>
      <point x="232" y="24" type="curve" smooth="yes"/>
      <point x="114" y="8" type="line" smooth="yes"/>
      <point x="110" y="8"/>
      <point x="108" y="6"/>
      <point x="108" y="4" type="curve" smooth="yes"/>
      <point x="108" y="2"/>
      <point x="110" y="0"/>
      <point x="114" y="0" type="curve" smooth="yes"/>
      <point x="716" y="0" type="line" smooth="yes"/>
      <point x="792" y="0"/>
      <point x="808" y="-34"/>
      <point x="826" y="-34" type="curve" smooth="yes"/>
      <point x="828" y="-34"/>
      <point x="830" y="-32"/>
      <point x="834" y="-18" type="curve" smooth="yes"/>
      <point x="920" y="310" type="line" smooth="yes"/>
      <point x="922" y="316"/>
      <point x="922" y="322"/>
      <point x="918" y="322" type="curve" smooth="yes"/>
      <point x="914" y="322"/>
      <point x="912" y="318"/>
      <point x="910" y="314" type="curve" smooth="yes"/>
      <point x="856" y="168" type="line" smooth="yes"/>
      <point x="809" y="42"/>
      <point x="770" y="12"/>
      <point x="676" y="12" type="curve" smooth="yes"/>
      <point x="366" y="12" type="line" smooth="yes"/>
      <point x="334" y="12"/>
      <point x="318" y="24"/>
      <point x="318" y="48" type="curve" smooth="yes"/>
      <point x="318" y="1352" type="line" smooth="yes"/>
      <point x="318" y="1368"/>
      <point x="326" y="1374"/>
      <point x="346" y="1376" type="curve" smooth="yes"/>
    </contour>
  </outline>
</glyph>
<glyph name="M" format="2">
  <advance width="753"/>
  <unicode hex="004D"/>
  <guideline x="404" y="266" angle="90" identifier="ASUIW0ay5B"/>
  <guideline x="588" y="642" angle="0" identifier="bXeuTCwmGj"/>
  <outline>
    <contour>
      <point x="390" y="146" type="line"/>
      <point x="154" y="691" type="line" smooth="yes"/>
      <point x="151" y="699"/>
      <point x="150" y="700"/>
      <point x="144" y="700" type="curve" smooth="yes"/>
      <point x="68" y="700" type="line" smooth="yes"/>
      <point x="62" y="700"/>
      <point x="58" y="699"/>
      <point x="58" y="696" type="curve" smooth="yes"/>
      <point x="58" y="693"/>
      <point x="63" y="693"/>
      <point x="72" y="692" type="curve" smooth="yes"/>
      <point x="123" y="686" type="line" smooth="yes"/>
      <point x="135" y="685"/>
      <point x="139" y="677"/>
      <point x="138" y="668" type="curve" smooth="yes"/>
      <point x="101" y="43" type="line" smooth="yes"/>
      <point x="100" y="28"/>
      <point x="96" y="22"/>
      <point x="79" y="18" type="curve" smooth="yes"/>
      <point x="19" y="4" type="line" smooth="yes"/>
      <point x="16" y="3"/>
      <point x="15" y="3"/>
      <point x="15" y="2" type="curve" smooth="yes"/>
      <point x="15" y="1"/>
      <point x="16" y="0"/>
      <point x="18" y="0" type="curve" smooth="yes"/>
      <point x="210" y="0" type="line" smooth="yes"/>
      <point x="212" y="0"/>
      <point x="213" y="1"/>
      <point x="213" y="2" type="curve" smooth="yes"/>
      <point x="213" y="3"/>
      <point x="211" y="4"/>
      <point x="209" y="4" type="curve" smooth="yes"/>
      <point x="121" y="19" type="line" smooth="yes"/>
      <point x="109" y="21"/>
      <point x="106" y="28"/>
      <point x="107" y="43" type="curve" smooth="yes"/>
      <point x="143" y="656" type="line"/>
      <point x="139" y="649" type="line"/>
      <point x="370" y="118" type="line" smooth="yes"/>
      <point x="372" y="114"/>
      <point x="373" y="111"/>
      <point x="375" y="111" type="curve" smooth="yes"/>
      <point x="377" y="111"/>
      <point x="378" y="113"/>
      <point x="380" y="118" type="curve" smooth="yes"/>
      <point x="598" y="653" type="line"/>
      <point x="593" y="656" type="line"/>
      <point x="638" y="24" type="line" smooth="yes"/>
      <point x="638" y="17"/>
      <point x="634" y="13"/>
      <point x="624" y="12" type="curve" smooth="yes"/>
      <point x="565" y="4" type="line" smooth="yes"/>
      <point x="563" y="4"/>
      <point x="562" y="3"/>
      <point x="562" y="2" type="curve" smooth="yes"/>
      <point x="562" y="1"/>
      <point x="563" y="0"/>
      <point x="565" y="0" type="curve" smooth="yes"/>
      <point x="737" y="0" type="line" smooth="yes"/>
      <point x="739" y="0"/>
      <point x="740" y="1"/>
      <point x="740" y="2" type="curve" smooth="yes"/>
      <point x="740" y="3"/>
      <point x="739" y="4"/>
      <point x="737" y="4" type="curve" smooth="yes"/>
      <point x="678" y="12" type="line" smooth="yes"/>
      <point x="669" y="13"/>
      <point x="668" y="17"/>
      <point x="667" y="25" type="curve" smooth="yes"/>
      <point x="621" y="674" type="line" smooth="yes"/>
      <point x="621" y="681"/>
      <point x="624" y="686"/>
      <point x="630" y="687" type="curve" smooth="yes"/>
      <point x="695" y="696" type="line" smooth="yes"/>
      <point x="697" y="696"/>
      <point x="698" y="697"/>
      <point x="698" y="698" type="curve" smooth="yes"/>
      <point x="698" y="699"/>
      <point x="697" y="700"/>
      <point x="695" y="700" type="curve"/>
      <point x="617" y="700" type="line" smooth="yes"/>
      <point x="612" y="700"/>
      <point x="611" y="699"/>
      <point x="608" y="692" type="curve" smooth="yes"/>
      <point x="382" y="137" type="line"/>
    </contour>
  </outline>
</glyph>
<glyph name="N" format="2">
  <advance width="1358"/>
  <unicode hex="004E"/>
  <guideline x="2312.0" y="2716.0" angle="0" identifier="ajeSs5uLRU"/>
  <anchor x="694.0" y="1490.0" name="center"/>
  <outline>
    <contour>
      <point x="484.0" y="4.0" type="curve" smooth="yes"/>
      <point x="484.0" y="6.0"/>
      <point x="482.0" y="6.0"/>
      <point x="476.0" y="8.0" type="curve" smooth="yes"/>
      <point x="276.0" y="42.0" type="line" smooth="yes"/>
      <point x="258.0" y="46.0"/>
      <point x="252.0" y="50.0"/>
      <point x="252.0" y="68.0" type="curve" smooth="yes"/>
      <point x="252.0" y="1242.0" type="line"/>
      <point x="240.0" y="1242.0" type="line"/>
      <point x="1114.0" y="30.0" type="line" smooth="yes"/>
      <point x="1120.0" y="22.0"/>
      <point x="1122.0" y="18.0"/>
      <point x="1122.0" y="12.0" type="curve" smooth="yes"/>
      <point x="1122.0" y="4.0"/>
      <point x="1126.0" y="0.0"/>
      <point x="1138.0" y="0.0" type="curve" smooth="yes"/>
      <point x="1198.0" y="0.0" type="line" smooth="yes"/>
      <point x="1204.0" y="0.0"/>
      <point x="1206.0" y="0.0"/>
      <point x="1206.0" y="2.0" type="curve" smooth="yes"/>
      <point x="1206.0" y="4.0"/>
      <point x="1200.0" y="12.0"/>
      <point x="1194.0" y="20.0" type="curve" smooth="yes"/>
      <point x="1130.0" y="108.0" type="line" smooth="yes"/>
      <point x="1122.7967942013931" y="117.90440797308437"/>
      <point x="1118.0" y="128.0909090909091"/>
      <point x="1118.0" y="142.0" type="curve" smooth="yes"/>
      <point x="1118.0" y="1332.0" type="line" smooth="yes"/>
      <point x="1118.0" y="1350.0"/>
      <point x="1124.0" y="1354.0"/>
      <point x="1142.0" y="1358.0" type="curve" smooth="yes"/>
      <point x="1262.0" y="1392.0" type="line" smooth="yes"/>
      <point x="1268.0" y="1394.0"/>
      <point x="1270.0" y="1394.0"/>
      <point x="1270.0" y="1396.0" type="curve" smooth="yes"/>
      <point x="1270.0" y="1398.0"/>
      <point x="1268.0" y="1400.0"/>
      <point x="1264.0" y="1400.0" type="curve" smooth="yes"/>
      <point x="880.0" y="1400.0" type="line" smooth="yes"/>
      <point x="876.0" y="1400.0"/>
      <point x="874.0" y="1398.0"/>
      <point x="874.0" y="1396.0" type="curve" smooth="yes"/>
      <point x="874.0" y="1394.0"/>
      <point x="876.0" y="1394.0"/>
      <point x="882.0" y="1392.0" type="curve" smooth="yes"/>
      <point x="1078.0" y="1358.0" type="line" smooth="yes"/>
      <point x="1098.0" y="1354.0"/>
      <point x="1106.0" y="1350.0"/>
      <point x="1106.0" y="1332.0" type="curve" smooth="yes"/>
      <point x="1106.0" y="132.0" type="line"/>
      <point x="1112.0" y="134.0" type="line"/>
      <point x="224.0" y="1366.0" type="line" smooth="yes"/>
      <point x="208.0" y="1390.0"/>
      <point x="206.0" y="1400.0"/>
      <point x="196.0" y="1400.0" type="curve" smooth="yes"/>
      <point x="136.0" y="1400.0" type="line" smooth="yes"/>
      <point x="132.0" y="1400.0"/>
      <point x="130.0" y="1400.0"/>
      <point x="130.0" y="1398.0" type="curve" smooth="yes"/>
      <point x="130.0" y="1396.0"/>
      <point x="130.69071191019808" y="1394.5878766699527"/>
      <point x="134.0" y="1390.0" type="curve" smooth="yes"/>
      <point x="222.0" y="1268.0" type="line" smooth="yes"/>
      <point x="240.0" y="1244.0"/>
      <point x="240.0" y="1237.6666666666667"/>
      <point x="240.0" y="1216.0" type="curve" smooth="yes"/>
      <point x="240.0" y="68.0" type="line" smooth="yes"/>
      <point x="240.0" y="50.0"/>
      <point x="234.0" y="48.0"/>
      <point x="216.0" y="42.0" type="curve" smooth="yes"/>
      <point x="96.0" y="8.0" type="line" smooth="yes"/>
      <point x="90.0" y="6.0"/>
      <point x="88.0" y="6.0"/>
      <point x="88.0" y="4.0" type="curve" smooth="yes"/>
      <point x="88.0" y="2.0"/>
      <point x="90.0" y="0.0"/>
      <point x="94.0" y="0.0" type="curve" smooth="yes"/>
      <point x="478.0" y="0.0" type="line" smooth="yes"/>
      <point x="482.0" y="0.0"/>
      <point x="484.0" y="2.0"/>
    </contour>
  </outline>
</glyph>
<glyph name="O" format="2">
  <advance width="746"/>
  <unicode hex="004F"/>
  <outline>
    <contour>
      <point x="382" y="710" type="curve" smooth="yes"/>
      <point x="194" y="710"/>
      <point x="45.0" y="569.3506849315069"/>
      <point x="45" y="351" type="curve" smooth="yes"/>
      <point x="45.0" y="147.61971830985914"/>
      <point x="190" y="-10"/>
      <point x="365" y="-10" type="curve" smooth="yes"/>
      <point x="552" y="-10.0"/>
      <point x="701.0" y="131"/>
      <point x="701" y="349" type="curve" smooth="yes"/>
      <point x="701" y="552"/>
      <point x="556.0" y="710.0"/>
    </contour>
    <contour>
      <point x="668" y="332" type="curve" smooth="yes"/>
      <point x="668" y="119"/>
      <point x="541" y="0.0"/>
      <point x="385" y="0" type="curve" smooth="yes"/>
      <point x="209" y="0"/>
      <point x="77.0" y="139.37874659400546"/>
      <point x="77" y="368" type="curve" smooth="yes"/>
      <point x="77.0" y="581.3573573573574"/>
      <point x="205" y="700"/>
      <point x="362" y="700" type="curve" smooth="yes"/>
      <point x="537.0" y="700.0"/>
      <point x="668" y="560"/>
    </contour>
  </outline>
</glyph>
<glyph name="P" format="2">
  <advance width="1136"/>
  <unicode hex="0050"/>
  <outline>
    <contour>
      <point x="1086" y="906" type="curve" smooth="yes"/>
      <point x="1086" y="1205"/>
      <point x="827" y="1400"/>
      <point x="484" y="1400" type="curve" smooth="yes"/>
      <point x="115" y="1400" type="line" smooth="yes"/>
      <point x="111" y="1400"/>
      <point x="108" y="1399"/>
      <point x="108" y="1396" type="curve" smooth="yes"/>
      <point x="108" y="1394"/>
      <point x="110" y="1392"/>
      <point x="113" y="1392" type="curve" smooth="yes"/>
      <point x="241" y="1375" type="line" smooth="yes"/>
      <point x="254" y="1373"/>
      <point x="260" y="1365"/>
      <point x="260" y="1353" type="curve" smooth="yes"/>
      <point x="260" y="47" type="line" smooth="yes"/>
      <point x="260" y="35"/>
      <point x="254" y="27"/>
      <point x="238" y="25" type="curve" smooth="yes"/>
      <point x="114" y="8" type="line" smooth="yes"/>
      <point x="110" y="7"/>
      <point x="108" y="6"/>
      <point x="108" y="4" type="curve" smooth="yes"/>
      <point x="108" y="1"/>
      <point x="111" y="0"/>
      <point x="115" y="0" type="curve" smooth="yes"/>
      <point x="464" y="0" type="line" smooth="yes"/>
      <point x="468" y="0"/>
      <point x="470" y="1"/>
      <point x="470" y="4" type="curve" smooth="yes"/>
      <point x="470" y="6"/>
      <point x="468" y="7"/>
      <point x="464" y="8" type="curve" smooth="yes"/>
      <point x="339" y="25" type="line" smooth="yes"/>
      <point x="324" y="27"/>
      <point x="318" y="35"/>
      <point x="318" y="46" type="curve" smooth="yes"/>
      <point x="318" y="1390" type="line"/>
      <point x="484" y="1390" type="line" smooth="yes"/>
      <point x="802" y="1390"/>
      <point x="1026" y="1203"/>
      <point x="1026" y="910" type="curve" smooth="yes"/>
      <point x="1026" y="663"/>
      <point x="872" y="466"/>
      <point x="617" y="466" type="curve" smooth="yes"/>
      <point x="497" y="466"/>
      <point x="397" y="487"/>
      <point x="302" y="554" type="curve"/>
      <point x="298" y="550" type="line"/>
      <point x="400" y="478"/>
      <point x="495" y="452"/>
      <point x="626" y="452" type="curve" smooth="yes"/>
      <point x="899" y="452"/>
      <point x="1086" y="634"/>
    </contour>
  </outline>
</glyph>
<glyph name="Q" format="2">
  <advance width="1472"/>
  <unicode hex="0051"/>
  <outline>
    <contour>
      <point x="754" y="1420" type="curve" smooth="yes"/>
      <point x="378" y="1420"/>
      <point x="80" y="1139"/>
      <point x="80" y="702" type="curve" smooth="yes"/>
      <point x="80" y="295"/>
      <point x="370" y="-20"/>
      <point x="720" y="-20" type="curve" smooth="yes"/>
      <point x="1094" y="-20"/>
      <point x="1392" y="262"/>
      <point x="1392" y="698" type="curve" smooth="yes"/>
      <point x="1392" y="1104"/>
      <point x="1102" y="1420"/>
    </contour>
    <contour>
      <point x="1326" y="664" type="curve" smooth="yes"/>
      <point x="1326" y="238"/>
      <point x="1072" y="0"/>
      <point x="760" y="0" type="curve" smooth="yes"/>
      <point x="408" y="0"/>
      <point x="144" y="279"/>
      <point x="144" y="736" type="curve" smooth="yes"/>
      <point x="144" y="1163"/>
      <point x="400" y="1400"/>
      <point x="714" y="1400" type="curve" smooth="yes"/>
      <point x="1064" y="1400"/>
      <point x="1326" y="1120"/>
    </contour>
    <contour>
      <point x="832" y="359" type="curve" smooth="yes"/>
      <point x="995" y="-97"/>
      <point x="1149" y="-238"/>
      <point x="1330" y="-238" type="curve" smooth="yes"/>
      <point x="1356" y="-238"/>
      <point x="1368" y="-230"/>
      <point x="1382" y="-211" type="curve" smooth="yes"/>
      <point x="1457" y="-114" type="line" smooth="yes"/>
      <point x="1460" y="-110"/>
      <point x="1460" y="-106"/>
      <point x="1458" y="-105" type="curve" smooth="yes"/>
      <point x="1456" y="-104"/>
      <point x="1453" y="-105"/>
      <point x="1448" y="-110" type="curve" smooth="yes"/>
      <point x="1410" y="-156"/>
      <point x="1376" y="-173"/>
      <point x="1292" y="-173" type="curve" smooth="yes"/>
      <point x="1151" y="-173"/>
      <point x="985" y="-58"/>
      <point x="839" y="363" type="curve" smooth="yes"/>
      <point x="838" y="365"/>
      <point x="834" y="367"/>
      <point x="832" y="366" type="curve" smooth="yes"/>
      <point x="830" y="365"/>
      <point x="831" y="361"/>
    </contour>
  </outline>
</glyph>
<glyph name="S" format="2">
  <advance width="526"/>
  <unicode hex="0053"/>
  <outline>
    <contour>
      <point x="300" y="-11" type="curve" smooth="yes"/>
      <point x="403" y="-11"/>
      <point x="462" y="60"/>
      <point x="462" y="150" type="curve" smooth="yes"/>
      <point x="462" y="228"/>
      <point x="419" y="294"/>
      <point x="296" y="342" type="curve" smooth="yes"/>
      <point x="126" y="409"/>
      <point x="82" y="473"/>
      <point x="82" y="547" type="curve" smooth="yes"/>
      <point x="82" y="648"/>
      <point x="150" y="704"/>
      <point x="243" y="704" type="curve" smooth="yes"/>
      <point x="327" y="704"/>
      <point x="398" y="656"/>
      <point x="466" y="523" type="curve" smooth="yes"/>
      <point x="467" y="521"/>
      <point x="469" y="520"/>
      <point x="470" y="521" type="curve" smooth="yes"/>
      <point x="471" y="522"/>
      <point x="470" y="524"/>
      <point x="470" y="525" type="curve" smooth="yes"/>
      <point x="421" y="706" type="line" smooth="yes"/>
      <point x="420" y="709"/>
      <point x="419" y="709"/>
      <point x="418" y="709" type="curve" smooth="yes"/>
      <point x="414" y="709"/>
      <point x="388" y="674"/>
      <point x="378" y="674" type="curve" smooth="yes"/>
      <point x="358" y="674"/>
      <point x="322" y="710"/>
      <point x="243" y="710" type="curve" smooth="yes"/>
      <point x="145" y="710"/>
      <point x="61" y="639"/>
      <point x="61" y="532" type="curve" smooth="yes"/>
      <point x="61" y="444"/>
      <point x="109" y="382"/>
      <point x="226" y="336" type="curve" smooth="yes"/>
      <point x="397" y="269"/>
      <point x="441" y="206"/>
      <point x="441" y="135" type="curve" smooth="yes"/>
      <point x="441" y="49"/>
      <point x="385" y="-5"/>
      <point x="300" y="-5" type="curve" smooth="yes"/>
      <point x="225" y="-5"/>
      <point x="150" y="42"/>
      <point x="75" y="162" type="curve" smooth="yes"/>
      <point x="74" y="164"/>
      <point x="72" y="165"/>
      <point x="71" y="164" type="curve" smooth="yes"/>
      <point x="70" y="163"/>
      <point x="71" y="161"/>
      <point x="71" y="160" type="curve" smooth="yes"/>
      <point x="116" y="-7" type="line" smooth="yes"/>
      <point x="117" y="-9"/>
      <point x="120" y="-10"/>
      <point x="119" y="-10" type="curve" smooth="yes"/>
      <point x="123" y="-10"/>
      <point x="141" y="39"/>
      <point x="147" y="39" type="curve" smooth="yes"/>
      <point x="164" y="39"/>
      <point x="216" y="-11"/>
    </contour>
  </outline>
</glyph>
<glyph name="T" format="2">
  <advance width="1018"/>
  <unicode hex="0054"/>
  <outline>
    <contour>
      <point x="132.0" y="1400.0" type="line" smooth="yes"/>
      <point x="108.0" y="1400.0"/>
      <point x="90.18181818181819" y="1434.0"/>
      <point x="82.0" y="1434.0" type="curve" smooth="yes"/>
      <point x="80.0" y="1434.0"/>
      <point x="78.0" y="1432.0"/>
      <point x="74.0" y="1418.0" type="curve" smooth="yes"/>
      <point x="10.0" y="1130.0" type="line" smooth="yes"/>
      <point x="8.0" y="1124.0"/>
      <point x="8.0" y="1118.0"/>
      <point x="12.0" y="1118.0" type="curve" smooth="yes"/>
      <point x="16.0" y="1118.0"/>
      <point x="18.0" y="1122.0"/>
      <point x="20.0" y="1126.0" type="curve" smooth="yes"/>
      <point x="76.4006529165524" y="1343.5453755352735"/>
      <point x="122.0" y="1390.0"/>
      <point x="236.0" y="1390.0" type="curve" smooth="yes"/>
      <point x="480.0" y="1390.0" type="line"/>
      <point x="480.0" y="48.0" type="line" smooth="yes"/>
      <point x="480" y="32"/>
      <point x="472.0" y="26.0"/>
      <point x="452.0" y="24.0" type="curve" smooth="yes"/>
      <point x="334.0" y="8.0" type="line" smooth="yes"/>
      <point x="330.0" y="8.0"/>
      <point x="328.0" y="6.0"/>
      <point x="328.0" y="4.0" type="curve" smooth="yes"/>
      <point x="328.0" y="2.0"/>
      <point x="330.0" y="0.0"/>
      <point x="334.0" y="0.0" type="curve" smooth="yes"/>
      <point x="684.0" y="0.0" type="line" smooth="yes"/>
      <point x="688.0" y="0.0"/>
      <point x="690.0" y="2.0"/>
      <point x="690.0" y="4.0" type="curve" smooth="yes"/>
      <point x="690.0" y="6.0"/>
      <point x="688.0" y="8.0"/>
      <point x="684.0" y="8.0" type="curve" smooth="yes"/>
      <point x="566.0" y="24.0" type="line" smooth="yes"/>
      <point x="546.0" y="26.0"/>
      <point x="538" y="32"/>
      <point x="538.0" y="48.0" type="curve" smooth="yes"/>
      <point x="538.0" y="1390.0" type="line"/>
      <point x="782.0" y="1390.0" type="line" smooth="yes"/>
      <point x="886.0" y="1390.0"/>
      <point x="935.5597271234561" y="1353.6048656467565"/>
      <point x="998.0" y="1126.0" type="curve" smooth="yes"/>
      <point x="1000.0" y="1122.0"/>
      <point x="1002.0" y="1118.0"/>
      <point x="1006.0" y="1118.0" type="curve" smooth="yes"/>
      <point x="1010.0" y="1118.0"/>
      <point x="1010.0" y="1124.0"/>
      <point x="1008.0" y="1130.0" type="curve" smooth="yes"/>
      <point x="944.0" y="1418.0" type="line" smooth="yes"/>
      <point x="940.0" y="1432.0"/>
      <point x="938.0" y="1434.0"/>
      <point x="936.0" y="1434.0" type="curve"/>
      <point x="924.5454545454545" y="1434.0"/>
      <point x="894.0" y="1400.0"/>
      <point x="866.0" y="1400.0" type="curve" smooth="yes"/>
    </contour>
  </outline>
</glyph>
<glyph name="U" format="2">
  <advance width="1244"/>
  <unicode hex="0055"/>
  <anchor x="500" y="-162.0" name="right"/>
  <anchor x="694" y="1460.0" name="center"/>
  <outline>
    <contour>
      <point x="1058" y="576" type="line" smooth="yes"/>
      <point x="1062" y="520"/>
      <point x="1068" y="440"/>
      <point x="1068" y="372" type="curve" smooth="yes"/>
      <point x="1068.0" y="142.4126984126984"/>
      <point x="915.0" y="-12.0"/>
      <point x="652" y="-12" type="curve" smooth="yes"/>
      <point x="371.0" y="-12.0"/>
      <point x="228.0" y="127.16315789473686"/>
      <point x="228" y="374" type="curve" smooth="yes"/>
      <point x="228" y="430"/>
      <point x="227" y="516"/>
      <point x="234" y="616" type="curve" smooth="yes"/>
      <point x="286" y="1346" type="line" smooth="yes"/>
      <point x="288" y="1370"/>
      <point x="292" y="1374"/>
      <point x="314" y="1376" type="curve" smooth="yes"/>
      <point x="432" y="1392" type="line" smooth="yes"/>
      <point x="436" y="1392"/>
      <point x="438" y="1394"/>
      <point x="438" y="1396" type="curve" smooth="yes"/>
      <point x="438" y="1398"/>
      <point x="436" y="1400"/>
      <point x="432" y="1400" type="curve" smooth="yes"/>
      <point x="82" y="1400" type="line" smooth="yes"/>
      <point x="78" y="1400"/>
      <point x="76" y="1398"/>
      <point x="76" y="1396" type="curve" smooth="yes"/>
      <point x="76" y="1394"/>
      <point x="78" y="1392"/>
      <point x="82" y="1392" type="curve" smooth="yes"/>
      <point x="200" y="1376" type="line" smooth="yes"/>
      <point x="220" y="1374"/>
      <point x="229" y="1368"/>
      <point x="228" y="1352" type="curve" smooth="yes"/>
      <point x="174" y="610" type="line" smooth="yes"/>
      <point x="169" y="542"/>
      <point x="166" y="414"/>
      <point x="166" y="354" type="curve" smooth="yes"/>
      <point x="166.0" y="137.0"/>
      <point x="323.0" y="-30.0"/>
      <point x="636" y="-30" type="curve" smooth="yes"/>
      <point x="940.0" y="-30.0"/>
      <point x="1080.0" y="149.0"/>
      <point x="1080" y="372" type="curve" smooth="yes"/>
      <point x="1080" y="444"/>
      <point x="1075" y="514"/>
      <point x="1070" y="586" type="curve" smooth="yes"/>
      <point x="1018" y="1326" type="line" smooth="yes"/>
      <point x="1017" y="1336"/>
      <point x="1022" y="1350"/>
      <point x="1036" y="1354" type="curve" smooth="yes"/>
      <point x="1158" y="1390" type="line" smooth="yes"/>
      <point x="1166" y="1392"/>
      <point x="1170" y="1394"/>
      <point x="1170" y="1396" type="curve" smooth="yes"/>
      <point x="1170" y="1398"/>
      <point x="1168" y="1400"/>
      <point x="1164" y="1400" type="curve" smooth="yes"/>
      <point x="814" y="1400" type="line" smooth="yes"/>
      <point x="810" y="1400"/>
      <point x="808" y="1398"/>
      <point x="808" y="1396" type="curve" smooth="yes"/>
      <point x="808" y="1394"/>
      <point x="810" y="1392"/>
      <point x="814" y="1392" type="curve" smooth="yes"/>
      <point x="966" y="1358" type="line" smooth="yes"/>
      <point x="998" y="1350"/>
      <point x="999" y="1340"/>
      <point x="1000" y="1330" type="curve" smooth="yes"/>
    </contour>
  </outline>
</glyph>
<glyph name="V" format="2">
  <advance width="1062"/>
  <unicode hex="0056"/>
  <outline>
    <contour>
      <point x="810.0" y="1396.0" type="curve" smooth="yes"/>
      <point x="810.0" y="1394.0"/>
      <point x="812.0" y="1392.0"/>
      <point x="816.0" y="1392.0" type="curve" smooth="yes"/>
      <point x="876.0" y="1378.0" type="line" smooth="yes"/>
      <point x="948.0" y="1362.0"/>
      <point x="956.0" y="1344.0"/>
      <point x="940.0" y="1294.0" type="curve" smooth="yes"/>
      <point x="552.0" y="18.0" type="line"/>
      <point x="572.0" y="56.0" type="line" smooth="yes"/>
      <point x="154.0" y="1344.0" type="line" smooth="yes"/>
      <point x="148.0" y="1362.0"/>
      <point x="154.0" y="1376.0"/>
      <point x="174.0" y="1378.0" type="curve" smooth="yes"/>
      <point x="268.0" y="1392.0" type="line" smooth="yes"/>
      <point x="270.0" y="1392.0"/>
      <point x="274.0" y="1394.0"/>
      <point x="274.0" y="1396.0" type="curve" smooth="yes"/>
      <point x="274.0" y="1398.0"/>
      <point x="272.0" y="1400.0"/>
      <point x="270.0" y="1400.0" type="curve" smooth="yes"/>
      <point x="-32.0" y="1400.0" type="line" smooth="yes"/>
      <point x="-34.0" y="1400.0"/>
      <point x="-36.0" y="1398.0"/>
      <point x="-36.0" y="1396.0" type="curve" smooth="yes"/>
      <point x="-36.0" y="1394.0"/>
      <point x="-34.0" y="1392.0"/>
      <point x="-30.0" y="1392.0" type="curve" smooth="yes"/>
      <point x="64.0" y="1378.0" type="line" smooth="yes"/>
      <point x="78.0" y="1376.0"/>
      <point x="82.0" y="1368.0"/>
      <point x="88.0" y="1348.0" type="curve" smooth="yes"/>
      <point x="512.0" y="66.0" type="line" smooth="yes"/>
      <point x="516.0" y="52.0"/>
      <point x="518.0" y="46.0"/>
      <point x="518.0" y="32.0" type="curve" smooth="yes"/>
      <point x="518.0" y="10.0" type="line" smooth="yes"/>
      <point x="518.0" y="4.0"/>
      <point x="520.0" y="0.0"/>
      <point x="526.0" y="0.0" type="curve" smooth="yes"/>
      <point x="566.0" y="0.0" type="line" smooth="yes"/>
      <point x="572.0" y="0.0"/>
      <point x="574.0" y="4.0"/>
      <point x="574.0" y="10.0" type="curve" smooth="yes"/>
      <point x="574.0" y="32.0" type="line" smooth="yes"/>
      <point x="574.0" y="46.0"/>
      <point x="576.0" y="56.0"/>
      <point x="578.0" y="62.0" type="curve" smooth="yes"/>
      <point x="952.0" y="1294.0" type="line" smooth="yes"/>
      <point x="968.0" y="1346.0"/>
      <point x="982.0" y="1366.0"/>
      <point x="1010.0" y="1374.0" type="curve" smooth="yes"/>
      <point x="1074.0" y="1392.0" type="line" smooth="yes"/>
      <point x="1076.0" y="1392.0"/>
      <point x="1078.0" y="1394.0"/>
      <point x="1078.0" y="1396.0" type="curve" smooth="yes"/>
      <point x="1078.0" y="1398.0"/>
      <point x="1076.0" y="1400.0"/>
      <point x="1074.0" y="1400.0" type="curve" smooth="yes"/>
      <point x="814.0" y="1400.0" type="line" smooth="yes"/>
      <point x="812.0" y="1400.0"/>
      <point x="810.0" y="1398.0"/>
    </contour>
  </outline>
</glyph>
<glyph name="W" format="2">
  <advance width="1870"/>
  <unicode hex="0057"/>
  <outline>
    <contour>
      <point x="920" y="1060" type="line"/>
      <point x="588" y="164" type="line"/>
      <point x="590" y="166" type="line"/>
      <point x="228" y="1294" type="line" smooth="yes"/>
      <point x="214" y="1334"/>
      <point x="236" y="1376"/>
      <point x="290" y="1390" type="curve" smooth="yes"/>
      <point x="376" y="1414" type="line" smooth="yes"/>
      <point x="376" y="1412"/>
      <point x="380" y="1410"/>
      <point x="380" y="1408" type="curve" smooth="yes"/>
      <point x="380" y="1404"/>
      <point x="378" y="1400"/>
      <point x="376" y="1400" type="curve" smooth="yes"/>
      <point x="-2" y="1400" type="line" smooth="yes"/>
      <point x="-4" y="1400"/>
      <point x="-8" y="1406"/>
      <point x="-8" y="1414" type="curve" smooth="yes"/>
      <point x="-8" y="1408"/>
      <point x="-6" y="1410"/>
      <point x="18" y="1406" type="curve" smooth="yes"/>
      <point x="56" y="1392" type="line" smooth="yes"/>
      <point x="92" y="1379"/>
      <point x="116" y="1346"/>
      <point x="126" y="1316" type="curve" smooth="yes"/>
      <point x="516" y="160" type="line" smooth="yes"/>
      <point x="512" y="168"/>
      <point x="520" y="140"/>
      <point x="520" y="102" type="curve" smooth="yes"/>
      <point x="520" y="20" type="line" smooth="yes"/>
      <point x="520" y="8"/>
      <point x="530" y="0"/>
      <point x="542" y="0" type="curve" smooth="yes"/>
      <point x="604" y="0" type="line" smooth="yes"/>
      <point x="616" y="0"/>
      <point x="624" y="8"/>
      <point x="624" y="18" type="curve" smooth="yes"/>
      <point x="624" y="120" type="line" smooth="yes"/>
      <point x="624" y="156"/>
      <point x="622" y="180"/>
      <point x="626" y="190" type="curve" smooth="yes"/>
      <point x="916" y="966" type="line"/>
    </contour>
    <contour>
      <point x="1527" y="1384" type="curve" smooth="yes"/>
      <point x="1533" y="1378"/>
      <point x="1548" y="1374"/>
      <point x="1556" y="1373" type="curve" smooth="yes"/>
      <point x="1672" y="1362" type="line" smooth="yes"/>
      <point x="1701" y="1359"/>
      <point x="1710" y="1312"/>
      <point x="1686" y="1242" type="curve" smooth="yes"/>
      <point x="1312" y="122" type="line"/>
      <point x="1310" y="158" type="line"/>
      <point x="960" y="1296" type="line" smooth="yes"/>
      <point x="948" y="1340"/>
      <point x="972" y="1376"/>
      <point x="1012" y="1388" type="curve" smooth="yes"/>
      <point x="1104" y="1412" type="line" smooth="yes"/>
      <point x="1112" y="1414"/>
      <point x="1116" y="1410"/>
      <point x="1116" y="1406" type="curve" smooth="yes"/>
      <point x="1116" y="1402"/>
      <point x="1112" y="1400"/>
      <point x="1110" y="1400" type="curve" smooth="yes"/>
      <point x="758" y="1400" type="line" smooth="yes"/>
      <point x="752" y="1400"/>
      <point x="746" y="1402"/>
      <point x="746" y="1406" type="curve" smooth="yes"/>
      <point x="746" y="1406"/>
      <point x="746" y="1412"/>
      <point x="758" y="1410" type="curve" smooth="yes"/>
      <point x="826" y="1377" type="line" smooth="yes"/>
      <point x="846" y="1367"/>
      <point x="856" y="1340"/>
      <point x="866" y="1312" type="curve" smooth="yes"/>
      <point x="1234" y="160" type="line" smooth="yes"/>
      <point x="1236" y="156"/>
      <point x="1240" y="134"/>
      <point x="1240" y="104" type="curve" smooth="yes"/>
      <point x="1240" y="22" type="line" smooth="yes"/>
      <point x="1240" y="10"/>
      <point x="1248" y="0"/>
      <point x="1256" y="0" type="curve" smooth="yes"/>
      <point x="1326" y="0" type="line" smooth="yes"/>
      <point x="1338" y="0"/>
      <point x="1342" y="6"/>
      <point x="1342" y="20" type="curve" smooth="yes"/>
      <point x="1342" y="98" type="line" smooth="yes"/>
      <point x="1342" y="148"/>
      <point x="1358" y="178"/>
      <point x="1374" y="230" type="curve" smooth="yes"/>
      <point x="1714" y="1228" type="line" smooth="yes"/>
      <point x="1742" y="1312"/>
      <point x="1764" y="1345"/>
      <point x="1812" y="1359" type="curve" smooth="yes"/>
      <point x="1843" y="1368" type="line" smooth="yes"/>
      <point x="1860" y="1373"/>
      <point x="1876" y="1375"/>
      <point x="1876" y="1386" type="curve" smooth="yes"/>
      <point x="1876" y="1395"/>
      <point x="1866" y="1400"/>
      <point x="1851" y="1400" type="curve" smooth="yes"/>
      <point x="1536" y="1400" type="line" smooth="yes"/>
      <point x="1532" y="1400"/>
      <point x="1522" y="1389"/>
    </contour>
  </outline>
</glyph>
<glyph name="X" format="2">
  <advance width="1161"/>
  <unicode hex="0058"/>
  <outline>
    <contour>
      <point x="1038" y="82" type="curve" smooth="yes"/>
      <point x="265" y="1331" type="line" smooth="yes"/>
      <point x="246" y="1361"/>
      <point x="251" y="1381"/>
      <point x="290" y="1384" type="curve" smooth="yes"/>
      <point x="394" y="1393" type="line" smooth="yes"/>
      <point x="399" y="1393"/>
      <point x="400" y="1395"/>
      <point x="400" y="1397" type="curve" smooth="yes"/>
      <point x="400" y="1399"/>
      <point x="399" y="1400"/>
      <point x="395" y="1400" type="curve" smooth="yes"/>
      <point x="72" y="1400" type="line" smooth="yes"/>
      <point x="70" y="1400"/>
      <point x="68" y="1399"/>
      <point x="68" y="1396" type="curve" smooth="yes"/>
      <point x="68" y="1394"/>
      <point x="70" y="1393"/>
      <point x="77" y="1392" type="curve" smooth="yes"/>
      <point x="133" y="1383"/>
      <point x="175" y="1378"/>
      <point x="207" y="1325" type="curve" smooth="yes"/>
      <point x="969" y="88" type="line" smooth="yes"/>
      <point x="995" y="46"/>
      <point x="970" y="21"/>
      <point x="863" y="10" type="curve" smooth="yes"/>
      <point x="852" y="9"/>
      <point x="849" y="8"/>
      <point x="849" y="5" type="curve" smooth="yes"/>
      <point x="849" y="2"/>
      <point x="851" y="0"/>
      <point x="855" y="0" type="curve" smooth="yes"/>
      <point x="1157" y="0" type="line" smooth="yes"/>
      <point x="1160" y="0"/>
      <point x="1161" y="1"/>
      <point x="1161" y="4" type="curve" smooth="yes"/>
      <point x="1161" y="5"/>
      <point x="1160" y="7"/>
      <point x="1153" y="8" type="curve" smooth="yes"/>
      <point x="1112" y="14"/>
      <point x="1074" y="23"/>
    </contour>
    <contour>
      <point x="607" y="728" type="line"/>
      <point x="913" y="1275" type="line" smooth="yes"/>
      <point x="945" y="1333"/>
      <point x="983" y="1366"/>
      <point x="1107" y="1388" type="curve" smooth="yes"/>
      <point x="1115" y="1389"/>
      <point x="1118" y="1393"/>
      <point x="1118" y="1395" type="curve" smooth="yes"/>
      <point x="1118" y="1397"/>
      <point x="1116" y="1398"/>
      <point x="1113" y="1398" type="curve" smooth="yes"/>
      <point x="752" y="1398" type="line" smooth="yes"/>
      <point x="749" y="1398"/>
      <point x="747" y="1397"/>
      <point x="747" y="1394" type="curve" smooth="yes"/>
      <point x="747" y="1391"/>
      <point x="748" y="1390"/>
      <point x="752" y="1390" type="curve" smooth="yes"/>
      <point x="857" y="1379" type="line" smooth="yes"/>
      <point x="920" y="1372"/>
      <point x="939" y="1342"/>
      <point x="904" y="1279" type="curve" smooth="yes"/>
      <point x="602" y="732" type="line"/>
    </contour>
    <contour>
      <point x="585" y="731" type="line"/>
      <point x="253" y="148" type="line" smooth="yes"/>
      <point x="193" y="43"/>
      <point x="143" y="18"/>
      <point x="6" y="9" type="curve" smooth="yes"/>
      <point x="2" y="9"/>
      <point x="0" y="7"/>
      <point x="0" y="5" type="curve" smooth="yes"/>
      <point x="0" y="2"/>
      <point x="4" y="0"/>
      <point x="7" y="0" type="curve" smooth="yes"/>
      <point x="396" y="0" type="line" smooth="yes"/>
      <point x="399" y="0"/>
      <point x="402" y="2"/>
      <point x="402" y="5" type="curve" smooth="yes"/>
      <point x="402" y="8"/>
      <point x="399" y="9"/>
      <point x="395" y="10" type="curve" smooth="yes"/>
      <point x="303" y="24" type="line" smooth="yes"/>
      <point x="230" y="35"/>
      <point x="217" y="66"/>
      <point x="260" y="142" type="curve" smooth="yes"/>
      <point x="591" y="729" type="line"/>
    </contour>
  </outline>
</glyph>
<glyph name="Y" format="2">
  <advance width="1124"/>
  <unicode hex="0059"/>
  <anchor x="653.0" y="1420.0" name="center"/>
  <outline>
    <contour>
      <point x="599" y="538" type="line"/>
      <point x="962" y="1279" type="line" smooth="yes"/>
      <point x="989.2319477137645" y="1334.589182523139"/>
      <point x="1019.3718041170024" y="1374.624543445286"/>
      <point x="1092" y="1385" type="curve" smooth="yes"/>
      <point x="1113" y="1388" type="line" smooth="yes"/>
      <point x="1118" y="1389"/>
      <point x="1121" y="1392"/>
      <point x="1121" y="1395" type="curve" smooth="yes"/>
      <point x="1121" y="1399"/>
      <point x="1119.0" y="1400.0"/>
      <point x="1113" y="1400" type="curve" smooth="yes"/>
      <point x="828" y="1400" type="line" smooth="yes"/>
      <point x="825" y="1400"/>
      <point x="822" y="1399"/>
      <point x="822" y="1395" type="curve" smooth="yes"/>
      <point x="822" y="1393"/>
      <point x="824" y="1391"/>
      <point x="829" y="1390" type="curve" smooth="yes"/>
      <point x="888" y="1378" type="line" smooth="yes"/>
      <point x="963" y="1363"/>
      <point x="979" y="1337"/>
      <point x="950" y="1279" type="curve" smooth="yes"/>
      <point x="590" y="548" type="line"/>
      <point x="594" y="550" type="line"/>
      <point x="197" y="1348" type="line" smooth="yes"/>
      <point x="187" y="1369"/>
      <point x="194" y="1375"/>
      <point x="228" y="1379" type="curve" smooth="yes"/>
      <point x="335" y="1390" type="line" smooth="yes"/>
      <point x="342" y="1391"/>
      <point x="345" y="1392"/>
      <point x="345" y="1397" type="curve" smooth="yes"/>
      <point x="345" y="1399"/>
      <point x="341" y="1400"/>
      <point x="336" y="1400" type="curve" smooth="yes"/>
      <point x="18" y="1400" type="line" smooth="yes"/>
      <point x="13" y="1400"/>
      <point x="10" y="1400"/>
      <point x="10" y="1396" type="curve" smooth="yes"/>
      <point x="10" y="1394"/>
      <point x="12" y="1392"/>
      <point x="17" y="1391" type="curve" smooth="yes"/>
      <point x="85" y="1381" type="line" smooth="yes"/>
      <point x="108" y="1378"/>
      <point x="125" y="1365"/>
      <point x="136" y="1342" type="curve" smooth="yes"/>
      <point x="548" y="520" type="line"/>
    </contour>
    <contour>
      <point x="543" y="534" type="line"/>
      <point x="543" y="51" type="line" smooth="yes"/>
      <point x="543" y="33"/>
      <point x="538" y="27"/>
      <point x="517" y="24" type="curve" smooth="yes"/>
      <point x="396" y="8" type="line" smooth="yes"/>
      <point x="393" y="8"/>
      <point x="391" y="6"/>
      <point x="391" y="4" type="curve" smooth="yes"/>
      <point x="391" y="2"/>
      <point x="393" y="0"/>
      <point x="397" y="0" type="curve" smooth="yes"/>
      <point x="746" y="0" type="line" smooth="yes"/>
      <point x="751" y="0"/>
      <point x="753" y="1"/>
      <point x="753" y="5" type="curve" smooth="yes"/>
      <point x="753" y="7"/>
      <point x="749" y="7"/>
      <point x="744" y="8" type="curve" smooth="yes"/>
      <point x="627" y="24" type="line" smooth="yes"/>
      <point x="607" y="27"/>
      <point x="601" y="33"/>
      <point x="601" y="52" type="curve" smooth="yes"/>
      <point x="601" y="545" type="line"/>
    </contour>
  </outline>
</glyph>
<glyph name="Z" format="2">
  <advance width="1022"/>
  <unicode hex="005A"/>
  <outline>
    <contour>
      <point x="990.0" y="1392.0" type="line" smooth="yes"/>
      <point x="992.0" y="1396.0"/>
      <point x="994.0" y="1388.0"/>
      <point x="994.0" y="1396.0" type="curve" smooth="yes"/>
      <point x="994.0" y="1398.0"/>
      <point x="984.0" y="1396.0"/>
      <point x="968.0" y="1396.0" type="curve" smooth="yes"/>
      <point x="174.0" y="1396.0" type="line" smooth="yes"/>
      <point x="158.0" y="1396.0"/>
      <point x="142.0" y="1428.0"/>
      <point x="128.0" y="1428.0" type="curve" smooth="yes"/>
      <point x="130.0" y="1428.0"/>
      <point x="138.0" y="1428.0"/>
      <point x="136.0" y="1430.0" type="curve" smooth="yes"/>
      <point x="84.0" y="1178.0" type="line" smooth="yes"/>
      <point x="80.0" y="1170.0"/>
      <point x="76.0" y="1166.0"/>
      <point x="76.0" y="1160.0" type="curve" smooth="yes"/>
      <point x="76.0" y="1162.0"/>
      <point x="78.0" y="1164.0"/>
      <point x="74.0" y="1164.0" type="curve" smooth="yes"/>
      <point x="74.0" y="1164.0"/>
      <point x="70.0" y="1164.0"/>
      <point x="72.0" y="1154.0" type="curve" smooth="yes"/>
      <point x="148.0" y="1280.0" type="line" smooth="yes"/>
      <point x="200.0" y="1366.0"/>
      <point x="212.0" y="1380.0"/>
      <point x="328.0" y="1380.0" type="curve" smooth="yes"/>
      <point x="898.0" y="1380.0" type="line"/>
      <point x="882.0" y="1368.0" type="line"/>
      <point x="28.0" y="12.0" type="line" smooth="yes"/>
      <point x="28.0" y="12.0"/>
      <point x="20.0" y="4.0"/>
      <point x="20.0" y="-14.0" type="curve" smooth="yes"/>
      <point x="20.0" y="-10.0"/>
      <point x="22.0" y="-4.0"/>
      <point x="30.0" y="-4.0" type="curve" smooth="yes"/>
      <point x="802.0" y="-4.0" type="line" smooth="yes"/>
      <point x="842.0" y="-4.0"/>
      <point x="870.0" y="-38.0"/>
      <point x="892.0" y="-38.0" type="curve" smooth="yes"/>
      <point x="882.0" y="-38.0"/>
      <point x="878.0" y="-36.0"/>
      <point x="880.0" y="-38.0" type="curve" smooth="yes"/>
      <point x="964.0" y="328.0" type="line" smooth="yes"/>
      <point x="964.0" y="316.0"/>
      <point x="964.0" y="304.0"/>
      <point x="964.0" y="298.0" type="curve" smooth="yes"/>
      <point x="964.0" y="298.0"/>
      <point x="966.0" y="300.0"/>
      <point x="964.0" y="300.0" type="curve" smooth="yes"/>
      <point x="958.0" y="300.0"/>
      <point x="954.0" y="292.0"/>
      <point x="950.0" y="290.0" type="curve" smooth="yes"/>
      <point x="872.0" y="148.0" type="line" smooth="yes"/>
      <point x="820.0" y="44.0"/>
      <point x="778.0" y="14.0"/>
      <point x="642.0" y="14.0" type="curve" smooth="yes"/>
      <point x="210.0" y="14.0" type="line"/>
      <point x="130.0" y="26.0" type="line"/>
    </contour>
  </outline>
</glyph>
<glyph name="asciicircum" format="2">
  <advance width="596"/>
  <unicode hex="005E"/>
  <outline>
    <contour>
      <point x="310" y="1365" type="line"/>
      <point x="40" y="835" type="line" smooth="yes"/>
      <point x="37" y="830"/>
      <point x="34" y="829"/>
      <point x="31" y="829" type="curve" smooth="yes"/>
      <point x="27" y="829"/>
      <point x="25" y="831"/>
      <point x="25" y="836" type="curve" smooth="yes"/>
      <point x="25" y="839"/>
      <point x="27" y="843"/>
      <point x="29" y="848" type="curve" smooth="yes"/>
      <point x="291" y="1408" type="line" smooth="yes"/>
      <point x="296" y="1418"/>
      <point x="299" y="1420"/>
      <point x="304" y="1420" type="curve" smooth="yes"/>
      <point x="309" y="1420"/>
      <point x="312" y="1418"/>
      <point x="317" y="1408" type="curve" smooth="yes"/>
      <point x="567" y="847" type="line" smooth="yes"/>
      <point x="569" y="842"/>
      <point x="571" y="838"/>
      <point x="571" y="835" type="curve" smooth="yes"/>
      <point x="571" y="830"/>
      <point x="569" y="828"/>
      <point x="565" y="828" type="curve" smooth="yes"/>
      <point x="562" y="828"/>
      <point x="559" y="829"/>
      <point x="556" y="834" type="curve" smooth="yes"/>
      <point x="298" y="1365" type="line"/>
    </contour>
  </outline>
</glyph>
<glyph name="a" format="2">
  <advance width="764"/>
  <unicode hex="0061"/>
  <anchor x="374.0" y="942.0" name="center"/>
  <outline>
    <contour>
      <point x="94.0" y="698.0" type="curve" smooth="yes"/>
      <point x="94.0" y="666.0"/>
      <point x="110.0" y="648.0"/>
      <point x="130.0" y="648.0" type="curve" smooth="yes"/>
      <point x="150.0" y="648.0"/>
      <point x="168.0" y="660.0"/>
      <point x="168.0" y="692.0" type="curve" smooth="yes"/>
      <point x="168.0" y="736.0" type="line" smooth="yes"/>
      <point x="168.0" y="820.0"/>
      <point x="232.0" y="864.0"/>
      <point x="350.0" y="864.0" type="curve" smooth="yes"/>
      <point x="502.0" y="864.0"/>
      <point x="570.0" y="770.0"/>
      <point x="570.0" y="590.0" type="curve" smooth="yes"/>
      <point x="570.0" y="108.0" type="line" smooth="yes"/>
      <point x="570.0" y="18.0"/>
      <point x="608.0" y="-16.0"/>
      <point x="666.0" y="-16.0" type="curve" smooth="yes"/>
      <point x="700.0" y="-16.0"/>
      <point x="724.0" y="4.0"/>
      <point x="724.0" y="32.0" type="curve" smooth="yes"/>
      <point x="724.0" y="34.0"/>
      <point x="722.0" y="36.0"/>
      <point x="720.0" y="36.0" type="curve" smooth="yes"/>
      <point x="716.0" y="36.0"/>
      <point x="718.0" y="-2.0"/>
      <point x="676.0" y="0.0" type="curve" smooth="yes"/>
      <point x="650.0" y="2.0"/>
      <point x="624.0" y="24.0"/>
      <point x="624.0" y="82.0" type="curve" smooth="yes"/>
      <point x="624.0" y="626.0" type="line" smooth="yes"/>
      <point x="624.0" y="776.0"/>
      <point x="538.0" y="872.0"/>
      <point x="354.0" y="872.0" type="curve" smooth="yes"/>
      <point x="184.0" y="872.0"/>
      <point x="94.0" y="794.0"/>
    </contour>
    <contour>
      <point x="598.0" y="344.0" type="curve"/>
      <point x="602.0" y="350.0" type="line"/>
      <point x="534.0" y="376.0"/>
      <point x="460.0" y="402.0"/>
      <point x="344.0" y="402.0" type="curve" smooth="yes"/>
      <point x="166.0" y="402.0"/>
      <point x="62.0" y="306.0"/>
      <point x="62.0" y="186.0" type="curve" smooth="yes"/>
      <point x="62.0" y="66.0"/>
      <point x="152.0" y="-16.0"/>
      <point x="298.0" y="-16.0" type="curve" smooth="yes"/>
      <point x="412.0" y="-16.0"/>
      <point x="512.0" y="40.0"/>
      <point x="582.0" y="124.0" type="curve"/>
      <point x="576.0" y="128.0" type="line"/>
      <point x="508.0" y="48.0"/>
      <point x="422.0" y="4.0"/>
      <point x="330.0" y="4.0" type="curve" smooth="yes"/>
      <point x="206.0" y="4.0"/>
      <point x="124.0" y="84.0"/>
      <point x="124.0" y="198.0" type="curve" smooth="yes"/>
      <point x="124.0" y="310.0"/>
      <point x="206.0" y="394.0"/>
      <point x="368.0" y="394.0" type="curve" smooth="yes"/>
      <point x="458.0" y="394.0"/>
      <point x="532.0" y="370.0"/>
    </contour>
  </outline>
</glyph>
<glyph name="b" format="2">
  <advance width="895"/>
  <unicode hex="0062"/>
  <outline>
    <contour>
      <point x="184" y="1422" type="line" smooth="yes"/>
      <point x="184" y="1426"/>
      <point x="182" y="1430"/>
      <point x="178" y="1430" type="curve" smooth="yes"/>
      <point x="176" y="1430"/>
      <point x="174" y="1430"/>
      <point x="168" y="1428" type="curve" smooth="yes"/>
      <point x="20" y="1386" type="line" smooth="yes"/>
      <point x="16" y="1384"/>
      <point x="14" y="1384"/>
      <point x="14" y="1380" type="curve" smooth="yes"/>
      <point x="14" y="1378"/>
      <point x="16" y="1376"/>
      <point x="18" y="1376" type="curve" smooth="yes"/>
      <point x="122" y="1376" type="line" smooth="yes"/>
      <point x="128" y="1376"/>
      <point x="130" y="1372"/>
      <point x="130" y="1368" type="curve" smooth="yes"/>
      <point x="130" y="2" type="line" smooth="yes"/>
      <point x="130" y="-2"/>
      <point x="132" y="-4"/>
      <point x="134" y="-4" type="curve" smooth="yes"/>
      <point x="138" y="-4"/>
      <point x="138" y="-2"/>
      <point x="140" y="2" type="curve" smooth="yes"/>
      <point x="184" y="104" type="line"/>
    </contour>
    <contour>
      <point x="176" y="698" type="line"/>
      <point x="276" y="806"/>
      <point x="384" y="844"/>
      <point x="466" y="844" type="curve" smooth="yes"/>
      <point x="650" y="844"/>
      <point x="786" y="682"/>
      <point x="786" y="432" type="curve" smooth="yes"/>
      <point x="786" y="158"/>
      <point x="626" y="-10"/>
      <point x="444" y="-10" type="curve" smooth="yes"/>
      <point x="306" y="-10"/>
      <point x="200" y="66"/>
      <point x="140" y="170" type="curve"/>
      <point x="132" y="166" type="line"/>
      <point x="198" y="62"/>
      <point x="306" y="-20"/>
      <point x="450" y="-20" type="curve" smooth="yes"/>
      <point x="680" y="-20"/>
      <point x="840" y="164"/>
      <point x="840" y="442" type="curve" smooth="yes"/>
      <point x="840" y="698"/>
      <point x="680" y="870"/>
      <point x="488" y="870" type="curve" smooth="yes"/>
      <point x="384" y="870"/>
      <point x="298" y="836"/>
      <point x="172" y="702" type="curve"/>
    </contour>
  </outline>
</glyph>
<glyph name="c" format="2">
  <advance width="726"/>
  <unicode hex="0063"/>
  <anchor x="410.0" y="974.0" name="center"/>
  <outline>
    <contour>
      <point x="682" y="679" type="curve" smooth="yes"/>
      <point x="682.0" y="784.8387096774194"/>
      <point x="578.0" y="872.0"/>
      <point x="418" y="872" type="curve" smooth="yes"/>
      <point x="192.0" y="872.0"/>
      <point x="42.0" y="655.4310344827586"/>
      <point x="42" y="398" type="curve" smooth="yes"/>
      <point x="42.0" y="131.42352941176472"/>
      <point x="171" y="-17"/>
      <point x="377" y="-17" type="curve" smooth="yes"/>
      <point x="523.0" y="-17.0"/>
      <point x="631" y="72.0"/>
      <point x="681" y="245" type="curve" smooth="yes"/>
      <point x="682" y="247"/>
      <point x="681" y="250"/>
      <point x="679" y="250" type="curve" smooth="yes"/>
      <point x="677" y="250"/>
      <point x="676" y="249"/>
      <point x="675" y="246" type="curve" smooth="yes"/>
      <point x="626" y="98"/>
      <point x="533.4578313253012" y="25.0"/>
      <point x="408" y="25" type="curve" smooth="yes"/>
      <point x="230.5217391304348" y="25.0"/>
      <point x="94.0" y="167.0"/>
      <point x="94" y="428" type="curve" smooth="yes"/>
      <point x="94.0" y="682.0"/>
      <point x="218.38436482084688" y="865.0"/>
      <point x="407" y="865" type="curve" smooth="yes"/>
      <point x="529.4418604651163" y="865.0"/>
      <point x="602" y="801"/>
      <point x="602" y="712" type="curve" smooth="yes"/>
      <point x="602" y="680" type="line" smooth="yes"/>
      <point x="602.0" y="650.0"/>
      <point x="620" y="632.0"/>
      <point x="643" y="632" type="curve" smooth="yes"/>
      <point x="664" y="632.0"/>
      <point x="682.0" y="652"/>
    </contour>
  </outline>
</glyph>
<glyph name="d" format="2">
  <advance width="906"/>
  <unicode hex="0064"/>
  <outline>
    <contour>
      <point x="704.0" y="152.0" type="line"/>
      <point x="604.0" y="44.0"/>
      <point x="496.0" y="6.0"/>
      <point x="414.0" y="6.0" type="curve" smooth="yes"/>
      <point x="230.0" y="6.0"/>
      <point x="94.0" y="168.0"/>
      <point x="94.0" y="418.0" type="curve" smooth="yes"/>
      <point x="94.0" y="692.0"/>
      <point x="250.0" y="860.0"/>
      <point x="428.0" y="860.0" type="curve" smooth="yes"/>
      <point x="570.0" y="860.0"/>
      <point x="680.0" y="784.0"/>
      <point x="740.0" y="680.0" type="curve"/>
      <point x="748.0" y="684.0" type="line"/>
      <point x="682.0" y="788.0"/>
      <point x="574.0" y="870.0"/>
      <point x="430.0" y="870.0" type="curve" smooth="yes"/>
      <point x="200.0" y="870.0"/>
      <point x="40.0" y="686.0"/>
      <point x="40.0" y="408.0" type="curve" smooth="yes"/>
      <point x="40.0" y="152.0"/>
      <point x="200.0" y="-20.0"/>
      <point x="392.0" y="-20.0" type="curve" smooth="yes"/>
      <point x="496.0" y="-20.0"/>
      <point x="582.0" y="14.0"/>
      <point x="708.0" y="148.0" type="curve"/>
    </contour>
    <contour>
      <point x="752.0" y="1422.0" type="line" smooth="yes"/>
      <point x="752.0" y="1426.0"/>
      <point x="750.0" y="1430.0"/>
      <point x="746.0" y="1430.0" type="curve" smooth="yes"/>
      <point x="744.0" y="1430.0"/>
      <point x="742.0" y="1430.0"/>
      <point x="736.0" y="1428.0" type="curve" smooth="yes"/>
      <point x="588.0" y="1386.0" type="line" smooth="yes"/>
      <point x="584.0" y="1384.0"/>
      <point x="582.0" y="1384.0"/>
      <point x="582.0" y="1380.0" type="curve" smooth="yes"/>
      <point x="582.0" y="1378.0"/>
      <point x="584.0" y="1376.0"/>
      <point x="586.0" y="1376.0" type="curve" smooth="yes"/>
      <point x="690.0" y="1376.0" type="line" smooth="yes"/>
      <point x="696.0" y="1376.0"/>
      <point x="698.0" y="1372.0"/>
      <point x="698.0" y="1368.0" type="curve" smooth="yes"/>
      <point x="698.0" y="40.0" type="line" smooth="yes"/>
      <point x="698.0" y="6.0"/>
      <point x="700.0" y="0.0"/>
      <point x="728.0" y="0.0" type="curve" smooth="yes"/>
      <point x="858.0" y="0.0" type="line" smooth="yes"/>
      <point x="862.0" y="0.0"/>
      <point x="864.0" y="2.0"/>
      <point x="864.0" y="4.0" type="curve" smooth="yes"/>
      <point x="864.0" y="8.0"/>
      <point x="862.0" y="10.0"/>
      <point x="856.0" y="10.0" type="curve" smooth="yes"/>
      <point x="776.0" y="20.0" type="line" smooth="yes"/>
      <point x="760.0" y="22.0"/>
      <point x="752.0" y="30.0"/>
      <point x="752.0" y="42.0" type="curve" smooth="yes"/>
    </contour>
  </outline>
</glyph>
<glyph name="e" format="2">
  <advance width="734"/>
  <unicode hex="0065"/>
  <anchor x="438.0" y="982.0" name="center"/>
  <outline>
    <contour>
      <point x="692.0" y="548.0" type="curve" smooth="yes"/>
      <point x="692.0" y="738.0"/>
      <point x="576.0" y="872.0"/>
      <point x="402.0" y="872.0" type="curve" smooth="yes"/>
      <point x="186.0" y="872.0"/>
      <point x="40" y="660"/>
      <point x="40.0" y="400.0" type="curve" smooth="yes"/>
      <point x="40" y="137"/>
      <point x="173" y="-20"/>
      <point x="383.0" y="-20.0" type="curve" smooth="yes"/>
      <point x="534.951768488746" y="-20.0"/>
      <point x="655" y="89"/>
      <point x="684" y="239" type="curve" smooth="yes"/>
      <point x="685" y="245"/>
      <point x="682.0" y="247.0"/>
      <point x="680.0" y="247.0" type="curve" smooth="yes"/>
      <point x="678.0" y="247.0"/>
      <point x="677" y="245"/>
      <point x="676.0" y="241.0" type="curve" smooth="yes"/>
      <point x="646.9041433108924" y="101.15217268783775"/>
      <point x="537.3136531365313" y="16.0"/>
      <point x="415.0" y="16.0" type="curve" smooth="yes"/>
      <point x="225" y="16"/>
      <point x="90" y="178"/>
      <point x="90.0" y="452.0" type="curve" smooth="yes"/>
      <point x="90" y="690"/>
      <point x="196.0" y="864.0"/>
      <point x="396.0" y="864.0" type="curve" smooth="yes"/>
      <point x="542.0" y="864.0"/>
      <point x="634.0" y="748.0"/>
      <point x="634.0" y="558.0" type="curve" smooth="yes"/>
      <point x="634.0" y="550.0"/>
      <point x="628.0" y="544.0"/>
      <point x="620.0" y="544.0" type="curve" smooth="yes"/>
      <point x="68.0" y="544.0" type="line"/>
      <point x="68.0" y="536.0" type="line"/>
      <point x="678.0" y="536.0" type="line" smooth="yes"/>
      <point x="686.0" y="536.0"/>
      <point x="692.0" y="540.0"/>
    </contour>
  </outline>
</glyph>
<glyph name="f" format="2">
  <advance width="207"/>
  <unicode hex="0066"/>
  <outline>
    <contour>
      <point x="112" y="21" type="curve" smooth="yes"/>
      <point x="112" y="424" type="line"/>
      <point x="203" y="424" type="line" smooth="yes"/>
      <point x="207" y="424"/>
      <point x="209" y="426"/>
      <point x="209" y="428" type="curve" smooth="yes"/>
      <point x="209" y="429"/>
      <point x="208" y="430"/>
      <point x="206" y="430" type="curve"/>
      <point x="109" y="430" type="line"/>
      <point x="112" y="427" type="line" smooth="yes"/>
      <point x="112" y="438" type="line" smooth="yes"/>
      <point x="112" y="493"/>
      <point x="52" y="557"/>
      <point x="52" y="617" type="curve" smooth="yes"/>
      <point x="52" y="669"/>
      <point x="90" y="703"/>
      <point x="142" y="703" type="curve" smooth="yes"/>
      <point x="174" y="703"/>
      <point x="190" y="689"/>
      <point x="190" y="666" type="curve" smooth="yes"/>
      <point x="190" y="649" type="line" smooth="yes"/>
      <point x="190" y="633"/>
      <point x="199" y="627"/>
      <point x="209" y="627" type="curve" smooth="yes"/>
      <point x="219" y="627"/>
      <point x="227" y="636"/>
      <point x="227" y="652" type="curve" smooth="yes"/>
      <point x="227" y="685"/>
      <point x="197" y="715"/>
      <point x="146" y="715" type="curve" smooth="yes"/>
      <point x="94" y="715"/>
      <point x="45" y="678"/>
      <point x="45" y="609" type="curve" smooth="yes"/>
      <point x="45" y="543"/>
      <point x="87" y="493"/>
      <point x="87" y="441" type="curve" smooth="yes"/>
      <point x="87" y="422" type="line"/>
      <point x="90" y="430" type="line"/>
      <point x="8" y="430" type="line" smooth="yes"/>
      <point x="7" y="430"/>
      <point x="6" y="429"/>
      <point x="6" y="428" type="curve" smooth="yes"/>
      <point x="6" y="426"/>
      <point x="7" y="426"/>
      <point x="9" y="425" type="curve" smooth="yes"/>
      <point x="77" y="406" type="line" smooth="yes"/>
      <point x="83" y="404"/>
      <point x="85" y="401"/>
      <point x="85" y="396" type="curve" smooth="yes"/>
      <point x="85" y="20" type="line" smooth="yes"/>
      <point x="85" y="15"/>
      <point x="81" y="11"/>
      <point x="73" y="10" type="curve" smooth="yes"/>
      <point x="31" y="5" type="line" smooth="yes"/>
      <point x="29" y="5"/>
      <point x="27" y="4"/>
      <point x="27" y="2" type="curve" smooth="yes"/>
      <point x="27" y="1"/>
      <point x="28" y="0"/>
      <point x="29" y="0" type="curve" smooth="yes"/>
      <point x="190" y="0" type="line" smooth="yes"/>
      <point x="192" y="0"/>
      <point x="193" y="1"/>
      <point x="193" y="2" type="curve"/>
      <point x="193" y="4"/>
      <point x="192" y="5"/>
      <point x="189" y="5" type="curve" smooth="yes"/>
      <point x="124" y="10" type="line" smooth="yes"/>
      <point x="116" y="11"/>
      <point x="112" y="15"/>
    </contour>
  </outline>
</glyph>
<glyph name="h" format="2">
  <advance width="884"/>
  <unicode hex="0068"/>
  <outline>
    <contour>
      <point x="210.0" y="1422.0" type="line" smooth="yes"/>
      <point x="210.0" y="1426.0"/>
      <point x="208.0" y="1430.0"/>
      <point x="204.0" y="1430.0" type="curve" smooth="yes"/>
      <point x="202.0" y="1430.0"/>
      <point x="200.0" y="1430.0"/>
      <point x="194.0" y="1428.0" type="curve" smooth="yes"/>
      <point x="46.0" y="1386.0" type="line" smooth="yes"/>
      <point x="42.0" y="1384.0"/>
      <point x="40.0" y="1384.0"/>
      <point x="40.0" y="1380.0" type="curve" smooth="yes"/>
      <point x="40.0" y="1378.0"/>
      <point x="42.0" y="1376.0"/>
      <point x="44.0" y="1376.0" type="curve" smooth="yes"/>
      <point x="148.0" y="1376.0" type="line" smooth="yes"/>
      <point x="154.0" y="1376.0"/>
      <point x="156.0" y="1372.0"/>
      <point x="156.0" y="1368.0" type="curve" smooth="yes"/>
      <point x="156.0" y="40.0" type="line" smooth="yes"/>
      <point x="156.0" y="30.0"/>
      <point x="148.0" y="22.0"/>
      <point x="132.0" y="20.0" type="curve" smooth="yes"/>
      <point x="54.0" y="12.0" type="line" smooth="yes"/>
      <point x="44.0" y="10.0"/>
      <point x="40.0" y="6.0"/>
      <point x="40.0" y="4.0" type="curve" smooth="yes"/>
      <point x="40.0" y="2.0"/>
      <point x="42.0" y="0.0"/>
      <point x="44.0" y="0.0" type="curve" smooth="yes"/>
      <point x="316.0" y="0.0" type="line" smooth="yes"/>
      <point x="320.0" y="0.0"/>
      <point x="322.0" y="2.0"/>
      <point x="322.0" y="4.0" type="curve" smooth="yes"/>
      <point x="322.0" y="8.0"/>
      <point x="320.0" y="10.0"/>
      <point x="314.0" y="10.0" type="curve" smooth="yes"/>
      <point x="234.0" y="20.0" type="line" smooth="yes"/>
      <point x="218.0" y="22.0"/>
      <point x="210.0" y="30.0"/>
      <point x="210.0" y="42.0" type="curve" smooth="yes"/>
    </contour>
    <contour>
      <point x="202.0" y="698.0" type="line" smooth="yes"/>
      <point x="232.0" y="726.0" type="line" smooth="yes"/>
      <point x="326.0" y="814.0"/>
      <point x="398.0" y="844.0"/>
      <point x="456.0" y="844.0" type="curve" smooth="yes"/>
      <point x="556.0" y="844.0"/>
      <point x="618.0" y="776.0"/>
      <point x="640.0" y="636.0" type="curve" smooth="yes"/>
      <point x="730.0" y="52.0" type="line" smooth="yes"/>
      <point x="732.0" y="36.0"/>
      <point x="724.0" y="18.0"/>
      <point x="698.0" y="16.0" type="curve" smooth="yes"/>
      <point x="634.0" y="10.0" type="line" smooth="yes"/>
      <point x="628.0" y="10.0"/>
      <point x="624.0" y="8.0"/>
      <point x="624.0" y="4.0" type="curve" smooth="yes"/>
      <point x="624.0" y="2.0"/>
      <point x="628.0" y="0.0"/>
      <point x="632.0" y="0.0" type="curve" smooth="yes"/>
      <point x="862.0" y="0.0" type="line" smooth="yes"/>
      <point x="866.0" y="0.0"/>
      <point x="868.0" y="2.0"/>
      <point x="868.0" y="4.0" type="curve" smooth="yes"/>
      <point x="868.0" y="6.0"/>
      <point x="866.0" y="8.0"/>
      <point x="862.0" y="8.0" type="curve" smooth="yes"/>
      <point x="824.0" y="12.0" type="line" smooth="yes"/>
      <point x="798.0" y="14.0"/>
      <point x="788.0" y="30.0"/>
      <point x="784.0" y="52.0" type="curve" smooth="yes"/>
      <point x="694.0" y="640.0" type="line" smooth="yes"/>
      <point x="670.0" y="792.0"/>
      <point x="590.0" y="870.0"/>
      <point x="484.0" y="870.0" type="curve" smooth="yes"/>
      <point x="420.0" y="870.0"/>
      <point x="354.0" y="848.0"/>
      <point x="228.0" y="730.0" type="curve" smooth="yes"/>
      <point x="198.0" y="702.0" type="line"/>
    </contour>
  </outline>
</glyph>
<glyph name="j" format="2">
  <advance width="382"/>
  <unicode hex="006A"/>
  <outline>
    <contour>
      <point x="222" y="-14" type="curve" smooth="yes"/>
      <point x="222" y="849" type="line" smooth="yes"/>
      <point x="222" y="855"/>
      <point x="219" y="860"/>
      <point x="216" y="860" type="curve" smooth="yes"/>
      <point x="212" y="860"/>
      <point x="209" y="859"/>
      <point x="202" y="857" type="curve" smooth="yes"/>
      <point x="58" y="816" type="line" smooth="yes"/>
      <point x="54" y="815"/>
      <point x="52" y="813"/>
      <point x="52" y="810" type="curve" smooth="yes"/>
      <point x="52" y="808"/>
      <point x="54" y="806"/>
      <point x="57" y="806" type="curve" smooth="yes"/>
      <point x="160" y="806" type="line" smooth="yes"/>
      <point x="165" y="806"/>
      <point x="168" y="803"/>
      <point x="168" y="797" type="curve" smooth="yes"/>
      <point x="168" y="-22" type="line" smooth="yes"/>
      <point x="168" y="-175.0"/>
      <point x="258.0" y="-250.0"/>
      <point x="258" y="-360" type="curve" smooth="yes"/>
      <point x="258.0" y="-436.0"/>
      <point x="216" y="-485.0"/>
      <point x="150" y="-485" type="curve" smooth="yes"/>
      <point x="111" y="-485"/>
      <point x="86" y="-454"/>
      <point x="86" y="-396" type="curve" smooth="yes"/>
      <point x="86" y="-378" type="line" smooth="yes"/>
      <point x="86" y="-352"/>
      <point x="71.0" y="-334.0"/>
      <point x="48" y="-334" type="curve" smooth="yes"/>
      <point x="23" y="-334.0"/>
      <point x="8" y="-355"/>
      <point x="8" y="-388" type="curve" smooth="yes"/>
      <point x="8" y="-447.0"/>
      <point x="61.0" y="-494"/>
      <point x="133" y="-494" type="curve" smooth="yes"/>
      <point x="224" y="-494"/>
      <point x="288" y="-423"/>
      <point x="288" y="-341" type="curve" smooth="yes"/>
      <point x="288.0" y="-227.0"/>
      <point x="222" y="-143.0"/>
    </contour>
    <contour>
      <point x="189" y="1090.0" type="curve" smooth="yes"/>
      <point x="216" y="1090.0"/>
      <point x="237" y="1116"/>
      <point x="237" y="1150" type="curve" smooth="yes"/>
      <point x="237" y="1183"/>
      <point x="217" y="1211"/>
      <point x="189" y="1211" type="curve" smooth="yes"/>
      <point x="164" y="1211"/>
      <point x="142.0" y="1184"/>
      <point x="142.0" y="1150" type="curve" smooth="yes"/>
      <point x="142.0" y="1116"/>
      <point x="161" y="1090.0"/>
    </contour>
  </outline>
</glyph>
<glyph name="k" format="2">
  <advance width="832"/>
  <unicode hex="006B"/>
  <outline>
    <contour>
      <point x="42" y="0" type="curve" smooth="yes"/>
      <point x="314" y="0" type="line" smooth="yes"/>
      <point x="318" y="0"/>
      <point x="320" y="2"/>
      <point x="320" y="4" type="curve" smooth="yes"/>
      <point x="320" y="8"/>
      <point x="318" y="10"/>
      <point x="312" y="10" type="curve" smooth="yes"/>
      <point x="232" y="20" type="line" smooth="yes"/>
      <point x="216" y="22"/>
      <point x="208" y="30"/>
      <point x="208" y="42" type="curve" smooth="yes"/>
      <point x="208" y="1422" type="line" smooth="yes"/>
      <point x="208" y="1426"/>
      <point x="206" y="1430"/>
      <point x="202" y="1430" type="curve" smooth="yes"/>
      <point x="200" y="1430"/>
      <point x="198" y="1430"/>
      <point x="192" y="1428" type="curve" smooth="yes"/>
      <point x="44" y="1386" type="line" smooth="yes"/>
      <point x="40" y="1384"/>
      <point x="38" y="1384"/>
      <point x="38" y="1380" type="curve" smooth="yes"/>
      <point x="38" y="1378"/>
      <point x="40" y="1376"/>
      <point x="42" y="1376" type="curve" smooth="yes"/>
      <point x="146" y="1376" type="line" smooth="yes"/>
      <point x="152" y="1376"/>
      <point x="154" y="1372"/>
      <point x="154" y="1368" type="curve" smooth="yes"/>
      <point x="154" y="40" type="line" smooth="yes"/>
      <point x="154" y="30"/>
      <point x="146" y="22"/>
      <point x="130" y="20" type="curve" smooth="yes"/>
      <point x="52" y="12" type="line" smooth="yes"/>
      <point x="42" y="10"/>
      <point x="38" y="6"/>
      <point x="38" y="4" type="curve" smooth="yes"/>
      <point x="38" y="2"/>
      <point x="40" y="0"/>
    </contour>
    <contour>
      <point x="192" y="327" type="line"/>
      <point x="196" y="320" type="line"/>
      <point x="613" y="746" type="line" smooth="yes"/>
      <point x="668" y="803"/>
      <point x="733" y="833"/>
      <point x="788" y="838" type="curve" smooth="yes"/>
      <point x="798" y="839"/>
      <point x="802" y="841"/>
      <point x="802" y="845" type="curve" smooth="yes"/>
      <point x="802" y="848"/>
      <point x="800" y="850"/>
      <point x="792" y="850" type="curve" smooth="yes"/>
      <point x="558" y="850" type="line" smooth="yes"/>
      <point x="552" y="850"/>
      <point x="550" y="848"/>
      <point x="550" y="845" type="curve" smooth="yes"/>
      <point x="550" y="841"/>
      <point x="552" y="839"/>
      <point x="558" y="839" type="curve" smooth="yes"/>
      <point x="621" y="837"/>
      <point x="636" y="828"/>
      <point x="636" y="805" type="curve" smooth="yes"/>
      <point x="636" y="790"/>
      <point x="626" y="773"/>
      <point x="604" y="750" type="curve" smooth="yes"/>
    </contour>
    <contour>
      <point x="425" y="560" type="line"/>
      <point x="389" y="521" type="line"/>
      <point x="642" y="81" type="line" smooth="yes"/>
      <point x="652" y="64"/>
      <point x="657" y="55"/>
      <point x="657" y="41" type="curve" smooth="yes"/>
      <point x="657" y="21"/>
      <point x="644" y="13"/>
      <point x="566" y="10" type="curve" smooth="yes"/>
      <point x="560" y="10"/>
      <point x="556" y="7"/>
      <point x="556" y="4" type="curve" smooth="yes"/>
      <point x="556" y="1"/>
      <point x="558" y="0"/>
      <point x="561" y="0" type="curve" smooth="yes"/>
      <point x="827" y="0" type="line" smooth="yes"/>
      <point x="831" y="0"/>
      <point x="832" y="2"/>
      <point x="832" y="4" type="curve" smooth="yes"/>
      <point x="832" y="7"/>
      <point x="831" y="9"/>
      <point x="823" y="10" type="curve" smooth="yes"/>
      <point x="765" y="17"/>
      <point x="736" y="31"/>
      <point x="705" y="84" type="curve" smooth="yes"/>
    </contour>
  </outline>
</glyph>
<glyph name="l" format="2">
  <advance width="364"/>
  <unicode hex="006C"/>
  <outline>
    <contour>
      <point x="210.0" y="1422.0" type="line" smooth="yes"/>
      <point x="210.0" y="1426.0"/>
      <point x="208.0" y="1430.0"/>
      <point x="204.0" y="1430.0" type="curve" smooth="yes"/>
      <point x="202.0" y="1430.0"/>
      <point x="200.0" y="1430.0"/>
      <point x="194.0" y="1428.0" type="curve" smooth="yes"/>
      <point x="46.0" y="1386.0" type="line" smooth="yes"/>
      <point x="42.0" y="1384.0"/>
      <point x="40.0" y="1384.0"/>
      <point x="40.0" y="1380.0" type="curve" smooth="yes"/>
      <point x="40.0" y="1378.0"/>
      <point x="42.0" y="1376.0"/>
      <point x="44.0" y="1376.0" type="curve" smooth="yes"/>
      <point x="148.0" y="1376.0" type="line" smooth="yes"/>
      <point x="154.0" y="1376.0"/>
      <point x="156.0" y="1372.0"/>
      <point x="156.0" y="1368.0" type="curve" smooth="yes"/>
      <point x="156.0" y="40.0" type="line" smooth="yes"/>
      <point x="156.0" y="30.0"/>
      <point x="148.0" y="22.0"/>
      <point x="132.0" y="20.0" type="curve" smooth="yes"/>
      <point x="54.0" y="12.0" type="line" smooth="yes"/>
      <point x="44.0" y="10.0"/>
      <point x="40.0" y="6.0"/>
      <point x="40.0" y="4.0" type="curve" smooth="yes"/>
      <point x="40.0" y="2.0"/>
      <point x="42.0" y="0.0"/>
      <point x="44.0" y="0.0" type="curve" smooth="yes"/>
      <point x="316.0" y="0.0" type="line" smooth="yes"/>
      <point x="320.0" y="0.0"/>
      <point x="322.0" y="2.0"/>
      <point x="322.0" y="4.0" type="curve" smooth="yes"/>
      <point x="322.0" y="8.0"/>
      <point x="320.0" y="10.0"/>
      <point x="314.0" y="10.0" type="curve" smooth="yes"/>
      <point x="234.0" y="20.0" type="line" smooth="yes"/>
      <point x="218.0" y="22.0"/>
      <point x="210.0" y="30.0"/>
      <point x="210.0" y="42.0" type="curve" smooth="yes"/>
    </contour>
  </outline>
</glyph>
<glyph name="m" format="2">
  <advance width="1442"/>
  <unicode hex="006D"/>
  <outline>
    <contour>
      <point x="214" y="852" type="line" smooth="yes"/>
      <point x="214" y="856"/>
      <point x="212" y="860"/>
      <point x="208" y="860" type="curve" smooth="yes"/>
      <point x="207" y="860"/>
      <point x="204" y="860"/>
      <point x="198" y="858" type="curve" smooth="yes"/>
      <point x="50" y="816" type="line" smooth="yes"/>
      <point x="46" y="814"/>
      <point x="44" y="814"/>
      <point x="44" y="810" type="curve" smooth="yes"/>
      <point x="44" y="808"/>
      <point x="46" y="806"/>
      <point x="48" y="806" type="curve" smooth="yes"/>
      <point x="152" y="806" type="line" smooth="yes"/>
      <point x="158" y="806"/>
      <point x="160" y="802"/>
      <point x="160" y="798" type="curve" smooth="yes"/>
      <point x="160" y="40" type="line" smooth="yes"/>
      <point x="160" y="30"/>
      <point x="152" y="22"/>
      <point x="136" y="20" type="curve" smooth="yes"/>
      <point x="50" y="8" type="line" smooth="yes"/>
      <point x="46" y="7"/>
      <point x="44" y="5"/>
      <point x="44" y="4" type="curve" smooth="yes"/>
      <point x="44" y="2"/>
      <point x="46" y="0"/>
      <point x="48" y="0" type="curve" smooth="yes"/>
      <point x="320" y="0" type="line" smooth="yes"/>
      <point x="324" y="0"/>
      <point x="326" y="2"/>
      <point x="326" y="4" type="curve" smooth="yes"/>
      <point x="326" y="8"/>
      <point x="324" y="10"/>
      <point x="318" y="10" type="curve" smooth="yes"/>
      <point x="238" y="20" type="line" smooth="yes"/>
      <point x="222" y="22"/>
      <point x="214" y="30"/>
      <point x="214" y="42" type="curve" smooth="yes"/>
    </contour>
    <contour>
      <point x="206" y="698" type="line" smooth="yes"/>
      <point x="236" y="726" type="line" smooth="yes"/>
      <point x="328" y="812"/>
      <point x="408" y="844"/>
      <point x="488" y="844" type="curve" smooth="yes"/>
      <point x="618" y="844"/>
      <point x="710" y="768"/>
      <point x="710" y="596" type="curve" smooth="yes"/>
      <point x="710" y="56" type="line" smooth="yes"/>
      <point x="710" y="40"/>
      <point x="704" y="24"/>
      <point x="678" y="20" type="curve" smooth="yes"/>
      <point x="594" y="10" type="line" smooth="yes"/>
      <point x="588" y="10"/>
      <point x="584" y="8"/>
      <point x="584" y="4" type="curve" smooth="yes"/>
      <point x="584" y="2"/>
      <point x="588" y="0"/>
      <point x="592" y="0" type="curve" smooth="yes"/>
      <point x="868" y="0" type="line" smooth="yes"/>
      <point x="872" y="0"/>
      <point x="874" y="2"/>
      <point x="874" y="4" type="curve" smooth="yes"/>
      <point x="874" y="6"/>
      <point x="872" y="8"/>
      <point x="868" y="8" type="curve" smooth="yes"/>
      <point x="804" y="16" type="line" smooth="yes"/>
      <point x="778" y="20"/>
      <point x="764" y="34"/>
      <point x="764" y="56" type="curve" smooth="yes"/>
      <point x="764" y="600" type="line" smooth="yes"/>
      <point x="764" y="780"/>
      <point x="658" y="870"/>
      <point x="516" y="870" type="curve" smooth="yes"/>
      <point x="428" y="870"/>
      <point x="354" y="844"/>
      <point x="232" y="730" type="curve" smooth="yes"/>
      <point x="202" y="702" type="line"/>
    </contour>
    <contour>
      <point x="732" y="676" type="line" smooth="yes"/>
      <point x="786" y="726" type="line" smooth="yes"/>
      <point x="882" y="814"/>
      <point x="952" y="844"/>
      <point x="1010" y="844" type="curve" smooth="yes"/>
      <point x="1110" y="844"/>
      <point x="1172" y="776"/>
      <point x="1194" y="636" type="curve" smooth="yes"/>
      <point x="1284" y="52" type="line" smooth="yes"/>
      <point x="1286" y="36"/>
      <point x="1278" y="18"/>
      <point x="1252" y="16" type="curve" smooth="yes"/>
      <point x="1188" y="10" type="line" smooth="yes"/>
      <point x="1182" y="10"/>
      <point x="1178" y="8"/>
      <point x="1178" y="4" type="curve" smooth="yes"/>
      <point x="1178" y="2"/>
      <point x="1182" y="0"/>
      <point x="1186" y="0" type="curve" smooth="yes"/>
      <point x="1416" y="0" type="line" smooth="yes"/>
      <point x="1420" y="0"/>
      <point x="1422" y="2"/>
      <point x="1422" y="4" type="curve" smooth="yes"/>
      <point x="1422" y="6"/>
      <point x="1420" y="8"/>
      <point x="1416" y="8" type="curve" smooth="yes"/>
      <point x="1378" y="12" type="line" smooth="yes"/>
      <point x="1352" y="14"/>
      <point x="1342" y="30"/>
      <point x="1338" y="52" type="curve" smooth="yes"/>
      <point x="1248" y="640" type="line" smooth="yes"/>
      <point x="1224" y="792"/>
      <point x="1144" y="870"/>
      <point x="1038" y="870" type="curve" smooth="yes"/>
      <point x="974" y="870"/>
      <point x="910" y="848"/>
      <point x="782" y="730" type="curve" smooth="yes"/>
      <point x="728" y="680" type="line"/>
    </contour>
  </outline>
</glyph>
<glyph name="n" format="2">
  <advance width="892"/>
  <unicode hex="006E"/>
  <outline>
    <contour>
      <point x="214" y="852" type="line" smooth="yes"/>
      <point x="214" y="856"/>
      <point x="212" y="860"/>
      <point x="208" y="860" type="curve" smooth="yes"/>
      <point x="207" y="860"/>
      <point x="204" y="860"/>
      <point x="198" y="858" type="curve" smooth="yes"/>
      <point x="50" y="816" type="line" smooth="yes"/>
      <point x="46" y="814"/>
      <point x="44" y="814"/>
      <point x="44" y="810" type="curve" smooth="yes"/>
      <point x="44" y="808"/>
      <point x="46" y="806"/>
      <point x="48" y="806" type="curve" smooth="yes"/>
      <point x="152" y="806" type="line" smooth="yes"/>
      <point x="158" y="806"/>
      <point x="160" y="802"/>
      <point x="160" y="798" type="curve" smooth="yes"/>
      <point x="160" y="40" type="line" smooth="yes"/>
      <point x="160" y="30"/>
      <point x="152" y="22"/>
      <point x="136" y="20" type="curve" smooth="yes"/>
      <point x="50" y="8" type="line" smooth="yes"/>
      <point x="46" y="7"/>
      <point x="44" y="5"/>
      <point x="44" y="4" type="curve" smooth="yes"/>
      <point x="44" y="2"/>
      <point x="46" y="0"/>
      <point x="48" y="0" type="curve" smooth="yes"/>
      <point x="320" y="0" type="line" smooth="yes"/>
      <point x="324" y="0"/>
      <point x="326" y="2"/>
      <point x="326" y="4" type="curve" smooth="yes"/>
      <point x="326" y="8"/>
      <point x="324" y="10"/>
      <point x="318" y="10" type="curve" smooth="yes"/>
      <point x="238" y="20" type="line" smooth="yes"/>
      <point x="222" y="22"/>
      <point x="214" y="30"/>
      <point x="214" y="42" type="curve" smooth="yes"/>
    </contour>
    <contour>
      <point x="206" y="698" type="line" smooth="yes"/>
      <point x="236" y="726" type="line" smooth="yes"/>
      <point x="330" y="814"/>
      <point x="402" y="844"/>
      <point x="460" y="844" type="curve" smooth="yes"/>
      <point x="560" y="844"/>
      <point x="622" y="776"/>
      <point x="644" y="636" type="curve" smooth="yes"/>
      <point x="734" y="52" type="line" smooth="yes"/>
      <point x="736" y="36"/>
      <point x="728" y="18"/>
      <point x="702" y="16" type="curve" smooth="yes"/>
      <point x="638" y="10" type="line" smooth="yes"/>
      <point x="632" y="10"/>
      <point x="628" y="8"/>
      <point x="628" y="4" type="curve" smooth="yes"/>
      <point x="628" y="2"/>
      <point x="632" y="0"/>
      <point x="636" y="0" type="curve" smooth="yes"/>
      <point x="866" y="0" type="line" smooth="yes"/>
      <point x="870" y="0"/>
      <point x="872" y="2"/>
      <point x="872" y="4" type="curve" smooth="yes"/>
      <point x="872" y="6"/>
      <point x="870" y="8"/>
      <point x="866" y="8" type="curve" smooth="yes"/>
      <point x="828" y="12" type="line" smooth="yes"/>
      <point x="802" y="14"/>
      <point x="792" y="30"/>
      <point x="788" y="52" type="curve" smooth="yes"/>
      <point x="698" y="640" type="line" smooth="yes"/>
      <point x="674" y="792"/>
      <point x="594" y="870"/>
      <point x="488" y="870" type="curve" smooth="yes"/>
      <point x="424" y="870"/>
      <point x="358" y="848"/>
      <point x="232" y="730" type="curve" smooth="yes"/>
      <point x="202" y="702" type="line"/>
    </contour>
  </outline>
</glyph>
<glyph name="p" format="2">
  <advance width="944"/>
  <unicode hex="0070"/>
  <outline>
    <contour>
      <point x="194.0" y="872.0" type="line" smooth="yes"/>
      <point x="194.0" y="870.0"/>
      <point x="190.0" y="872.0"/>
      <point x="184.0" y="872.0" type="curve" smooth="yes"/>
      <point x="180.0" y="872.0"/>
      <point x="176.0" y="872.0"/>
      <point x="170.0" y="866.0" type="curve" smooth="yes"/>
      <point x="16.0" y="786.0" type="line" smooth="yes"/>
      <point x="12.0" y="782.0"/>
      <point x="6.0" y="780.0"/>
      <point x="6.0" y="778.0" type="curve" smooth="yes"/>
      <point x="6.0" y="786.0"/>
      <point x="4.0" y="790.0"/>
      <point x="-2.0" y="790.0" type="curve" smooth="yes"/>
      <point x="94.0" y="790.0" type="line" smooth="yes"/>
      <point x="118.0" y="790.0"/>
      <point x="132.0" y="786.0"/>
      <point x="132.0" y="772.0" type="curve" smooth="yes"/>
      <point x="132.0" y="-402.0" type="line" smooth="yes"/>
      <point x="132.0" y="-422.0"/>
      <point x="122.0" y="-444.0"/>
      <point x="94.0" y="-448.0" type="curve" smooth="yes"/>
      <point x="22.0" y="-466.0" type="line" smooth="yes"/>
      <point x="14.0" y="-464.0"/>
      <point x="14.0" y="-466.0"/>
      <point x="14.0" y="-470.0" type="curve" smooth="yes"/>
      <point x="14.0" y="-472.0"/>
      <point x="14.0" y="-472.0"/>
      <point x="20.0" y="-472.0" type="curve" smooth="yes"/>
      <point x="350.0" y="-472.0" type="line" smooth="yes"/>
      <point x="354.0" y="-472.0"/>
      <point x="356.0" y="-472.0"/>
      <point x="356.0" y="-472.0" type="curve" smooth="yes"/>
      <point x="356.0" y="-470.0"/>
      <point x="358.0" y="-466.0"/>
      <point x="352.0" y="-470.0" type="curve" smooth="yes"/>
      <point x="234.0" y="-446.0" type="line" smooth="yes"/>
      <point x="208.0" y="-446.0"/>
      <point x="194.0" y="-426.0"/>
      <point x="194.0" y="-398.0" type="curve" smooth="yes"/>
    </contour>
    <contour>
      <point x="204.0" y="678.0" type="line"/>
      <point x="336.0" y="798.0"/>
      <point x="408.0" y="838.0"/>
      <point x="490.0" y="838.0" type="curve" smooth="yes"/>
      <point x="666.0" y="838.0"/>
      <point x="820.0" y="698.0"/>
      <point x="820.0" y="398.0" type="curve" smooth="yes"/>
      <point x="820.0" y="126.0"/>
      <point x="678.0" y="-22.0"/>
      <point x="510.0" y="-22.0" type="curve" smooth="yes"/>
      <point x="374.0" y="-22.0"/>
      <point x="286.0" y="24.0"/>
      <point x="226.0" y="120.0" type="curve"/>
      <point x="198.0" y="128.0" type="line"/>
      <point x="274.0" y="22.0"/>
      <point x="342.0" y="-22.0"/>
      <point x="470.0" y="-22.0" type="curve" smooth="yes"/>
      <point x="682.0" y="-22.0"/>
      <point x="888.0" y="182.0"/>
      <point x="888.0" y="464.0" type="curve" smooth="yes"/>
      <point x="888.0" y="720.0"/>
      <point x="738.0" y="872.0"/>
      <point x="578.0" y="872.0" type="curve" smooth="yes"/>
      <point x="438.0" y="872.0"/>
      <point x="354.0" y="836.0"/>
      <point x="190.0" y="658.0" type="curve"/>
    </contour>
  </outline>
</glyph>
<glyph name="q" format="2">
  <advance width="878"/>
  <unicode hex="0071"/>
  <outline>
    <contour>
      <point x="560" y="-472" type="curve" smooth="yes"/>
      <point x="871" y="-472" type="line" smooth="yes"/>
      <point x="875" y="-472"/>
      <point x="878" y="-470"/>
      <point x="878" y="-467" type="curve" smooth="yes"/>
      <point x="878" y="-463"/>
      <point x="876" y="-462"/>
      <point x="870" y="-461" type="curve" smooth="yes"/>
      <point x="792" y="-452" type="line" smooth="yes"/>
      <point x="775" y="-450"/>
      <point x="764" y="-438"/>
      <point x="764" y="-421" type="curve" smooth="yes"/>
      <point x="764" y="858" type="line" smooth="yes"/>
      <point x="764" y="864"/>
      <point x="763" y="866"/>
      <point x="760" y="866" type="curve" smooth="yes"/>
      <point x="758" y="866"/>
      <point x="756" y="864"/>
      <point x="755" y="861" type="curve" smooth="yes"/>
      <point x="710" y="740" type="line"/>
      <point x="710" y="-417" type="line" smooth="yes"/>
      <point x="710" y="-438"/>
      <point x="700" y="-447"/>
      <point x="670" y="-450" type="curve" smooth="yes"/>
      <point x="560" y="-461" type="line" smooth="yes"/>
      <point x="556" y="-461"/>
      <point x="552" y="-463"/>
      <point x="552" y="-466" type="curve" smooth="yes"/>
      <point x="552" y="-470"/>
      <point x="555" y="-472"/>
    </contour>
    <contour>
      <point x="732" y="154" type="curve"/>
      <point x="728" y="160" type="line"/>
      <point x="651" y="56"/>
      <point x="548" y="2"/>
      <point x="452" y="2" type="curve" smooth="yes"/>
      <point x="238" y="2"/>
      <point x="110" y="165"/>
      <point x="110" y="440" type="curve" smooth="yes"/>
      <point x="110" y="695"/>
      <point x="250" y="865"/>
      <point x="456" y="865" type="curve" smooth="yes"/>
      <point x="597" y="865"/>
      <point x="668" y="805"/>
      <point x="719" y="718" type="curve"/>
      <point x="723" y="723" type="line"/>
      <point x="676" y="812"/>
      <point x="589" y="872"/>
      <point x="450" y="872" type="curve" smooth="yes"/>
      <point x="225" y="872"/>
      <point x="54" y="661"/>
      <point x="54" y="392" type="curve" smooth="yes"/>
      <point x="54" y="150"/>
      <point x="203" y="-20"/>
      <point x="402" y="-20" type="curve" smooth="yes"/>
      <point x="551" y="-20"/>
      <point x="660" y="52"/>
    </contour>
  </outline>
</glyph>
<glyph name="r" format="2">
  <advance width="600"/>
  <unicode hex="0072"/>
  <outline>
    <contour>
      <point x="204.0" y="438.0" type="curve"/>
      <point x="210.0" y="438.0" type="line"/>
      <point x="210.0" y="704.0"/>
      <point x="328.0" y="848.0"/>
      <point x="430.0" y="848.0" type="curve" smooth="yes"/>
      <point x="486.0" y="848.0"/>
      <point x="508.0" y="824.0"/>
      <point x="508.0" y="766.0" type="curve" smooth="yes"/>
      <point x="508.0" y="744.0" type="line" smooth="yes"/>
      <point x="508.0" y="712.0"/>
      <point x="526.0" y="700.0"/>
      <point x="546.0" y="700.0" type="curve" smooth="yes"/>
      <point x="566.0" y="700.0"/>
      <point x="582.0" y="718.0"/>
      <point x="582.0" y="750.0" type="curve" smooth="yes"/>
      <point x="582.0" y="816.0"/>
      <point x="532.0" y="870.0"/>
      <point x="448.0" y="870.0" type="curve" smooth="yes"/>
      <point x="328.0" y="870.0"/>
      <point x="204.0" y="724.0"/>
    </contour>
    <contour>
      <point x="210.0" y="852.0" type="line" smooth="yes"/>
      <point x="210.0" y="856.0"/>
      <point x="208.0" y="860.0"/>
      <point x="204.0" y="860.0" type="curve" smooth="yes"/>
      <point x="202.0" y="860.0"/>
      <point x="200.0" y="860.0"/>
      <point x="194.0" y="858.0" type="curve" smooth="yes"/>
      <point x="46.0" y="816.0" type="line" smooth="yes"/>
      <point x="42.0" y="814.0"/>
      <point x="40.0" y="814.0"/>
      <point x="40.0" y="810.0" type="curve" smooth="yes"/>
      <point x="40.0" y="808.0"/>
      <point x="42.0" y="806.0"/>
      <point x="44.0" y="806.0" type="curve" smooth="yes"/>
      <point x="148.0" y="806.0" type="line" smooth="yes"/>
      <point x="154.0" y="806.0"/>
      <point x="156.0" y="802.0"/>
      <point x="156.0" y="798.0" type="curve" smooth="yes"/>
      <point x="156.0" y="40.0" type="line" smooth="yes"/>
      <point x="156.0" y="30.0"/>
      <point x="148" y="22"/>
      <point x="132.0" y="20.0" type="curve" smooth="yes"/>
      <point x="51.0" y="11.0" type="line" smooth="yes"/>
      <point x="43.144583655005256" y="10.12717596166725"/>
      <point x="40.0" y="6.5"/>
      <point x="40.0" y="5.0" type="curve" smooth="yes"/>
      <point x="40.0" y="2.5"/>
      <point x="44" y="0"/>
      <point x="47.0" y="0.0" type="curve" smooth="yes"/>
      <point x="336.0" y="0.0" type="line" smooth="yes"/>
      <point x="340.0" y="0.0"/>
      <point x="342.0" y="2.0"/>
      <point x="342.0" y="4.0" type="curve" smooth="yes"/>
      <point x="342.0" y="8.0"/>
      <point x="340" y="9"/>
      <point x="334.0" y="10.0" type="curve" smooth="yes"/>
      <point x="234.0" y="20.0" type="line" smooth="yes"/>
      <point x="218" y="22"/>
      <point x="210.0" y="30.0"/>
      <point x="210.0" y="42.0" type="curve" smooth="yes"/>
      <point x="210.0" y="484.0" type="line"/>
    </contour>
  </outline>
</glyph>
<glyph name="s" format="2">
  <advance width="686"/>
  <unicode hex="0073"/>
  <outline>
    <contour>
      <point x="374.0" y="-10.0" type="curve" smooth="yes"/>
      <point x="280.0" y="-10.0"/>
      <point x="168.0" y="46.0"/>
      <point x="96.0" y="228.0" type="curve" smooth="yes"/>
      <point x="96.0" y="230.0"/>
      <point x="94.0" y="232.0"/>
      <point x="90.0" y="230.0" type="curve" smooth="yes"/>
      <point x="86.0" y="228.0"/>
      <point x="86.0" y="224.0"/>
      <point x="88.0" y="216.0" type="curve" smooth="yes"/>
      <point x="146.0" y="-8.0" type="line" smooth="yes"/>
      <point x="148.0" y="-14.0"/>
      <point x="152.0" y="-14.0"/>
      <point x="154.0" y="-14.0" type="curve" smooth="yes"/>
      <point x="162.0" y="-14.0"/>
      <point x="182.0" y="54.0"/>
      <point x="186.0" y="54.0" type="curve" smooth="yes"/>
      <point x="200.0" y="54.0"/>
      <point x="266.0" y="-18.0"/>
      <point x="372.0" y="-18.0" type="curve" smooth="yes"/>
      <point x="516.0" y="-18.0"/>
      <point x="608.0" y="68.0"/>
      <point x="608.0" y="194.0" type="curve" smooth="yes"/>
      <point x="608.0" y="324.0"/>
      <point x="528.0" y="404.0"/>
      <point x="346.0" y="458.0" type="curve" smooth="yes"/>
      <point x="148.0" y="516.0"/>
      <point x="94.0" y="582.0"/>
      <point x="94.0" y="680.0" type="curve" smooth="yes"/>
      <point x="94.0" y="794.0"/>
      <point x="182.0" y="868.0"/>
      <point x="318.0" y="868.0" type="curve" smooth="yes"/>
      <point x="458.0" y="868.0"/>
      <point x="554.0" y="796.0"/>
      <point x="614.0" y="618.0" type="curve" smooth="yes"/>
      <point x="616.0" y="614.0"/>
      <point x="620.0" y="612.0"/>
      <point x="624.0" y="614.0" type="curve" smooth="yes"/>
      <point x="628.0" y="616.0"/>
      <point x="628.0" y="620.0"/>
      <point x="626.0" y="626.0" type="curve" smooth="yes"/>
      <point x="556.0" y="870.0" type="line" smooth="yes"/>
      <point x="554.0" y="876.0"/>
      <point x="552.0" y="876.0"/>
      <point x="550.0" y="876.0" type="curve" smooth="yes"/>
      <point x="546.0" y="876.0"/>
      <point x="508.0" y="828.0"/>
      <point x="496.0" y="828.0" type="curve" smooth="yes"/>
      <point x="486.0" y="828.0"/>
      <point x="434.0" y="876.0"/>
      <point x="318.0" y="876.0" type="curve" smooth="yes"/>
      <point x="166.0" y="876.0"/>
      <point x="64.0" y="794.0"/>
      <point x="64.0" y="658.0" type="curve" smooth="yes"/>
      <point x="64.0" y="536.0"/>
      <point x="134.0" y="462.0"/>
      <point x="326.0" y="402.0" type="curve" smooth="yes"/>
      <point x="514.0" y="344.0"/>
      <point x="578.0" y="278.0"/>
      <point x="578.0" y="172.0" type="curve" smooth="yes"/>
      <point x="578.0" y="64.0"/>
      <point x="496.0" y="-10.0"/>
    </contour>
  </outline>
</glyph>
<glyph name="t" format="2">
  <advance width="245"/>
  <unicode hex="0074"/>
  <outline>
    <contour>
      <point x="70" y="413" type="line" smooth="yes"/>
      <point x="76" y="412"/>
      <point x="78.0" y="408.0"/>
      <point x="78" y="403" type="curve" smooth="yes"/>
      <point x="78" y="64" type="line" smooth="yes"/>
      <point x="78" y="16"/>
      <point x="108.5974025974026" y="-7.0"/>
      <point x="154" y="-7" type="curve" smooth="yes"/>
      <point x="183" y="-7"/>
      <point x="206" y="7"/>
      <point x="223" y="40" type="curve" smooth="yes"/>
      <point x="224" y="43"/>
      <point x="222" y="44"/>
      <point x="221" y="42" type="curve" smooth="yes"/>
      <point x="209" y="17"/>
      <point x="187" y="3"/>
      <point x="159" y="3" type="curve" smooth="yes"/>
      <point x="125" y="3"/>
      <point x="105" y="25"/>
      <point x="105" y="71" type="curve" smooth="yes"/>
      <point x="105" y="516" type="line" smooth="yes"/>
      <point x="105" y="517"/>
      <point x="104" y="518"/>
      <point x="103" y="518" type="curve" smooth="yes"/>
      <point x="101" y="518"/>
      <point x="101" y="517"/>
      <point x="100" y="515" type="curve" smooth="yes"/>
      <point x="78" y="432" type="line" smooth="yes"/>
      <point x="77" y="427"/>
      <point x="74" y="425"/>
      <point x="66" y="425" type="curve" smooth="yes"/>
      <point x="1" y="425" type="line" smooth="yes"/>
      <point x="0" y="425"/>
      <point x="-1" y="424"/>
      <point x="-1" y="423" type="curve" smooth="yes"/>
      <point x="-1" y="421"/>
      <point x="0" y="420"/>
      <point x="2" y="420" type="curve" smooth="yes"/>
    </contour>
    <contour>
      <point x="91" y="419" type="line"/>
      <point x="214" y="419" type="line" smooth="yes"/>
      <point x="219.0" y="419.0"/>
      <point x="222" y="420"/>
      <point x="222" y="422" type="curve" smooth="yes"/>
      <point x="222.0" y="424.0"/>
      <point x="221" y="425"/>
      <point x="218" y="425" type="curve" smooth="yes"/>
      <point x="91" y="425" type="line"/>
    </contour>
  </outline>
</glyph>
<glyph name="u" format="2">
  <advance width="922"/>
  <unicode hex="0075"/>
  <anchor x="472.0" y="972.0" name="center"/>
  <outline>
    <contour>
      <point x="714.0" y="40.0" type="line" smooth="yes"/>
      <point x="714.0" y="6.0"/>
      <point x="716.0" y="0.0"/>
      <point x="744.0" y="0.0" type="curve" smooth="yes"/>
      <point x="874.0" y="0.0" type="line" smooth="yes"/>
      <point x="878.0" y="0.0"/>
      <point x="880.0" y="2.0"/>
      <point x="880.0" y="4.0" type="curve"/>
      <point x="880.0" y="8.0"/>
      <point x="878.0" y="10.0"/>
      <point x="872.0" y="10.0" type="curve" smooth="yes"/>
      <point x="792.0" y="20.0" type="line" smooth="yes"/>
      <point x="776.0" y="22.0"/>
      <point x="768.0" y="30.0"/>
      <point x="768.0" y="42.0" type="curve" smooth="yes"/>
      <point x="768.0" y="852.0" type="line" smooth="yes"/>
      <point x="768.0" y="856.0"/>
      <point x="766.0" y="860.0"/>
      <point x="762.0" y="860.0" type="curve" smooth="yes"/>
      <point x="760.0" y="860.0"/>
      <point x="758.0" y="860.0"/>
      <point x="752.0" y="858.0" type="curve" smooth="yes"/>
      <point x="604.0" y="816.0" type="line" smooth="yes"/>
      <point x="600.0" y="814.0"/>
      <point x="598.0" y="814.0"/>
      <point x="598.0" y="810.0" type="curve" smooth="yes"/>
      <point x="598.0" y="808.0"/>
      <point x="600.0" y="806.0"/>
      <point x="602.0" y="806.0" type="curve" smooth="yes"/>
      <point x="706.0" y="806.0" type="line" smooth="yes"/>
      <point x="712.0" y="806.0"/>
      <point x="714.0" y="802.0"/>
      <point x="714.0" y="798.0" type="curve" smooth="yes"/>
    </contour>
    <contour>
      <point x="720.0" y="160.0" type="line" smooth="yes"/>
      <point x="690.0" y="132.0" type="line" smooth="yes"/>
      <point x="598.0" y="46.0"/>
      <point x="516.0" y="14.0"/>
      <point x="436.0" y="14.0" type="curve" smooth="yes"/>
      <point x="306.0" y="14.0"/>
      <point x="212.0" y="90.0"/>
      <point x="212.0" y="262.0" type="curve" smooth="yes"/>
      <point x="212.0" y="852.0" type="line" smooth="yes"/>
      <point x="212.0" y="856.0"/>
      <point x="210.0" y="860.0"/>
      <point x="206.0" y="860.0" type="curve" smooth="yes"/>
      <point x="204.0" y="860.0"/>
      <point x="202.0" y="860.0"/>
      <point x="196.0" y="858.0" type="curve" smooth="yes"/>
      <point x="46.0" y="816.0" type="line" smooth="yes"/>
      <point x="42.0" y="814.0"/>
      <point x="40.0" y="814.0"/>
      <point x="40.0" y="810.0" type="curve" smooth="yes"/>
      <point x="40.0" y="808.0"/>
      <point x="42.0" y="806.0"/>
      <point x="44.0" y="806.0" type="curve" smooth="yes"/>
      <point x="148.0" y="806.0" type="line" smooth="yes"/>
      <point x="156.0" y="806.0"/>
      <point x="158.0" y="802.0"/>
      <point x="158.0" y="798.0" type="curve" smooth="yes"/>
      <point x="158.0" y="258.0" type="line" smooth="yes"/>
      <point x="158.0" y="78.0"/>
      <point x="266.0" y="-12.0"/>
      <point x="408.0" y="-12.0" type="curve" smooth="yes"/>
      <point x="496.0" y="-12.0"/>
      <point x="572.0" y="14.0"/>
      <point x="694.0" y="128.0" type="curve" smooth="yes"/>
      <point x="724.0" y="156.0" type="line"/>
    </contour>
  </outline>
</glyph>
<glyph name="v" format="2">
  <advance width="790"/>
  <unicode hex="0076"/>
  <guideline x="1424.0" y="1660.0" angle="0" identifier="UfrvZ9RXAU"/>
  <outline>
    <contour>
      <point x="410.0" y="-4.0" type="line" smooth="yes"/>
      <point x="414.0" y="-4.0"/>
      <point x="416.56135552406835" y="-3.0895637195956223"/>
      <point x="420.0" y="6.0" type="curve" smooth="yes"/>
      <point x="706.0" y="762.0" type="line" smooth="yes"/>
      <point x="720.0" y="796.0"/>
      <point x="740.0" y="822.0"/>
      <point x="764.0" y="830.0" type="curve" smooth="yes"/>
      <point x="788.0" y="838.0" type="line" smooth="yes"/>
      <point x="798.0" y="842.0"/>
      <point x="802.0" y="842.0"/>
      <point x="802.0" y="846.0" type="curve" smooth="yes"/>
      <point x="802.0" y="848.0"/>
      <point x="800.0" y="850.0"/>
      <point x="798.0" y="850.0" type="curve" smooth="yes"/>
      <point x="526.0" y="850.0" type="line" smooth="yes"/>
      <point x="522.0" y="850.0"/>
      <point x="520.0" y="848.0"/>
      <point x="520.0" y="846.0" type="curve" smooth="yes"/>
      <point x="520.0" y="842.0"/>
      <point x="522.0" y="840.0"/>
      <point x="528.0" y="840.0" type="curve" smooth="yes"/>
      <point x="608.0" y="830.0" type="line" smooth="yes"/>
      <point x="686.0" y="820.0"/>
      <point x="692.0" y="792.0"/>
      <point x="674.0" y="742.0" type="curve" smooth="yes"/>
      <point x="416.0" y="46.0" type="line" smooth="yes"/>
      <point x="424.0" y="52.0" type="line"/>
      <point x="160.0" y="742.0" type="line" smooth="yes"/>
      <point x="140.0" y="792.0"/>
      <point x="148.0" y="820.0"/>
      <point x="226.0" y="830.0" type="curve" smooth="yes"/>
      <point x="306.0" y="840.0" type="line" smooth="yes"/>
      <point x="312.0" y="840.0"/>
      <point x="314.0" y="842.0"/>
      <point x="314.0" y="846.0" type="curve" smooth="yes"/>
      <point x="314.0" y="848.0"/>
      <point x="312.0" y="850.0"/>
      <point x="308.0" y="850.0" type="curve" smooth="yes"/>
      <point x="2.0" y="850.0" type="line" smooth="yes"/>
      <point x="0.0" y="850.0"/>
      <point x="-2.0" y="848.0"/>
      <point x="-2.0" y="846.0" type="curve" smooth="yes"/>
      <point x="-2.0" y="842.0"/>
      <point x="2.0" y="842.0"/>
      <point x="12.0" y="838.0" type="curve" smooth="yes"/>
      <point x="36.0" y="830.0" type="line" smooth="yes"/>
      <point x="66.0" y="820.0"/>
      <point x="82.0" y="794.0"/>
      <point x="94.0" y="762.0" type="curve" smooth="yes"/>
      <point x="388.0" y="6.0" type="line" smooth="yes"/>
      <point x="391.48560339677636" y="-2.9629801631391466"/>
      <point x="395.2" y="-4.0"/>
      <point x="400.0" y="-4.0" type="curve" smooth="yes"/>
    </contour>
  </outline>
</glyph>
<glyph name="w" format="2">
  <advance width="1240"/>
  <unicode hex="0077"/>
  <outline>
    <contour>
      <point x="355" y="0" type="line" smooth="yes"/>
      <point x="360" y="0"/>
      <point x="364" y="3"/>
      <point x="366" y="9" type="curve" smooth="yes"/>
      <point x="625" y="763" type="line"/>
      <point x="618" y="775" type="line"/>
      <point x="369" y="56" type="line" smooth="yes"/>
      <point x="374" y="55" type="line"/>
      <point x="157" y="760" type="line" smooth="yes"/>
      <point x="143" y="804"/>
      <point x="153" y="826"/>
      <point x="204" y="833" type="curve" smooth="yes"/>
      <point x="264" y="841" type="line" smooth="yes"/>
      <point x="269" y="842"/>
      <point x="271" y="843"/>
      <point x="271" y="845" type="curve" smooth="yes"/>
      <point x="271" y="848"/>
      <point x="269" y="850"/>
      <point x="265" y="850" type="curve" smooth="yes"/>
      <point x="4" y="850" type="line" smooth="yes"/>
      <point x="1" y="850"/>
      <point x="0" y="848"/>
      <point x="0" y="846" type="curve" smooth="yes"/>
      <point x="0" y="844"/>
      <point x="1" y="842"/>
      <point x="4" y="842" type="curve" smooth="yes"/>
      <point x="26" y="841" type="line" smooth="yes"/>
      <point x="57" y="840"/>
      <point x="72" y="830"/>
      <point x="83" y="796" type="curve" smooth="yes"/>
      <point x="328" y="11" type="line" smooth="yes"/>
      <point x="330" y="3"/>
      <point x="333" y="0"/>
      <point x="341" y="0" type="curve" smooth="yes"/>
    </contour>
    <contour>
      <point x="868" y="0" type="line" smooth="yes"/>
      <point x="874" y="0"/>
      <point x="878" y="4"/>
      <point x="881" y="13" type="curve" smooth="yes"/>
      <point x="1119" y="710" type="line" smooth="yes"/>
      <point x="1145" y="785"/>
      <point x="1166" y="821"/>
      <point x="1207" y="832" type="curve" smooth="yes"/>
      <point x="1232" y="839" type="line" smooth="yes"/>
      <point x="1237" y="840"/>
      <point x="1239" y="842"/>
      <point x="1239" y="845" type="curve" smooth="yes"/>
      <point x="1239" y="848"/>
      <point x="1237" y="850"/>
      <point x="1231" y="850" type="curve" smooth="yes"/>
      <point x="982" y="850" type="line" smooth="yes"/>
      <point x="978" y="850"/>
      <point x="977" y="848"/>
      <point x="977" y="846" type="curve" smooth="yes"/>
      <point x="977" y="843"/>
      <point x="979" y="842"/>
      <point x="984" y="841" type="curve" smooth="yes"/>
      <point x="1059" y="832" type="line" smooth="yes"/>
      <point x="1115" y="825"/>
      <point x="1130" y="789"/>
      <point x="1103" y="708" type="curve" smooth="yes"/>
      <point x="875" y="30" type="line" smooth="yes"/>
      <point x="882" y="29" type="line"/>
      <point x="657" y="773" type="line" smooth="yes"/>
      <point x="649" y="800"/>
      <point x="652" y="819"/>
      <point x="686" y="825" type="curve" smooth="yes"/>
      <point x="770" y="839" type="line" smooth="yes"/>
      <point x="776" y="840"/>
      <point x="778" y="842"/>
      <point x="778" y="845" type="curve" smooth="yes"/>
      <point x="778" y="849"/>
      <point x="776" y="850"/>
      <point x="771" y="850" type="curve" smooth="yes"/>
      <point x="486" y="850" type="line" smooth="yes"/>
      <point x="483" y="850"/>
      <point x="480" y="849"/>
      <point x="480" y="846" type="curve" smooth="yes"/>
      <point x="480" y="843"/>
      <point x="483" y="841"/>
      <point x="490" y="840" type="curve" smooth="yes"/>
      <point x="547" y="832" type="line" smooth="yes"/>
      <point x="572" y="829"/>
      <point x="587" y="813"/>
      <point x="597" y="782" type="curve" smooth="yes"/>
      <point x="832" y="14" type="line" smooth="yes"/>
      <point x="834" y="6"/>
      <point x="840" y="0"/>
      <point x="845" y="0" type="curve" smooth="yes"/>
    </contour>
  </outline>
</glyph>
<glyph name="x" format="2">
  <advance width="769"/>
  <unicode hex="0078"/>
  <outline>
    <contour>
      <point x="377" y="427" type="line"/>
      <point x="153" y="99" type="line" smooth="yes"/>
      <point x="115" y="44"/>
      <point x="63" y="19"/>
      <point x="18" y="16" type="curve" smooth="yes"/>
      <point x="8" y="15"/>
      <point x="5" y="11"/>
      <point x="5" y="7" type="curve" smooth="yes"/>
      <point x="5" y="3"/>
      <point x="10" y="0"/>
      <point x="15" y="0" type="curve" smooth="yes"/>
      <point x="253" y="0" type="line" smooth="yes"/>
      <point x="258" y="0"/>
      <point x="260" y="2"/>
      <point x="260" y="5" type="curve" smooth="yes"/>
      <point x="260" y="8"/>
      <point x="258" y="10"/>
      <point x="253" y="11" type="curve" smooth="yes"/>
      <point x="206" y="22" type="line" smooth="yes"/>
      <point x="160" y="33"/>
      <point x="142" y="65"/>
      <point x="162" y="95" type="curve" smooth="yes"/>
      <point x="383" y="422" type="line"/>
    </contour>
    <contour>
      <point x="188" y="780" type="line" smooth="yes"/>
      <point x="172" y="805"/>
      <point x="179" y="828"/>
      <point x="197" y="830" type="curve" smooth="yes"/>
      <point x="273" y="840" type="line" smooth="yes"/>
      <point x="278" y="841"/>
      <point x="280" y="843"/>
      <point x="280" y="846" type="curve" smooth="yes"/>
      <point x="280" y="849"/>
      <point x="278" y="850"/>
      <point x="274" y="850" type="curve" smooth="yes"/>
      <point x="29" y="850" type="line" smooth="yes"/>
      <point x="25" y="850"/>
      <point x="23" y="848"/>
      <point x="23" y="846" type="curve" smooth="yes"/>
      <point x="23" y="845"/>
      <point x="23" y="843"/>
      <point x="28" y="842" type="curve" smooth="yes"/>
      <point x="66" y="838"/>
      <point x="101" y="826"/>
      <point x="128" y="784" type="curve" smooth="yes"/>
      <point x="368" y="410" type="line"/>
      <point x="370" y="408" type="line"/>
      <point x="601" y="55" type="line" smooth="yes"/>
      <point x="611" y="40"/>
      <point x="607" y="28"/>
      <point x="586" y="24" type="curve" smooth="yes"/>
      <point x="506" y="7" type="line" smooth="yes"/>
      <point x="503" y="6"/>
      <point x="501" y="5"/>
      <point x="501" y="3" type="curve" smooth="yes"/>
      <point x="501" y="1"/>
      <point x="503" y="0"/>
      <point x="505" y="0" type="curve" smooth="yes"/>
      <point x="755" y="0" type="line" smooth="yes"/>
      <point x="758" y="0"/>
      <point x="759" y="2"/>
      <point x="759" y="3" type="curve" smooth="yes"/>
      <point x="759" y="5"/>
      <point x="756" y="8"/>
      <point x="751" y="8" type="curve" smooth="yes"/>
      <point x="714" y="11"/>
      <point x="675" y="27"/>
      <point x="649" y="68" type="curve" smooth="yes"/>
      <point x="411" y="435" type="line"/>
      <point x="409" y="438" type="line"/>
    </contour>
    <contour>
      <point x="409" y="432" type="line"/>
      <point x="631" y="765" type="line" smooth="yes"/>
      <point x="662" y="811"/>
      <point x="690" y="829"/>
      <point x="752" y="838" type="curve" smooth="yes"/>
      <point x="762" y="839"/>
      <point x="764" y="842"/>
      <point x="764" y="845" type="curve" smooth="yes"/>
      <point x="764" y="848"/>
      <point x="762" y="850"/>
      <point x="759" y="850" type="curve" smooth="yes"/>
      <point x="509" y="850" type="line" smooth="yes"/>
      <point x="507" y="850"/>
      <point x="505" y="849"/>
      <point x="505" y="846" type="curve" smooth="yes"/>
      <point x="505" y="843"/>
      <point x="508" y="842"/>
      <point x="511" y="841" type="curve" smooth="yes"/>
      <point x="585" y="826" type="line" smooth="yes"/>
      <point x="623" y="818"/>
      <point x="632" y="785"/>
      <point x="609" y="750" type="curve" smooth="yes"/>
      <point x="404" y="438" type="line"/>
    </contour>
  </outline>
</glyph>
<glyph name="y" format="2">
  <advance width="788"/>
  <unicode hex="0079"/>
  <anchor x="424.0" y="948.0" name="center"/>
  <outline>
    <contour>
      <point x="412.0" y="64.0" type="line"/>
      <point x="126.0" y="796.0" type="line" smooth="yes"/>
      <point x="126.0" y="800.0"/>
      <point x="122.0" y="812.0"/>
      <point x="122.0" y="828.0" type="curve" smooth="yes"/>
      <point x="122.0" y="836.0"/>
      <point x="130.0" y="840.0"/>
      <point x="152.0" y="840.0" type="curve" smooth="yes"/>
      <point x="248.0" y="866.0" type="line" smooth="yes"/>
      <point x="264.0" y="866.0"/>
      <point x="268.0" y="862.0"/>
      <point x="268.0" y="856.0" type="curve" smooth="yes"/>
      <point x="268.0" y="854.0"/>
      <point x="266.0" y="850.0"/>
      <point x="256.0" y="850.0" type="curve" smooth="yes"/>
      <point x="20.0" y="850.0" type="line" smooth="yes"/>
      <point x="4.0" y="850.0"/>
      <point x="-6.0" y="850.0"/>
      <point x="-6.0" y="854.0" type="curve" smooth="yes"/>
      <point x="-6.0" y="852.0"/>
      <point x="-4.0" y="852.0"/>
      <point x="-6.0" y="854.0" type="curve" smooth="yes"/>
      <point x="38.0" y="842.0"/>
      <point x="60.0" y="816.0"/>
      <point x="82.0" y="758.0" type="curve" smooth="yes"/>
      <point x="382.0" y="-30.0" type="line"/>
    </contour>
    <contour>
      <point x="226.0" y="-372.0" type="line" smooth="yes"/>
      <point x="206.0" y="-424.0"/>
      <point x="186.0" y="-434.0"/>
      <point x="148.0" y="-434.0" type="curve" smooth="yes"/>
      <point x="122.0" y="-434.0"/>
      <point x="110.0" y="-414.0"/>
      <point x="84.0" y="-372.0" type="curve" smooth="yes"/>
      <point x="76.0" y="-368.0" type="line" smooth="yes"/>
      <point x="52.0" y="-340.0"/>
      <point x="42.0" y="-336.0"/>
      <point x="32.0" y="-336.0" type="curve" smooth="yes"/>
      <point x="-8.0" y="-336.0"/>
      <point x="-28.0" y="-360.0"/>
      <point x="-28.0" y="-386.0" type="curve" smooth="yes"/>
      <point x="-28.0" y="-446.0"/>
      <point x="20.0" y="-490.0"/>
      <point x="88.0" y="-490.0" type="curve" smooth="yes"/>
      <point x="144.0" y="-490.0"/>
      <point x="198.0" y="-468.0"/>
      <point x="242.0" y="-358.0" type="curve" smooth="yes"/>
      <point x="698.0" y="776.0" type="line" smooth="yes"/>
      <point x="734.0" y="870.0"/>
      <point x="748.0" y="874.0"/>
      <point x="790.0" y="880.0" type="curve" smooth="yes"/>
      <point x="792.0" y="870.0"/>
      <point x="794.0" y="860.0"/>
      <point x="794.0" y="870.0" type="curve" smooth="yes"/>
      <point x="794.0" y="852.0"/>
      <point x="798.0" y="850.0"/>
      <point x="792.0" y="850.0" type="curve" smooth="yes"/>
      <point x="522.0" y="850.0" type="line" smooth="yes"/>
      <point x="526.0" y="850.0"/>
      <point x="522.0" y="858.0"/>
      <point x="522.0" y="856.0" type="curve" smooth="yes"/>
      <point x="522.0" y="860.0"/>
      <point x="524.0" y="856.0"/>
      <point x="540.0" y="864.0" type="curve" smooth="yes"/>
      <point x="618.0" y="842.0" type="line" smooth="yes"/>
      <point x="654.0" y="842.0"/>
      <point x="670.0" y="818.0"/>
      <point x="670.0" y="790.0" type="curve" smooth="yes"/>
      <point x="670.0" y="754.0"/>
      <point x="650.0" y="726.0"/>
      <point x="658.0" y="738.0" type="curve" smooth="yes"/>
    </contour>
  </outline>
</glyph>
<glyph name="z" format="2">
  <advance width="716"/>
  <unicode hex="007A"/>
  <anchor x="404" y="988.0" name="center"/>
  <outline>
    <contour>
      <point x="659" y="839" type="line" smooth="yes"/>
      <point x="661" y="843"/>
      <point x="662" y="845"/>
      <point x="662" y="846" type="curve" smooth="yes"/>
      <point x="662" y="848"/>
      <point x="661" y="850"/>
      <point x="658" y="850" type="curve" smooth="yes"/>
      <point x="166" y="850" type="line" smooth="yes"/>
      <point x="154" y="850"/>
      <point x="149" y="861"/>
      <point x="142" y="861" type="curve" smooth="yes"/>
      <point x="137" y="861"/>
      <point x="135" y="858"/>
      <point x="133" y="851" type="curve" smooth="yes"/>
      <point x="84" y="655" type="line" smooth="yes"/>
      <point x="82" y="646"/>
      <point x="84" y="641"/>
      <point x="89" y="641" type="curve" smooth="yes"/>
      <point x="95" y="641"/>
      <point x="99" y="646"/>
      <point x="100" y="651" type="curve" smooth="yes"/>
      <point x="115" y="703" type="line" smooth="yes"/>
      <point x="143" y="800"/>
      <point x="208" y="844"/>
      <point x="272" y="844" type="curve" smooth="yes"/>
      <point x="612" y="844" type="line"/>
      <point x="610" y="848" type="line"/>
      <point x="64" y="8" type="line" smooth="yes"/>
      <point x="62" y="5"/>
      <point x="62" y="4"/>
      <point x="62" y="3" type="curve" smooth="yes"/>
      <point x="62" y="1"/>
      <point x="63" y="0"/>
      <point x="65" y="0" type="curve" smooth="yes"/>
      <point x="567" y="0" type="line" smooth="yes"/>
      <point x="582" y="0"/>
      <point x="588" y="-20"/>
      <point x="596" y="-20" type="curve" smooth="yes"/>
      <point x="598" y="-20"/>
      <point x="600" y="-19"/>
      <point x="601" y="-15" type="curve" smooth="yes"/>
      <point x="660" y="209" type="line" smooth="yes"/>
      <point x="661" y="213"/>
      <point x="663" y="219"/>
      <point x="660" y="220" type="curve" smooth="yes"/>
      <point x="657" y="221"/>
      <point x="655" y="220"/>
      <point x="653" y="216" type="curve" smooth="yes"/>
      <point x="620" y="138" type="line" smooth="yes"/>
      <point x="572.0537926211422" y="24.672600740881578"/>
      <point x="520.0" y="6"/>
      <point x="423" y="6" type="curve" smooth="yes"/>
      <point x="118" y="6" type="line"/>
      <point x="119" y="4" type="line"/>
    </contour>
  </outline>
</glyph>
<glyph name="asciitilde" format="2">
  <advance width="963"/>
  <unicode hex="007E"/>
  <outline>
    <contour>
      <point x="395" y="803"/>
      <point x="564" y="572"/>
      <point x="722" y="572" type="curve" smooth="yes"/>
      <point x="816" y="572"/>
      <point x="888" y="669"/>
      <point x="888" y="809" type="curve" smooth="yes"/>
      <point x="888" y="819"/>
      <point x="885" y="823"/>
      <point x="880" y="823" type="curve" smooth="yes"/>
      <point x="876" y="823"/>
      <point x="872" y="819"/>
      <point x="872" y="810" type="curve" smooth="yes"/>
      <point x="872" y="679"/>
      <point x="808" y="620"/>
      <point x="730" y="620" type="curve" smooth="yes"/>
      <point x="586" y="620"/>
      <point x="427" y="842"/>
      <point x="264" y="842" type="curve" smooth="yes"/>
      <point x="149" y="842"/>
      <point x="75" y="719"/>
      <point x="75" y="569" type="curve" smooth="yes"/>
      <point x="75" y="564"/>
      <point x="77" y="561"/>
      <point x="80" y="561" type="curve" smooth="yes"/>
      <point x="84" y="561"/>
      <point x="86" y="563"/>
      <point x="86" y="567" type="curve" smooth="yes"/>
      <point x="94" y="708"/>
      <point x="153" y="803"/>
      <point x="260" y="803" type="curve" smooth="yes"/>
    </contour>
  </outline>
</glyph>
<glyph name="exclamdown" format="2">
  <advance width="450"/>
  <unicode hex="00A1"/>
  <outline>
    <contour>
      <point x="222.0" y="-454.0" type="curve" smooth="yes"/>
      <point x="198.0" y="-454.0"/>
      <point x="182.0" y="-428.0"/>
      <point x="182.0" y="-396.0" type="curve" smooth="yes"/>
      <point x="182.0" y="-402.0"/>
      <point x="182.0" y="-412.0"/>
      <point x="178.0" y="-422.0" type="curve" smooth="yes"/>
      <point x="224.0" y="634.0" type="line" smooth="yes"/>
      <point x="222.0" y="636.0"/>
      <point x="222.0" y="636.0"/>
      <point x="224.0" y="636.0" type="curve" smooth="yes"/>
      <point x="222.0" y="636.0"/>
      <point x="224.0" y="632.0"/>
      <point x="222.0" y="632.0" type="curve" smooth="yes"/>
      <point x="268.0" y="-396.0" type="line" smooth="yes"/>
      <point x="266.0" y="-390.0"/>
      <point x="264.0" y="-394.0"/>
      <point x="264.0" y="-392.0" type="curve" smooth="yes"/>
      <point x="264.0" y="-440.0"/>
      <point x="260.0" y="-454.0"/>
    </contour>
    <contour>
      <point x="268.22400000000005" y="973.722" type="curve" smooth="yes"/>
      <point x="239.86880000000002" y="973.722"/>
      <point x="216.83020000000002" y="950.6834"/>
      <point x="216.83020000000002" y="920.556" type="curve" smooth="yes"/>
      <point x="216.83020000000002" y="892.2008"/>
      <point x="239.86880000000002" y="870.9344"/>
      <point x="268.22400000000005" y="870.9344" type="curve" smooth="yes"/>
      <point x="298.3514" y="870.9344"/>
      <point x="321.39" y="892.2008"/>
      <point x="321.39" y="920.556" type="curve" smooth="yes"/>
      <point x="321.39" y="950.6834"/>
      <point x="298.3514" y="973.722"/>
    </contour>
  </outline>
</glyph>
<glyph name="yen" format="2">
  <advance width="1119"/>
  <unicode hex="00A5"/>
  <outline>
    <contour>
      <point x="159" y="507" type="curve" smooth="yes"/>
      <point x="159" y="505"/>
      <point x="160" y="504"/>
      <point x="163" y="504" type="curve" smooth="yes"/>
      <point x="980" y="504" type="line" smooth="yes"/>
      <point x="983" y="504"/>
      <point x="984" y="505"/>
      <point x="984" y="507" type="curve" smooth="yes"/>
      <point x="984" y="509"/>
      <point x="983" y="511"/>
      <point x="980" y="511" type="curve" smooth="yes"/>
      <point x="163" y="511" type="line" smooth="yes"/>
      <point x="161" y="511"/>
      <point x="159" y="509"/>
    </contour>
    <contour>
      <point x="156" y="742" type="curve" smooth="yes"/>
      <point x="156" y="740"/>
      <point x="157" y="738"/>
      <point x="160" y="738" type="curve" smooth="yes"/>
      <point x="477" y="738" type="line"/>
      <point x="469" y="746" type="line"/>
      <point x="160" y="746" type="line" smooth="yes"/>
      <point x="158" y="746"/>
      <point x="156" y="744"/>
    </contour>
    <contour>
      <point x="689" y="738" type="line"/>
      <point x="977" y="738" type="line" smooth="yes"/>
      <point x="980" y="738"/>
      <point x="981" y="740"/>
      <point x="981" y="742" type="curve" smooth="yes"/>
      <point x="981" y="744"/>
      <point x="980" y="746"/>
      <point x="977" y="746" type="curve" smooth="yes"/>
      <point x="696" y="746" type="line"/>
    </contour>
    <contour>
      <point x="598" y="538" type="line"/>
      <point x="961" y="1279" type="line" smooth="yes"/>
      <point x="988" y="1335"/>
      <point x="1019" y="1375"/>
      <point x="1091" y="1385" type="curve" smooth="yes"/>
      <point x="1112" y="1388" type="line" smooth="yes"/>
      <point x="1117" y="1389"/>
      <point x="1120" y="1392"/>
      <point x="1120" y="1395" type="curve" smooth="yes"/>
      <point x="1120" y="1399"/>
      <point x="1118" y="1400"/>
      <point x="1112" y="1400" type="curve" smooth="yes"/>
      <point x="827" y="1400" type="line" smooth="yes"/>
      <point x="824" y="1400"/>
      <point x="821" y="1399"/>
      <point x="821" y="1395" type="curve" smooth="yes"/>
      <point x="821" y="1393"/>
      <point x="823" y="1391"/>
      <point x="828" y="1390" type="curve" smooth="yes"/>
      <point x="887" y="1378" type="line" smooth="yes"/>
      <point x="962" y="1363"/>
      <point x="978" y="1337"/>
      <point x="949" y="1279" type="curve" smooth="yes"/>
      <point x="589" y="548" type="line"/>
      <point x="593" y="550" type="line"/>
      <point x="196" y="1348" type="line" smooth="yes"/>
      <point x="186" y="1369"/>
      <point x="193" y="1375"/>
      <point x="227" y="1379" type="curve" smooth="yes"/>
      <point x="334" y="1390" type="line" smooth="yes"/>
      <point x="341" y="1391"/>
      <point x="344" y="1392"/>
      <point x="344" y="1397" type="curve" smooth="yes"/>
      <point x="344" y="1399"/>
      <point x="340" y="1400"/>
      <point x="335" y="1400" type="curve" smooth="yes"/>
      <point x="17" y="1400" type="line" smooth="yes"/>
      <point x="12" y="1400"/>
      <point x="9" y="1400"/>
      <point x="9" y="1396" type="curve" smooth="yes"/>
      <point x="9" y="1394"/>
      <point x="11" y="1392"/>
      <point x="16" y="1391" type="curve" smooth="yes"/>
      <point x="84" y="1381" type="line" smooth="yes"/>
      <point x="107" y="1378"/>
      <point x="124" y="1365"/>
      <point x="135" y="1342" type="curve" smooth="yes"/>
      <point x="547" y="520" type="line"/>
    </contour>
    <contour>
      <point x="542" y="534" type="line"/>
      <point x="542" y="51" type="line" smooth="yes"/>
      <point x="542" y="33"/>
      <point x="537" y="27"/>
      <point x="516" y="24" type="curve" smooth="yes"/>
      <point x="395" y="8" type="line" smooth="yes"/>
      <point x="392" y="8"/>
      <point x="390" y="6"/>
      <point x="390" y="4" type="curve" smooth="yes"/>
      <point x="390" y="2"/>
      <point x="392" y="0"/>
      <point x="396" y="0" type="curve" smooth="yes"/>
      <point x="745" y="0" type="line" smooth="yes"/>
      <point x="750" y="0"/>
      <point x="752" y="1"/>
      <point x="752" y="5" type="curve" smooth="yes"/>
      <point x="752" y="7"/>
      <point x="748" y="7"/>
      <point x="743" y="8" type="curve" smooth="yes"/>
      <point x="626" y="24" type="line" smooth="yes"/>
      <point x="606" y="27"/>
      <point x="600" y="33"/>
      <point x="600" y="52" type="curve" smooth="yes"/>
      <point x="600" y="545" type="line"/>
    </contour>
  </outline>
</glyph>
<glyph name="degree" format="2">
  <advance width="653"/>
  <unicode hex="00B0"/>
  <outline>
    <contour>
      <point x="326" y="1420" type="curve" smooth="yes"/>
      <point x="191" y="1420"/>
      <point x="100" y="1311"/>
      <point x="100" y="1172" type="curve" smooth="yes"/>
      <point x="100" y="1030"/>
      <point x="196" y="928"/>
      <point x="326" y="928" type="curve" smooth="yes"/>
      <point x="455" y="928"/>
      <point x="553" y="1026"/>
      <point x="553" y="1170" type="curve" smooth="yes"/>
      <point x="553" y="1317"/>
      <point x="458" y="1420"/>
    </contour>
    <contour>
      <point x="326" y="1410" type="curve" smooth="yes"/>
      <point x="453" y="1410"/>
      <point x="543" y="1309"/>
      <point x="543" y="1169" type="curve" smooth="yes"/>
      <point x="543" y="1032"/>
      <point x="448" y="938"/>
      <point x="326" y="938" type="curve" smooth="yes"/>
      <point x="202" y="938"/>
      <point x="110" y="1033"/>
      <point x="110" y="1172" type="curve" smooth="yes"/>
      <point x="110" y="1306"/>
      <point x="196" y="1410"/>
    </contour>
  </outline>
</glyph>
<glyph name="acute" format="2">
  <advance width="362"/>
  <unicode hex="00B4"/>
  <outline>
    <contour>
      <point x="187" y="1253" type="curve" smooth="yes"/>
      <point x="57" y="1069" type="line" smooth="yes"/>
      <point x="51" y="1060"/>
      <point x="46" y="1048"/>
      <point x="55" y="1041" type="curve" smooth="yes"/>
      <point x="62" y="1035"/>
      <point x="72" y="1037"/>
      <point x="78" y="1042" type="curve" smooth="yes"/>
      <point x="254" y="1199" type="line" smooth="yes"/>
      <point x="282" y="1224"/>
      <point x="307" y="1246"/>
      <point x="311" y="1272" type="curve" smooth="yes"/>
      <point x="315" y="1295"/>
      <point x="301" y="1315"/>
      <point x="275" y="1320" type="curve" smooth="yes"/>
      <point x="241" y="1326"/>
      <point x="219" y="1300"/>
    </contour>
  </outline>
</glyph>
<glyph name="questiondown" format="2">
  <advance width="772"/>
  <unicode hex="00BF"/>
  <outline>
    <contour>
      <point x="466.0" y="368.0" type="line" smooth="yes"/>
      <point x="468.0" y="354.0"/>
      <point x="468.0" y="350.0"/>
      <point x="468.0" y="342.0" type="curve" smooth="yes"/>
      <point x="468.0" y="330.0"/>
      <point x="458.0" y="324.0"/>
      <point x="452.0" y="314.0" type="curve" smooth="yes"/>
      <point x="328.0" y="216.0" type="line" smooth="yes"/>
      <point x="178.0" y="102.0"/>
      <point x="116.0" y="14.0"/>
      <point x="116.0" y="-170.0" type="curve" smooth="yes"/>
      <point x="116.0" y="-386.0"/>
      <point x="208.0" y="-490.0"/>
      <point x="348.0" y="-490.0" type="curve" smooth="yes"/>
      <point x="484.0" y="-490.0"/>
      <point x="560.0" y="-436.0"/>
      <point x="560.0" y="-278.0" type="curve" smooth="yes"/>
      <point x="560.0" y="-264.0" type="line" smooth="yes"/>
      <point x="560.0" y="-222.0"/>
      <point x="590.0" y="-192.0"/>
      <point x="624.0" y="-192.0" type="curve" smooth="yes"/>
      <point x="660.0" y="-192.0"/>
      <point x="686.0" y="-214.0"/>
      <point x="686.0" y="-252.0" type="curve" smooth="yes"/>
      <point x="686.0" y="-368.0"/>
      <point x="564.0" y="-490.0"/>
      <point x="328.0" y="-490.0" type="curve" smooth="yes"/>
      <point x="142.0" y="-490.0"/>
      <point x="38.0" y="-372.0"/>
      <point x="38.0" y="-186.0" type="curve" smooth="yes"/>
      <point x="38.0" y="-42.0"/>
      <point x="116.0" y="94.0"/>
      <point x="314.0" y="206.0" type="curve" smooth="yes"/>
      <point x="348.0" y="222.0" type="line" smooth="yes"/>
      <point x="372.0" y="236.0"/>
      <point x="380.0" y="258.0"/>
      <point x="380.0" y="296.0" type="curve" smooth="yes"/>
      <point x="416.0" y="632.0" type="line" smooth="yes"/>
      <point x="414.0" y="636.0"/>
      <point x="412.0" y="636.0"/>
      <point x="418.0" y="636.0" type="curve" smooth="yes"/>
      <point x="430.0" y="636.0"/>
      <point x="428.0" y="634.0"/>
      <point x="426.0" y="640.0" type="curve" smooth="yes"/>
    </contour>
    <contour>
      <point x="468.22400000000005" y="941.722" type="curve" smooth="yes"/>
      <point x="439.8688" y="941.722"/>
      <point x="416.8302" y="918.6834"/>
      <point x="416.8302" y="888.556" type="curve" smooth="yes"/>
      <point x="416.8302" y="860.2008000000001"/>
      <point x="439.8688" y="838.9344"/>
      <point x="468.22400000000005" y="838.9344" type="curve" smooth="yes"/>
      <point x="498.3514" y="838.9344"/>
      <point x="521.39" y="860.2008000000001"/>
      <point x="521.39" y="888.556" type="curve" smooth="yes"/>
      <point x="521.39" y="918.6834"/>
      <point x="498.3514" y="941.722"/>
    </contour>
  </outline>
</glyph>
<glyph name="dcroat" format="2">
  <advance width="897"/>
  <unicode hex="0111"/>
  <outline>
    <contour>
      <point x="490" y="1102" type="curve" smooth="yes"/>
      <point x="490" y="1100"/>
      <point x="491" y="1099"/>
      <point x="494" y="1099" type="curve" smooth="yes"/>
      <point x="889" y="1099" type="line" smooth="yes"/>
      <point x="891.0" y="1099.0"/>
      <point x="892" y="1100"/>
      <point x="892" y="1102" type="curve" smooth="yes"/>
      <point x="892" y="1104"/>
      <point x="891.0" y="1106.0"/>
      <point x="889" y="1106" type="curve" smooth="yes"/>
      <point x="494" y="1106" type="line" smooth="yes"/>
      <point x="492" y="1106"/>
      <point x="490" y="1104"/>
    </contour>
    <contour>
      <point x="718" y="142" type="line"/>
      <point x="718" y="40" type="line"/>
      <point x="718" y="10"/>
      <point x="729" y="0"/>
      <point x="748" y="0" type="curve" smooth="yes"/>
      <point x="878" y="0" type="line" smooth="yes"/>
      <point x="882" y="0"/>
      <point x="884" y="2"/>
      <point x="884" y="4" type="curve" smooth="yes"/>
      <point x="884" y="8"/>
      <point x="882" y="10"/>
      <point x="876" y="10" type="curve" smooth="yes"/>
      <point x="796" y="20" type="line" smooth="yes"/>
      <point x="780" y="22"/>
      <point x="772" y="30"/>
      <point x="772" y="42" type="curve" smooth="yes"/>
      <point x="774" y="1440" type="line" smooth="yes"/>
      <point x="774" y="1442"/>
      <point x="772" y="1445.0"/>
      <point x="769" y="1445" type="curve" smooth="yes"/>
      <point x="767" y="1445.0"/>
      <point x="766" y="1445"/>
      <point x="764" y="1444" type="curve" smooth="yes"/>
      <point x="722" y="1430" type="line" smooth="yes"/>
      <point x="720" y="1429"/>
      <point x="718.0" y="1427.0"/>
      <point x="718.0" y="1422" type="curve" smooth="yes"/>
    </contour>
    <contour>
      <point x="724" y="152" type="line"/>
      <point x="624" y="44"/>
      <point x="516" y="6"/>
      <point x="434" y="6" type="curve" smooth="yes"/>
      <point x="250" y="6"/>
      <point x="114" y="168"/>
      <point x="114" y="418" type="curve" smooth="yes"/>
      <point x="114" y="692"/>
      <point x="270" y="860"/>
      <point x="448" y="860" type="curve" smooth="yes"/>
      <point x="590" y="860"/>
      <point x="700" y="784"/>
      <point x="760" y="680" type="curve"/>
      <point x="768" y="684" type="line"/>
      <point x="702" y="788"/>
      <point x="594" y="870"/>
      <point x="450" y="870" type="curve" smooth="yes"/>
      <point x="220" y="870"/>
      <point x="60" y="686"/>
      <point x="60" y="408" type="curve" smooth="yes"/>
      <point x="60" y="152"/>
      <point x="220" y="-20"/>
      <point x="412" y="-20" type="curve" smooth="yes"/>
      <point x="516" y="-20"/>
      <point x="602" y="14"/>
      <point x="728" y="148" type="curve"/>
    </contour>
  </outline>
</glyph>
<glyph name="dotlessi" format="2">
  <advance width="171"/>
  <unicode hex="0131"/>
  <outline>
    <contour>
      <point x="105" y="426" type="line" smooth="yes"/>
      <point x="105" y="428"/>
      <point x="104" y="430"/>
      <point x="102" y="430" type="curve" smooth="yes"/>
      <point x="101.375" y="430.0"/>
      <point x="100" y="430"/>
      <point x="97" y="429" type="curve" smooth="yes"/>
      <point x="23" y="408" type="line" smooth="yes"/>
      <point x="21" y="407"/>
      <point x="20" y="407"/>
      <point x="20" y="405" type="curve" smooth="yes"/>
      <point x="20" y="404"/>
      <point x="21" y="403"/>
      <point x="22" y="403" type="curve" smooth="yes"/>
      <point x="74" y="403" type="line" smooth="yes"/>
      <point x="77" y="403"/>
      <point x="78" y="401"/>
      <point x="78" y="399" type="curve" smooth="yes"/>
      <point x="78" y="20" type="line" smooth="yes"/>
      <point x="78" y="15"/>
      <point x="74" y="11"/>
      <point x="66" y="10" type="curve" smooth="yes"/>
      <point x="23" y="4" type="line" smooth="yes"/>
      <point x="20.820695835086575" y="3.695911046756266"/>
      <point x="20.0" y="2.5"/>
      <point x="20" y="2" type="curve" smooth="yes"/>
      <point x="20" y="1"/>
      <point x="21.0" y="0"/>
      <point x="22" y="0" type="curve" smooth="yes"/>
      <point x="158" y="0" type="line" smooth="yes"/>
      <point x="160" y="0"/>
      <point x="161" y="1"/>
      <point x="161" y="2" type="curve" smooth="yes"/>
      <point x="161" y="4"/>
      <point x="160" y="5"/>
      <point x="157" y="5" type="curve" smooth="yes"/>
      <point x="117" y="10" type="line" smooth="yes"/>
      <point x="109" y="11"/>
      <point x="105" y="15"/>
      <point x="105" y="21" type="curve" smooth="yes"/>
    </contour>
  </outline>
</glyph>
<glyph name="primemod" format="2">
  <advance width="298"/>
  <unicode hex="02B9"/>
  <outline>
    <contour>
      <point x="87" y="826" type="curve" smooth="yes"/>
      <point x="91" y="826"/>
      <point x="95" y="829"/>
      <point x="97" y="835" type="curve" smooth="yes"/>
      <point x="277" y="1493" type="line" smooth="yes"/>
      <point x="280" y="1503"/>
      <point x="277" y="1509"/>
      <point x="271" y="1509" type="curve" smooth="yes"/>
      <point x="265" y="1509"/>
      <point x="262" y="1506"/>
      <point x="259" y="1496" type="curve" smooth="yes"/>
      <point x="81" y="838" type="line" smooth="yes"/>
      <point x="79" y="831"/>
      <point x="82" y="826"/>
    </contour>
  </outline>
</glyph>
<glyph name="dotaccent" format="2">
  <advance width="286"/>
  <unicode hex="02D9"/>
  <outline>
    <contour>
      <point x="142.0" y="1020.0" type="curve" smooth="yes"/>
      <point x="176.0" y="1020.0"/>
      <point x="206.0" y="1050.0"/>
      <point x="206.0" y="1082.0" type="curve" smooth="yes"/>
      <point x="206.0" y="1116.0"/>
      <point x="176.0" y="1146.0"/>
      <point x="142.0" y="1146.0" type="curve" smooth="yes"/>
      <point x="110.0" y="1146.0"/>
      <point x="80.0" y="1116.0"/>
      <point x="80.0" y="1082.0" type="curve" smooth="yes"/>
      <point x="80.0" y="1050.0"/>
      <point x="110.0" y="1020.0"/>
    </contour>
  </outline>
</glyph>
<glyph name="ogonek" format="2">
  <advance width="408"/>
  <unicode hex="02DB"/>
  <guideline x="940" y="-291" angle="90" identifier="5jasziTm92"/>
  <outline>
    <contour>
      <point x="270" y="39" type="line"/>
      <point x="126.90331462286335" y="-38.5946815073206"/>
      <point x="50.0" y="-157.46511627906978"/>
      <point x="50" y="-269" type="curve" smooth="yes"/>
      <point x="50.0" y="-366.7888198757764"/>
      <point x="116.0" y="-433.0"/>
      <point x="215" y="-433" type="curve" smooth="yes"/>
      <point x="299" y="-433"/>
      <point x="355" y="-374"/>
      <point x="358" y="-323" type="curve" smooth="yes"/>
      <point x="359" y="-307"/>
      <point x="350" y="-301"/>
      <point x="342" y="-301" type="curve" smooth="yes"/>
      <point x="332" y="-301"/>
      <point x="327" y="-305"/>
      <point x="320" y="-318" type="curve" smooth="yes"/>
      <point x="299" y="-361"/>
      <point x="260" y="-380"/>
      <point x="220" y="-380" type="curve" smooth="yes"/>
      <point x="164.0" y="-380.0"/>
      <point x="119.0" y="-340.9821428571429"/>
      <point x="119" y="-265" type="curve" smooth="yes"/>
      <point x="119.0" y="-157.15116279069767"/>
      <point x="180.73472663315732" y="-70.81256087778888"/>
      <point x="291" y="0" type="curve"/>
    </contour>
  </outline>
</glyph>
<glyph name="emdash" format="2">
  <advance width="1824"/>
  <unicode hex="2014"/>
  <outline>
    <contour>
      <point x="70" y="252" type="curve" smooth="yes"/>
      <point x="70" y="240"/>
      <point x="78" y="232"/>
      <point x="96" y="232" type="curve" smooth="yes"/>
      <point x="1728" y="232" type="line" smooth="yes"/>
      <point x="1744" y="232"/>
      <point x="1754" y="240"/>
      <point x="1754" y="252" type="curve" smooth="yes"/>
      <point x="1754" y="263"/>
      <point x="1743" y="272"/>
      <point x="1728" y="272" type="curve" smooth="yes"/>
      <point x="98" y="272" type="line" smooth="yes"/>
      <point x="82" y="272"/>
      <point x="70" y="264"/>
    </contour>
  </outline>
</glyph>
<glyph name="minute" format="2">
  <advance width="354"/>
  <unicode hex="2032"/>
  <outline>
    <contour>
      <point x="86" y="824" type="curve" smooth="yes"/>
      <point x="89" y="824"/>
      <point x="93" y="825"/>
      <point x="96" y="832" type="curve" smooth="yes"/>
      <point x="332" y="1484" type="line" smooth="yes"/>
      <point x="338" y="1500"/>
      <point x="332" y="1510"/>
      <point x="318" y="1510" type="curve" smooth="yes"/>
      <point x="304" y="1510"/>
      <point x="296" y="1502"/>
      <point x="290" y="1485" type="curve" smooth="yes"/>
      <point x="81" y="835" type="line" smooth="yes"/>
      <point x="79" y="828"/>
      <point x="82" y="824"/>
    </contour>
  </outline>
</glyph>
<glyph name="guilsinglleft" format="2">
  <advance width="536"/>
  <unicode hex="2039"/>
  <outline>
    <contour>
      <point x="50" y="465" type="curve" smooth="yes"/>
      <point x="50" y="460"/>
      <point x="53" y="453"/>
      <point x="75" y="436" type="curve" smooth="yes"/>
      <point x="220" y="324"/>
      <point x="305" y="250"/>
      <point x="476" y="122" type="curve" smooth="yes"/>
      <point x="480" y="119"/>
      <point x="485" y="116"/>
      <point x="486" y="117" type="curve" smooth="yes"/>
      <point x="487" y="118"/>
      <point x="486" y="120"/>
      <point x="481" y="126" type="curve" smooth="yes"/>
      <point x="397" y="229"/>
      <point x="189" y="413"/>
      <point x="110" y="469" type="curve"/>
      <point x="110" y="461" type="line"/>
      <point x="189" y="517"/>
      <point x="397" y="701"/>
      <point x="481" y="804" type="curve" smooth="yes"/>
      <point x="486" y="810"/>
      <point x="487" y="812"/>
      <point x="486" y="813" type="curve" smooth="yes"/>
      <point x="485" y="814"/>
      <point x="480" y="811"/>
      <point x="476" y="808" type="curve" smooth="yes"/>
      <point x="305" y="680"/>
      <point x="220" y="606"/>
      <point x="75" y="494" type="curve" smooth="yes"/>
      <point x="53" y="477"/>
      <point x="50" y="471"/>
    </contour>
  </outline>
</glyph>
<glyph name="colonmonetary" format="2">
  <advance width="1217"/>
  <unicode hex="20A1"/>
  <outline>
    <contour>
      <point x="517.0" y="-107.0" type="curve" smooth="yes"/>
      <point x="520" y="-108.0"/>
      <point x="521" y="-106"/>
      <point x="522.0" y="-104.0" type="curve" smooth="yes"/>
      <point x="528" y="-84" type="line"/>
      <point x="954" y="1453" type="line"/>
      <point x="959.0" y="1473" type="line" smooth="yes"/>
      <point x="960" y="1475"/>
      <point x="959" y="1477.0"/>
      <point x="957" y="1478" type="curve" smooth="yes"/>
      <point x="955" y="1478.0"/>
      <point x="953" y="1477"/>
      <point x="952.0" y="1475" type="curve" smooth="yes"/>
      <point x="947.0" y="1457.0" type="line"/>
      <point x="521" y="-83" type="line"/>
      <point x="515.0" y="-102.0" type="line" smooth="yes"/>
      <point x="514" y="-104"/>
      <point x="516" y="-107.0"/>
    </contour>
    <contour>
      <point x="353" y="-87.0" type="curve" smooth="yes"/>
      <point x="355" y="-88.0"/>
      <point x="356" y="-86"/>
      <point x="357.0" y="-84.0" type="curve" smooth="yes"/>
      <point x="364.0" y="-58" type="line"/>
      <point x="790" y="1476.0" type="line"/>
      <point x="794.0" y="1493" type="line" smooth="yes"/>
      <point x="795" y="1495"/>
      <point x="794" y="1497.0"/>
      <point x="792" y="1498" type="curve" smooth="yes"/>
      <point x="790" y="1498.0"/>
      <point x="788" y="1497"/>
      <point x="787.0" y="1495" type="curve" smooth="yes"/>
      <point x="782.0" y="1477.0" type="line"/>
      <point x="357.0" y="-57.0" type="line"/>
      <point x="350.0" y="-82.0" type="line" smooth="yes"/>
      <point x="349" y="-84"/>
      <point x="351" y="-87.0"/>
    </contour>
    <contour>
      <point x="918" y="-25"/>
      <point x="1082" y="134"/>
      <point x="1115" y="326" type="curve" smooth="yes"/>
      <point x="1116" y="331"/>
      <point x="1113" y="333"/>
      <point x="1110" y="333" type="curve" smooth="yes"/>
      <point x="1107" y="333"/>
      <point x="1106" y="331"/>
      <point x="1105" y="326" type="curve" smooth="yes"/>
      <point x="1068" y="126"/>
      <point x="932" y="1"/>
      <point x="720" y="1" type="curve" smooth="yes"/>
      <point x="421" y="1"/>
      <point x="201" y="246"/>
      <point x="201" y="708" type="curve" smooth="yes"/>
      <point x="201" y="1162"/>
      <point x="406" y="1410"/>
      <point x="717" y="1410" type="curve" smooth="yes"/>
      <point x="945" y="1410"/>
      <point x="1045" y="1314"/>
      <point x="1058" y="1089" type="curve" smooth="yes"/>
      <point x="1058" y="1084"/>
      <point x="1062" y="1081"/>
      <point x="1065" y="1081" type="curve" smooth="yes"/>
      <point x="1071" y="1081"/>
      <point x="1071" y="1084"/>
      <point x="1072" y="1088" type="curve" smooth="yes"/>
      <point x="1109" y="1240" type="line" smooth="yes"/>
      <point x="1112" y="1251"/>
      <point x="1112" y="1256"/>
      <point x="1106" y="1263" type="curve" smooth="yes"/>
      <point x="1037" y="1348"/>
      <point x="894" y="1420"/>
      <point x="716" y="1420" type="curve" smooth="yes"/>
      <point x="393" y="1420"/>
      <point x="146" y="1146"/>
      <point x="146" y="688" type="curve" smooth="yes"/>
      <point x="146" y="257"/>
      <point x="345" y="-25"/>
      <point x="708" y="-25" type="curve" smooth="yes"/>
    </contour>
  </outline>
</glyph>
<glyph name="Euro" format="2">
  <advance width="1145"/>
  <unicode hex="20AC"/>
  <outline>
    <contour>
      <point x="918" y="-25"/>
      <point x="1082" y="134"/>
      <point x="1115" y="326" type="curve" smooth="yes"/>
      <point x="1116" y="331"/>
      <point x="1113" y="333"/>
      <point x="1110" y="333" type="curve" smooth="yes"/>
      <point x="1107" y="333"/>
      <point x="1106" y="331"/>
      <point x="1105" y="326" type="curve" smooth="yes"/>
      <point x="1068" y="126"/>
      <point x="932" y="1"/>
      <point x="720" y="1" type="curve" smooth="yes"/>
      <point x="421" y="1"/>
      <point x="201" y="246"/>
      <point x="201" y="708" type="curve" smooth="yes"/>
      <point x="201" y="1162"/>
      <point x="406" y="1410"/>
      <point x="717" y="1410" type="curve" smooth="yes"/>
      <point x="945" y="1410"/>
      <point x="1045" y="1314"/>
      <point x="1058" y="1089" type="curve" smooth="yes"/>
      <point x="1058" y="1084"/>
      <point x="1062" y="1081"/>
      <point x="1065" y="1081" type="curve" smooth="yes"/>
      <point x="1071" y="1081"/>
      <point x="1071" y="1084"/>
      <point x="1072" y="1088" type="curve" smooth="yes"/>
      <point x="1109" y="1240" type="line" smooth="yes"/>
      <point x="1112" y="1251"/>
      <point x="1112" y="1256"/>
      <point x="1106" y="1263" type="curve" smooth="yes"/>
      <point x="1037" y="1348"/>
      <point x="894" y="1420"/>
      <point x="716" y="1420" type="curve" smooth="yes"/>
      <point x="393" y="1420"/>
      <point x="146" y="1146"/>
      <point x="146" y="688" type="curve" smooth="yes"/>
      <point x="146" y="257"/>
      <point x="345" y="-25"/>
      <point x="708" y="-25" type="curve" smooth="yes"/>
    </contour>
    <contour>
      <point x="22" y="820" type="curve" smooth="yes"/>
      <point x="22" y="818"/>
      <point x="23" y="817"/>
      <point x="26" y="817" type="curve" smooth="yes"/>
      <point x="994" y="817" type="line" smooth="yes"/>
      <point x="997" y="817"/>
      <point x="999" y="818"/>
      <point x="999" y="820" type="curve" smooth="yes"/>
      <point x="999" y="822"/>
      <point x="997" y="824"/>
      <point x="994" y="824" type="curve" smooth="yes"/>
      <point x="26" y="824" type="line" smooth="yes"/>
      <point x="24" y="824"/>
      <point x="22" y="822"/>
    </contour>
    <contour>
      <point x="25" y="592" type="curve" smooth="yes"/>
      <point x="25" y="590"/>
      <point x="26" y="589"/>
      <point x="29" y="589" type="curve" smooth="yes"/>
      <point x="953" y="589" type="line" smooth="yes"/>
      <point x="956" y="589"/>
      <point x="958" y="590"/>
      <point x="958" y="592" type="curve" smooth="yes"/>
      <point x="958" y="594"/>
      <point x="956" y="596"/>
      <point x="953" y="596" type="curve" smooth="yes"/>
      <point x="29" y="596" type="line" smooth="yes"/>
      <point x="27" y="596"/>
      <point x="25" y="594"/>
    </contour>
  </outline>
</glyph>
